<svg id="svg" version="1.1" xmlns="http://www.w3.org/2000/svg" xmlns:xlink="http://www.w3.org/1999/xlink" width="400" height="152" viewBox="0, 0, 400,152"><g id="svgg"><path id="path0" d="M52.000 0.500 L 52.000 1.000 50.625 1.012 C 48.036 1.035,47.597 1.161,46.705 2.138 C 45.965 2.950,45.866 3.004,45.083 3.021 C 43.431 3.058,43.268 3.148,43.104 4.112 L 42.958 4.971 41.237 5.027 C 39.285 5.091,39.164 5.157,39.043 6.236 L 38.957 7.000 37.520 7.017 C 35.397 7.041,35.279 7.096,35.102 8.132 L 34.953 9.000 34.102 9.010 C 31.896 9.036,31.167 9.387,31.167 10.425 C 31.167 10.935,31.138 10.957,30.329 11.053 C 29.226 11.183,29.194 11.211,29.067 12.174 L 28.957 13.000 28.309 13.000 C 27.445 13.000,25.936 13.850,25.673 14.484 C 25.486 14.936,24.903 15.333,24.427 15.333 C 24.012 15.333,23.474 15.921,23.355 16.504 C 23.259 16.975,23.103 17.147,22.520 17.424 C 21.630 17.847,21.004 18.995,21.002 20.208 L 21.000 21.000 20.200 21.000 C 19.197 21.000,19.000 21.197,19.000 22.200 L 19.000 23.000 18.078 23.000 C 17.439 23.000,17.129 23.072,17.066 23.235 C 17.017 23.364,16.753 23.562,16.480 23.675 C 16.207 23.788,15.871 24.099,15.733 24.366 C 15.413 24.985,14.981 25.415,14.354 25.739 C 14.081 25.881,13.812 26.139,13.756 26.313 C 13.617 26.753,12.972 27.420,12.398 27.717 C 11.803 28.026,11.000 29.552,11.000 30.374 C 11.000 30.996,10.801 31.167,10.079 31.167 C 9.591 31.167,9.167 31.743,9.164 32.412 C 9.161 33.064,9.027 33.249,8.417 33.441 C 7.761 33.647,7.166 34.821,7.046 36.144 L 6.957 37.131 6.302 37.236 C 5.479 37.367,5.199 37.947,5.055 39.818 L 4.954 41.119 4.352 41.268 C 3.536 41.470,3.182 42.225,3.054 44.039 C 2.959 45.373,2.933 45.448,2.486 45.646 C 1.597 46.039,1.151 47.168,1.045 49.292 L 0.950 51.167 0.475 51.167 L 0.000 51.167 0.000 75.917 L 0.000 100.667 0.500 100.667 L 1.000 100.667 1.003 102.125 C 1.010 105.283,1.368 106.398,2.440 106.599 C 2.995 106.703,3.000 106.712,3.012 107.644 C 3.044 110.105,3.240 110.556,4.356 110.734 L 5.000 110.837 5.012 111.710 C 5.045 114.089,5.250 114.557,6.332 114.730 L 6.951 114.829 7.050 116.008 C 7.185 117.617,7.573 118.373,8.363 118.568 C 8.939 118.711,8.983 118.767,9.086 119.518 C 9.215 120.457,9.419 120.665,10.327 120.787 C 10.982 120.875,11.000 120.894,11.000 121.524 C 11.000 122.400,11.850 123.897,12.499 124.166 C 12.887 124.327,13.039 124.548,13.242 125.246 C 13.533 126.248,13.649 126.365,14.625 126.644 C 15.187 126.805,15.333 126.924,15.333 127.220 C 15.333 128.116,16.622 128.833,18.231 128.833 L 18.983 128.833 19.033 129.792 L 19.083 130.750 20.042 130.800 L 21.000 130.850 21.000 131.728 C 21.000 133.438,21.392 134.292,22.297 134.555 C 22.924 134.737,23.093 134.864,23.133 135.183 C 23.247 136.111,23.518 136.489,24.144 136.593 C 24.477 136.648,24.820 136.711,24.905 136.732 C 24.990 136.753,25.140 137.101,25.238 137.505 C 25.432 138.303,25.795 138.584,26.837 138.744 C 27.282 138.812,27.496 138.966,27.718 139.375 C 28.098 140.075,29.450 140.833,30.318 140.833 L 30.969 140.833 31.083 141.666 C 31.218 142.645,31.240 142.664,32.404 142.784 C 33.254 142.872,33.312 142.908,33.545 143.502 C 33.831 144.228,35.123 144.833,36.388 144.833 C 37.085 144.833,37.101 144.846,37.293 145.565 C 37.528 146.442,37.923 146.630,39.846 146.780 L 41.110 146.878 41.299 147.588 C 41.530 148.452,41.944 148.638,43.958 148.783 C 45.242 148.876,45.333 148.908,45.333 149.256 C 45.333 150.201,46.780 150.814,49.042 150.827 C 49.994 150.833,50.000 150.836,50.000 151.333 L 50.000 151.833 74.417 151.833 L 98.833 151.833 98.833 151.359 L 98.833 150.884 101.246 150.787 C 104.144 150.669,104.520 150.535,104.740 149.542 L 104.897 148.833 105.907 148.821 C 107.395 148.803,108.723 148.581,108.804 148.337 C 109.091 147.477,110.081 146.868,111.378 146.753 C 112.554 146.648,112.695 146.597,112.915 146.194 C 113.319 145.452,114.048 144.884,114.750 144.764 C 116.240 144.509,116.495 144.356,116.700 143.589 C 116.887 142.891,116.913 142.870,117.700 142.777 C 118.765 142.651,118.784 142.634,118.917 141.666 L 119.031 140.833 119.843 140.833 C 120.782 140.833,121.000 140.589,121.000 139.536 L 121.000 138.883 122.436 138.782 C 124.172 138.659,124.623 138.413,124.767 137.513 C 124.867 136.891,124.901 136.861,125.644 136.751 C 126.614 136.606,126.833 136.426,126.836 135.771 C 126.839 135.041,126.970 134.917,127.917 134.740 L 128.750 134.583 128.894 133.736 L 129.038 132.888 129.894 132.736 L 130.750 132.583 130.895 131.727 L 131.041 130.871 131.844 130.764 C 132.694 130.652,132.720 130.620,132.926 129.458 C 133.024 128.910,133.095 128.833,133.508 128.833 C 134.493 128.833,134.790 128.589,134.915 127.677 C 135.029 126.847,135.043 126.830,135.694 126.726 C 136.522 126.594,136.833 126.291,136.836 125.613 C 136.839 124.905,136.964 124.764,137.750 124.576 C 138.373 124.427,138.437 124.356,138.722 123.479 C 138.984 122.671,139.100 122.520,139.555 122.394 C 140.235 122.205,140.789 121.137,140.936 119.731 C 141.041 118.731,141.052 118.713,141.646 118.566 C 142.516 118.351,142.859 117.561,142.965 115.531 C 143.052 113.872,143.610 112.833,144.415 112.833 C 144.825 112.833,145.000 112.105,145.000 110.406 L 145.000 108.833 145.827 108.833 C 146.902 108.833,147.000 108.641,147.000 106.526 L 147.000 104.863 147.628 104.756 C 148.768 104.564,148.959 104.106,148.988 101.495 C 148.999 100.458,149.022 100.398,149.472 100.228 C 149.760 100.119,150.130 99.733,150.424 99.233 L 150.904 98.417 150.966 94.625 L 151.027 90.833 151.692 90.727 C 152.988 90.519,152.910 91.351,152.972 77.091 C 153.037 62.029,152.996 61.578,151.516 61.254 L 151.037 61.148 150.975 57.606 C 150.905 53.526,150.836 53.290,149.678 53.104 L 149.000 52.996 149.000 51.262 C 149.000 49.300,148.931 49.000,148.477 49.000 C 148.300 49.000,147.905 48.749,147.598 48.443 L 147.041 47.885 146.973 45.695 C 146.896 43.239,146.863 43.167,145.764 43.043 L 145.000 42.957 144.980 41.603 C 144.955 39.869,144.828 39.301,144.416 39.083 C 143.428 38.561,143.000 37.903,142.994 36.891 C 142.981 34.818,142.513 33.640,141.579 33.332 C 141.072 33.165,141.008 33.071,140.918 32.365 C 140.767 31.176,140.123 29.925,139.537 29.682 C 139.044 29.478,138.841 29.181,138.562 28.255 C 138.427 27.810,138.192 27.625,137.192 27.179 C 137.069 27.124,136.844 26.705,136.692 26.248 C 136.434 25.468,136.371 25.406,135.667 25.236 C 134.950 25.064,134.912 25.024,134.822 24.358 C 134.703 23.485,134.516 23.297,133.645 23.178 C 132.987 23.088,132.939 23.043,132.726 22.312 C 132.503 21.544,132.177 21.281,131.267 21.134 C 131.052 21.100,130.880 20.838,130.727 20.312 C 130.502 19.541,130.176 19.280,129.255 19.133 C 129.018 19.095,128.889 18.889,128.790 18.388 C 128.628 17.569,128.363 17.313,127.538 17.179 C 126.975 17.087,126.915 17.023,126.786 16.370 C 126.596 15.406,126.183 15.175,124.436 15.052 L 123.000 14.950 123.000 14.298 C 123.000 13.246,122.782 13.000,121.849 13.000 L 121.043 13.000 120.932 12.160 C 120.809 11.233,120.505 11.000,119.422 11.000 C 118.913 11.000,118.846 10.939,118.641 10.292 C 118.434 9.637,118.347 9.561,117.499 9.285 C 116.835 9.069,116.505 8.853,116.305 8.504 C 115.898 7.795,114.776 7.154,113.760 7.049 C 112.901 6.960,112.890 6.952,112.701 6.248 C 112.470 5.381,112.058 5.196,110.042 5.050 C 108.758 4.957,108.667 4.926,108.667 4.577 C 108.667 3.685,107.263 3.036,105.250 2.999 C 104.687 2.989,104.531 2.904,104.248 2.454 C 103.622 1.459,102.826 1.180,100.272 1.057 L 98.000 0.948 98.000 0.474 L 98.000 0.000 75.000 0.000 L 52.000 0.000 52.000 0.500 M80.583 4.089 C 81.775 4.234,83.303 4.501,83.978 4.683 C 84.654 4.865,86.312 5.120,87.664 5.250 C 90.489 5.521,92.066 5.843,93.833 6.508 C 94.521 6.767,95.914 7.174,96.930 7.414 C 97.966 7.658,99.282 8.105,99.930 8.434 C 100.564 8.756,101.772 9.242,102.613 9.514 C 104.116 9.999,109.085 12.391,109.646 12.898 C 109.803 13.040,110.416 13.377,111.008 13.645 C 111.599 13.914,112.380 14.370,112.742 14.659 C 113.105 14.948,113.907 15.450,114.525 15.775 C 115.144 16.100,115.768 16.546,115.913 16.767 C 116.057 16.988,116.580 17.397,117.075 17.676 C 117.569 17.955,118.171 18.443,118.413 18.760 C 118.655 19.078,119.094 19.438,119.388 19.560 C 119.681 19.683,120.151 20.044,120.430 20.362 C 120.709 20.681,121.346 21.212,121.844 21.543 C 123.028 22.329,129.795 29.045,130.333 29.968 C 130.563 30.361,131.144 31.090,131.625 31.588 C 132.106 32.085,132.500 32.597,132.500 32.725 C 132.500 32.853,132.802 33.286,133.172 33.687 C 133.541 34.088,134.116 34.904,134.448 35.500 C 134.781 36.096,135.275 36.840,135.546 37.153 C 135.817 37.466,136.256 38.179,136.521 38.736 C 136.785 39.294,137.226 40.050,137.499 40.417 C 137.772 40.783,138.159 41.523,138.360 42.061 C 138.561 42.599,138.975 43.337,139.279 43.702 C 139.630 44.121,139.958 44.803,140.172 45.557 C 140.752 47.597,140.869 47.892,141.437 48.750 C 141.821 49.329,142.113 50.107,142.394 51.299 C 142.634 52.320,142.969 53.265,143.221 53.632 C 143.861 54.567,143.961 54.887,144.421 57.478 C 144.655 58.795,144.990 60.154,145.166 60.498 C 145.543 61.238,146.167 64.161,146.167 65.193 C 146.167 65.591,146.279 66.967,146.415 68.250 C 147.153 75.193,146.410 89.397,145.183 91.802 C 144.994 92.171,144.651 93.511,144.420 94.778 C 143.978 97.206,143.635 98.347,143.251 98.666 C 142.991 98.882,142.471 100.429,142.176 101.865 C 142.068 102.386,141.801 103.061,141.581 103.365 C 140.890 104.318,140.716 104.711,140.341 106.167 C 140.126 107.004,139.794 107.821,139.530 108.164 C 139.284 108.483,138.760 109.421,138.365 110.247 C 137.970 111.073,137.505 111.900,137.332 112.085 C 137.159 112.269,136.835 112.832,136.612 113.335 C 136.389 113.838,135.869 114.700,135.457 115.250 C 135.046 115.800,134.519 116.625,134.287 117.083 C 134.056 117.542,133.664 118.104,133.417 118.333 C 133.170 118.563,132.818 119.042,132.635 119.399 C 132.452 119.755,131.985 120.393,131.598 120.815 C 131.210 121.238,130.552 122.033,130.134 122.583 C 129.716 123.133,128.413 124.521,127.238 125.667 C 126.063 126.813,124.672 128.187,124.148 128.721 C 123.623 129.255,122.826 129.967,122.378 130.304 C 121.540 130.933,120.206 132.057,118.852 133.274 C 118.429 133.654,117.778 134.123,117.406 134.316 C 117.033 134.510,116.563 134.892,116.360 135.166 C 116.158 135.440,115.675 135.824,115.288 136.020 C 114.900 136.216,114.133 136.715,113.583 137.128 C 113.033 137.542,112.171 138.064,111.667 138.288 C 111.162 138.512,110.611 138.820,110.442 138.973 C 110.154 139.232,107.684 140.546,105.417 141.647 C 104.867 141.913,103.967 142.282,103.417 142.466 C 102.867 142.650,101.735 143.107,100.901 143.481 C 100.067 143.855,98.725 144.317,97.918 144.509 C 97.112 144.701,96.294 144.958,96.101 145.080 C 95.393 145.530,92.951 146.166,90.631 146.505 C 89.322 146.696,87.807 146.998,87.266 147.176 C 83.004 148.575,69.193 148.731,64.333 147.435 C 61.808 146.762,61.533 146.707,59.250 146.414 C 57.614 146.205,56.659 145.978,55.352 145.488 C 54.400 145.131,52.900 144.648,52.019 144.415 C 51.138 144.182,49.779 143.697,49.000 143.338 C 48.221 142.979,46.798 142.378,45.838 142.002 C 44.878 141.625,43.978 141.218,43.838 141.097 C 43.698 140.975,42.931 140.573,42.133 140.202 C 41.335 139.832,40.435 139.344,40.133 139.117 C 39.831 138.890,39.246 138.537,38.833 138.332 C 37.791 137.815,33.833 135.172,33.833 134.994 C 33.833 134.913,33.477 134.645,33.042 134.397 C 32.606 134.150,31.950 133.673,31.583 133.339 C 31.217 133.004,30.595 132.517,30.202 132.255 C 29.808 131.993,29.363 131.569,29.212 131.313 C 29.060 131.057,28.718 130.757,28.451 130.646 C 27.506 130.255,21.960 124.713,21.349 123.549 C 21.166 123.201,20.712 122.668,20.341 122.365 C 19.969 122.061,19.552 121.596,19.415 121.331 C 19.278 121.065,18.791 120.474,18.333 120.016 C 17.875 119.557,17.500 119.093,17.500 118.983 C 17.500 118.873,17.192 118.438,16.816 118.017 C 15.928 117.020,14.492 114.875,13.777 113.476 C 13.465 112.867,13.015 112.112,12.775 111.798 C 12.536 111.484,12.031 110.557,11.654 109.738 C 11.277 108.920,10.867 108.135,10.741 107.994 C 10.616 107.854,10.167 106.916,9.744 105.911 C 9.321 104.906,8.719 103.507,8.407 102.803 C 8.094 102.099,7.618 100.749,7.350 99.803 C 7.082 98.857,6.596 97.402,6.271 96.569 C 5.847 95.482,5.602 94.469,5.404 92.985 C 5.251 91.848,4.875 90.054,4.568 89.000 C 3.062 83.842,3.075 67.578,4.588 63.162 C 4.823 62.477,5.124 61.129,5.258 60.167 C 5.638 57.442,5.822 56.677,6.420 55.333 C 6.726 54.646,7.175 53.296,7.417 52.333 C 7.660 51.371,8.115 50.096,8.428 49.500 C 8.742 48.904,9.229 47.767,9.510 46.973 C 9.791 46.178,10.288 45.091,10.614 44.556 C 10.940 44.021,11.422 43.070,11.684 42.444 C 11.946 41.817,12.415 40.954,12.726 40.527 C 13.037 40.100,13.499 39.337,13.751 38.833 C 14.004 38.329,14.407 37.681,14.647 37.392 C 14.887 37.104,15.341 36.408,15.655 35.847 C 15.970 35.285,16.481 34.546,16.790 34.204 C 17.100 33.863,17.471 33.358,17.615 33.083 C 17.758 32.808,18.260 32.159,18.730 31.641 C 19.199 31.122,19.763 30.460,19.982 30.169 C 20.201 29.878,20.559 29.572,20.778 29.489 C 21.016 29.399,21.301 29.050,21.485 28.627 C 21.654 28.236,22.121 27.611,22.522 27.237 C 22.922 26.863,23.391 26.348,23.563 26.093 C 23.736 25.838,24.121 25.486,24.420 25.309 C 24.719 25.133,25.158 24.694,25.397 24.334 C 25.635 23.973,26.127 23.507,26.490 23.299 C 26.853 23.090,27.227 22.750,27.321 22.543 C 27.416 22.336,27.894 21.910,28.386 21.596 C 28.877 21.282,29.408 20.828,29.565 20.588 C 29.722 20.348,30.258 19.891,30.754 19.573 C 31.251 19.256,31.735 18.850,31.831 18.671 C 31.926 18.493,32.451 18.085,32.996 17.766 C 33.541 17.446,34.379 16.875,34.858 16.496 C 35.338 16.117,36.077 15.631,36.501 15.416 C 36.924 15.202,37.375 14.901,37.501 14.748 C 37.628 14.596,38.411 14.130,39.241 13.714 C 40.071 13.297,40.938 12.809,41.167 12.629 C 41.713 12.199,45.678 10.302,47.583 9.558 C 48.408 9.237,49.262 8.859,49.480 8.719 C 50.071 8.339,52.475 7.561,54.039 7.243 C 54.797 7.089,55.616 6.861,55.859 6.735 C 57.184 6.054,59.951 5.488,63.511 5.171 C 64.468 5.085,65.693 4.862,66.234 4.675 C 66.776 4.487,67.601 4.329,68.068 4.323 C 68.535 4.317,69.367 4.211,69.917 4.087 C 71.391 3.754,77.841 3.756,80.583 4.089 M164.685 49.174 C 163.679 49.380,163.411 49.680,163.158 50.881 C 163.002 51.623,162.807 52.042,162.470 52.359 L 162.000 52.800 162.000 63.913 L 162.000 75.026 162.500 75.526 C 162.958 75.984,163.000 76.121,163.000 77.166 C 163.000 78.978,162.644 78.833,167.101 78.833 L 171.000 78.833 171.000 73.833 L 171.000 68.833 177.000 68.833 L 183.000 68.833 183.000 73.833 L 183.000 78.833 186.899 78.833 C 190.300 78.833,190.811 78.800,190.899 78.570 C 190.954 78.425,191.011 76.718,191.024 74.778 C 191.037 72.838,191.093 71.548,191.149 71.913 C 191.213 72.336,191.370 72.637,191.583 72.748 C 192.133 73.032,193.000 74.004,193.000 74.336 C 193.000 74.507,193.075 74.693,193.167 74.750 C 193.258 74.807,193.333 75.026,193.333 75.237 C 193.333 76.021,194.464 76.833,195.555 76.833 C 195.701 76.833,196.175 77.178,196.609 77.600 C 197.846 78.802,197.325 78.744,207.262 78.799 L 216.274 78.849 217.146 78.411 C 217.747 78.109,218.100 77.801,218.282 77.420 C 218.519 76.924,218.638 76.854,219.428 76.756 C 220.447 76.628,220.663 76.431,220.786 75.515 C 220.864 74.931,220.938 74.838,221.396 74.746 C 222.338 74.557,222.447 74.498,222.641 74.072 C 222.747 73.841,222.847 73.411,222.864 73.117 C 222.881 72.824,222.938 73.917,222.989 75.548 C 223.065 77.928,223.133 78.544,223.333 78.671 C 223.487 78.768,228.087 78.814,235.250 78.790 L 246.917 78.750 246.917 75.917 L 246.917 73.083 239.961 73.040 L 233.005 72.996 232.955 62.123 C 232.905 51.018,232.867 50.348,232.250 49.667 C 231.516 48.856,226.079 48.746,224.689 49.514 C 223.337 50.261,223.005 51.215,222.978 54.417 C 222.965 55.966,222.911 56.769,222.848 56.333 C 222.703 55.318,222.619 55.222,221.757 55.093 L 221.009 54.981 220.898 54.144 C 220.775 53.218,220.490 53.000,219.406 53.000 C 218.856 53.000,218.833 52.975,218.831 52.375 C 218.827 51.361,218.287 51.000,216.775 51.000 C 216.206 51.000,216.026 50.888,215.232 50.042 L 214.333 49.083 208.238 49.030 C 200.319 48.962,199.511 49.085,199.264 50.403 L 199.161 50.951 197.787 51.048 C 195.841 51.185,195.545 51.329,195.298 52.252 C 195.136 52.857,195.008 53.029,194.672 53.095 C 193.416 53.344,193.328 53.442,193.096 54.839 C 193.021 55.293,192.887 55.469,192.513 55.611 C 192.029 55.794,191.370 56.785,191.145 57.667 C 191.087 57.896,191.031 56.532,191.020 54.635 C 191.008 52.538,190.935 51.146,190.833 51.083 C 190.742 51.027,190.667 50.807,190.667 50.596 C 190.667 49.393,189.188 48.924,185.714 49.025 C 182.832 49.108,183.095 48.490,183.030 55.339 L 182.976 61.000 177.002 61.000 L 171.027 61.000 170.972 55.339 C 170.921 50.174,170.891 49.652,170.620 49.381 C 170.279 49.040,166.063 48.893,164.685 49.174 M240.674 49.182 C 239.787 49.356,239.454 49.679,239.187 50.625 C 239.045 51.126,238.898 51.333,238.682 51.333 C 237.216 51.333,236.936 53.676,238.319 54.367 C 239.010 54.712,239.161 54.931,239.164 55.593 C 239.168 56.330,239.497 56.676,240.298 56.783 C 240.997 56.877,241.000 56.880,241.000 57.580 C 241.000 58.242,241.130 58.801,241.534 59.874 C 241.655 60.196,241.893 60.388,242.332 60.519 C 242.938 60.701,242.960 60.735,243.053 61.629 C 243.161 62.679,243.311 62.827,244.267 62.831 L 244.950 62.833 245.059 64.363 C 245.188 66.181,245.403 66.593,246.305 66.745 C 246.945 66.853,246.958 66.870,247.057 67.707 C 247.173 68.690,247.324 68.827,248.289 68.831 L 248.995 68.833 249.039 73.792 L 249.083 78.750 253.769 78.794 C 257.973 78.834,258.479 78.810,258.686 78.561 C 258.868 78.341,258.927 77.269,258.968 73.475 L 259.019 68.667 259.417 68.667 C 260.502 68.667,261.000 67.386,261.000 64.593 L 261.000 62.833 261.917 62.833 C 262.522 62.833,262.844 62.763,262.865 62.625 C 262.882 62.510,262.942 64.479,262.999 67.000 C 263.110 71.954,263.194 72.428,263.987 72.603 C 264.955 72.816,264.951 72.812,265.051 73.780 C 265.104 74.296,265.216 74.763,265.298 74.818 C 265.381 74.872,265.554 75.139,265.683 75.411 C 265.811 75.682,266.142 76.020,266.417 76.161 C 266.692 76.301,266.977 76.510,267.050 76.625 C 267.123 76.740,267.327 76.833,267.502 76.833 C 267.677 76.833,268.166 77.169,268.589 77.580 C 269.814 78.771,269.609 78.750,280.000 78.750 C 290.511 78.750,290.152 78.784,291.307 77.676 C 291.776 77.227,292.289 76.834,292.447 76.804 C 292.606 76.773,292.787 76.561,292.851 76.332 C 292.925 76.068,292.973 76.352,292.983 77.111 C 293.010 79.002,292.525 78.833,297.929 78.833 C 302.431 78.833,302.663 78.818,302.827 78.511 C 302.935 78.311,303.000 76.417,303.000 73.511 L 303.000 68.833 307.000 68.833 L 311.000 68.833 311.007 72.958 C 311.014 76.807,311.123 78.345,311.409 78.632 C 311.474 78.697,313.640 78.750,316.222 78.750 L 320.917 78.750 321.004 73.750 C 321.052 71.000,321.108 69.054,321.129 69.426 C 321.180 70.335,321.464 70.671,322.273 70.780 L 322.952 70.871 323.054 72.549 C 323.169 74.429,323.275 74.625,324.262 74.781 C 325.022 74.902,325.161 75.055,325.164 75.782 C 325.167 76.445,325.669 76.833,326.522 76.833 C 327.111 76.833,327.142 76.862,327.251 77.506 C 327.469 78.798,327.038 78.744,337.476 78.800 C 343.759 78.833,346.773 78.793,346.892 78.675 C 346.988 78.579,347.192 78.500,347.344 78.500 C 347.795 78.500,348.466 77.867,348.584 77.331 C 348.689 76.853,348.729 76.833,349.598 76.833 C 350.285 76.833,350.569 76.756,350.777 76.513 C 351.015 76.236,351.099 76.222,351.401 76.412 C 351.593 76.532,352.106 76.681,352.542 76.742 C 353.225 76.838,353.333 76.906,353.333 77.238 C 353.333 78.762,353.844 78.834,364.699 78.831 C 374.591 78.828,374.704 78.819,374.797 77.996 C 374.911 76.984,374.997 76.833,375.462 76.831 C 376.659 76.825,376.770 76.693,376.935 75.086 C 377.034 74.115,377.117 73.930,377.772 73.217 C 379.125 71.743,378.955 68.165,377.507 67.618 C 377.087 67.460,377.034 67.347,376.948 66.427 C 376.835 65.220,376.164 63.898,375.520 63.613 C 375.280 63.507,374.984 63.326,374.863 63.210 C 374.741 63.094,374.239 63.000,373.738 63.000 C 372.848 63.000,372.833 62.992,372.833 62.509 C 372.833 62.232,372.660 61.817,372.434 61.554 L 372.034 61.089 368.530 61.026 L 365.026 60.963 364.914 60.145 C 364.770 59.098,364.587 59.008,362.553 58.969 C 361.509 58.949,361.247 58.916,361.830 58.876 C 362.875 58.804,362.994 58.685,362.997 57.708 L 363.000 57.000 365.083 57.000 L 367.167 57.000 367.167 57.482 C 367.167 58.757,369.210 59.186,373.685 58.850 C 376.157 58.665,376.592 58.486,376.761 57.585 L 376.870 57.000 379.935 57.000 L 383.000 57.000 383.000 67.653 C 383.000 73.512,383.046 78.425,383.101 78.570 C 383.190 78.802,383.773 78.833,387.939 78.833 L 392.675 78.833 392.837 78.406 C 392.937 78.144,393.000 73.901,393.000 67.489 L 393.000 57.000 395.375 56.999 C 396.681 56.998,398.256 56.950,398.875 56.891 L 400.000 56.785 400.000 52.990 L 400.000 49.195 398.792 49.087 C 398.127 49.028,392.664 49.003,386.651 49.032 C 374.780 49.088,375.167 49.055,375.167 50.007 C 375.167 51.117,374.716 51.323,374.281 50.411 C 373.670 49.130,373.367 49.083,365.583 49.083 C 357.663 49.083,357.793 49.067,356.676 50.173 C 356.217 50.628,355.693 51.000,355.513 51.000 C 355.334 51.000,355.140 51.075,355.083 51.167 C 355.027 51.258,354.839 51.333,354.666 51.333 C 353.843 51.333,353.000 52.993,353.000 54.613 C 353.000 55.307,352.662 55.210,352.279 54.406 C 352.127 54.088,351.797 53.735,351.545 53.622 C 350.967 53.362,350.588 52.987,350.256 52.345 C 349.920 51.695,348.852 51.167,347.633 51.048 C 346.762 50.963,346.675 50.917,346.582 50.495 C 346.300 49.212,345.730 49.108,338.614 49.038 C 330.487 48.958,329.333 49.151,329.333 50.593 C 329.333 50.965,329.268 51.000,328.572 51.000 C 327.453 51.000,327.196 51.200,327.067 52.170 L 326.957 53.000 326.270 53.003 C 325.314 53.006,325.133 53.174,325.039 54.149 L 324.958 55.000 324.344 55.000 C 323.240 55.000,323.102 55.235,323.028 57.233 L 322.962 59.000 322.435 59.000 C 321.683 59.000,321.173 59.412,321.134 60.051 C 321.115 60.344,321.056 58.258,321.001 55.417 C 320.869 48.530,321.251 49.083,316.630 49.083 L 313.676 49.083 312.804 50.000 C 312.324 50.504,311.779 50.993,311.593 51.087 C 311.096 51.337,311.020 52.078,311.010 56.792 L 311.000 61.000 307.000 61.000 L 303.000 61.000 303.000 56.297 C 303.000 49.243,302.832 48.999,297.989 49.001 C 293.289 49.003,293.023 49.245,292.979 53.554 C 292.962 55.263,292.938 55.439,292.826 54.671 C 292.677 53.641,292.257 53.167,291.494 53.167 C 291.049 53.167,291.018 53.118,290.908 52.238 C 290.778 51.197,290.528 51.000,289.336 51.000 C 288.762 51.000,288.682 50.948,288.587 50.517 C 288.305 49.232,287.706 49.123,280.486 49.043 C 272.400 48.953,271.511 49.084,271.263 50.405 C 271.161 50.950,271.150 50.956,270.050 51.044 C 268.690 51.153,268.623 51.129,268.277 50.403 C 267.815 49.433,266.863 49.118,264.161 49.037 C 260.574 48.930,259.597 49.213,259.248 50.462 C 259.111 50.948,258.956 51.122,258.533 51.260 C 257.584 51.569,257.000 52.800,257.000 54.490 C 257.000 55.084,256.960 55.137,256.440 55.235 C 255.500 55.411,255.000 56.455,255.000 58.240 L 255.000 59.000 254.025 59.000 L 253.050 59.000 252.941 57.470 C 252.812 55.651,252.602 55.252,251.697 55.108 C 251.042 55.003,251.038 54.998,250.925 54.092 C 250.835 53.373,250.739 53.159,250.464 53.072 C 249.954 52.910,249.000 51.896,249.000 51.515 C 249.000 51.334,248.925 51.140,248.833 51.083 C 248.742 51.027,248.667 50.807,248.667 50.596 C 248.667 49.899,248.096 49.399,247.063 49.191 C 245.970 48.972,241.777 48.966,240.674 49.182 M209.333 57.242 C 209.333 57.830,209.739 58.330,210.394 58.548 C 210.992 58.747,211.089 58.853,211.205 59.429 C 211.355 60.173,211.848 60.667,212.440 60.667 C 212.950 60.667,212.955 60.683,213.137 63.083 C 213.350 65.895,213.060 69.059,212.583 69.130 C 212.400 69.157,212.091 69.213,211.896 69.254 C 211.538 69.330,211.223 69.910,211.133 70.660 C 211.095 70.975,210.955 71.097,210.535 71.183 C 209.802 71.332,209.389 71.734,209.259 72.428 L 209.152 73.000 207.076 73.000 L 205.000 73.000 205.000 72.264 C 205.000 71.095,204.917 71.000,203.899 71.000 L 203.000 71.000 203.000 70.322 C 203.000 69.243,202.787 69.000,201.841 69.000 L 201.027 69.000 200.972 66.911 C 200.942 65.762,200.942 63.924,200.972 62.828 L 201.028 60.833 201.851 60.833 C 202.772 60.833,203.000 60.550,203.000 59.406 L 203.000 58.833 203.897 58.833 C 204.883 58.833,204.993 58.704,204.998 57.542 L 205.000 57.000 207.167 57.000 C 208.950 57.000,209.333 57.043,209.333 57.242 M281.239 57.585 C 281.392 58.401,281.856 58.637,283.674 58.825 C 284.539 58.915,285.267 59.047,285.292 59.119 C 285.717 60.323,286.514 60.712,288.601 60.734 C 290.378 60.752,290.648 60.609,290.818 59.553 C 290.917 58.937,290.944 58.915,291.665 58.864 C 292.509 58.803,292.782 58.635,292.884 58.113 C 292.923 57.913,292.959 59.100,292.964 60.750 C 292.969 62.400,292.931 63.637,292.879 63.500 C 292.701 63.034,292.421 63.005,288.074 63.003 C 282.501 62.999,283.097 62.490,283.028 67.309 L 282.973 71.146 282.489 71.253 C 281.911 71.379,281.333 72.056,281.333 72.606 C 281.333 72.985,281.287 73.000,280.083 73.000 L 278.833 73.000 278.833 72.365 C 278.833 71.252,278.599 71.106,276.685 71.029 L 275.000 70.961 275.000 70.244 C 275.000 69.097,274.915 69.000,273.899 69.000 L 273.000 69.000 273.000 64.917 L 273.000 60.833 273.897 60.833 C 274.895 60.833,274.993 60.711,274.998 59.458 L 275.000 58.833 276.125 58.832 C 278.094 58.831,278.833 58.419,278.833 57.325 C 278.833 57.034,278.954 57.000,279.981 57.000 L 281.130 57.000 281.239 57.585 M339.239 57.585 C 339.377 58.320,339.829 58.619,341.000 58.748 C 343.074 58.978,343.000 58.944,343.000 59.661 C 343.000 60.730,343.097 60.833,344.101 60.833 L 345.000 60.833 345.000 64.917 L 345.000 69.000 344.101 69.000 C 343.086 69.000,343.000 69.097,343.000 70.241 L 343.000 70.954 341.542 71.043 C 339.547 71.165,339.167 71.412,339.167 72.591 L 339.167 73.000 337.092 73.000 L 335.017 73.000 334.967 72.042 L 334.917 71.083 333.958 71.033 C 333.006 70.984,333.000 70.980,332.983 70.450 C 332.957 69.594,332.758 69.090,332.423 69.025 C 332.252 68.992,331.861 68.700,331.556 68.376 L 331.000 67.787 331.000 64.888 L 331.000 61.990 331.607 61.453 C 331.941 61.158,332.347 60.865,332.510 60.802 C 332.711 60.724,332.849 60.407,332.945 59.802 L 333.085 58.917 334.001 58.833 L 334.917 58.750 334.967 57.875 L 335.017 57.000 337.073 57.000 L 339.130 57.000 339.239 57.585 M357.182 67.553 C 357.372 68.730,357.418 68.744,361.401 68.803 L 364.958 68.857 365.062 69.620 C 365.222 70.783,365.306 70.829,367.312 70.864 C 368.326 70.882,368.693 70.922,368.170 70.958 C 367.110 71.030,367.006 71.142,367.003 72.208 L 367.000 73.000 364.000 73.000 L 361.000 73.000 361.000 72.264 C 361.000 71.079,360.926 71.000,359.816 71.000 L 358.833 71.000 358.833 70.345 C 358.833 69.100,357.386 68.657,355.305 69.266 C 354.916 69.380,354.781 68.839,354.913 67.696 L 355.023 66.750 356.051 66.833 L 357.079 66.917 357.182 67.553 M164.127 81.119 C 163.554 81.206,163.167 81.744,163.167 82.454 C 163.167 82.986,163.149 83.000,162.449 83.000 C 161.261 83.000,161.147 83.179,161.043 85.218 L 160.952 87.000 160.246 87.000 C 159.083 87.000,159.083 87.000,159.084 91.735 C 159.084 96.503,159.099 96.569,160.221 96.737 L 160.952 96.847 161.055 98.183 C 161.209 100.186,161.395 100.449,162.862 100.744 C 163.185 100.809,163.336 100.965,163.413 101.316 C 163.707 102.656,164.834 102.869,171.296 102.802 C 174.655 102.768,176.531 102.686,176.750 102.564 C 176.994 102.428,177.418 102.427,178.333 102.562 C 179.021 102.662,180.652 102.745,181.959 102.746 L 184.335 102.748 185.233 101.791 C 185.727 101.264,186.211 100.833,186.310 100.833 C 186.730 100.833,186.894 99.992,186.968 97.458 L 187.044 94.833 188.008 94.833 L 188.972 94.833 189.028 97.756 C 189.064 99.659,189.148 100.721,189.268 100.798 C 189.370 100.863,189.578 101.159,189.730 101.456 C 190.176 102.328,191.124 102.701,193.125 102.793 C 196.113 102.930,196.833 102.676,196.833 101.488 C 196.833 101.128,196.908 100.833,197.000 100.833 C 197.092 100.833,197.167 101.088,197.167 101.398 C 197.167 102.512,197.538 102.717,199.697 102.800 C 204.044 102.966,204.673 102.565,204.994 99.417 C 205.059 98.775,205.125 98.381,205.140 98.542 C 205.155 98.702,205.228 98.833,205.302 98.833 C 205.377 98.833,205.567 99.103,205.724 99.433 C 205.901 99.804,206.199 100.104,206.505 100.220 C 206.777 100.322,207.000 100.502,207.000 100.620 C 207.000 100.737,207.075 100.833,207.167 100.833 C 207.258 100.833,207.333 101.011,207.333 101.228 C 207.333 102.499,208.867 102.955,212.488 102.761 C 213.732 102.694,214.938 102.664,215.167 102.694 C 218.633 103.152,220.833 102.649,220.833 101.398 C 220.833 100.664,221.121 100.669,221.259 101.406 C 221.505 102.720,222.383 102.874,229.237 102.803 L 234.333 102.750 235.214 101.811 C 235.699 101.294,236.239 100.844,236.415 100.810 C 236.806 100.735,236.962 100.223,236.983 98.942 C 236.998 98.084,237.060 97.911,237.500 97.500 L 238.000 97.033 238.000 94.865 L 238.000 92.696 237.500 92.276 C 237.225 92.044,236.999 91.719,236.997 91.552 C 236.984 89.968,236.219 89.199,234.493 89.035 L 233.250 88.917 234.882 88.833 C 236.693 88.739,236.739 88.710,236.912 87.556 L 237.020 86.833 238.007 86.833 L 238.993 86.833 239.045 93.708 C 239.117 103.222,238.992 103.003,244.230 102.803 C 247.188 102.689,246.906 103.555,246.970 94.412 L 247.024 86.833 249.001 86.833 L 250.979 86.833 251.031 94.494 C 251.079 101.588,251.105 102.177,251.381 102.453 C 251.654 102.725,252.107 102.750,256.798 102.750 C 262.374 102.750,262.565 102.721,262.736 101.835 C 262.790 101.559,262.873 101.124,262.922 100.868 C 262.984 100.548,263.164 100.344,263.501 100.217 C 263.800 100.104,264.100 99.801,264.276 99.433 L 264.562 98.833 266.203 98.833 C 268.257 98.833,268.788 99.215,269.158 100.958 C 269.534 102.729,269.913 102.832,276.083 102.830 L 280.250 102.830 281.148 102.373 C 282.502 101.685,282.990 100.657,283.028 98.417 C 283.043 97.500,283.086 97.050,283.124 97.417 C 283.209 98.260,283.517 98.600,284.310 98.727 C 284.918 98.824,284.943 98.856,285.094 99.703 C 285.204 100.318,285.351 100.628,285.590 100.747 C 285.778 100.840,286.324 101.329,286.804 101.833 L 287.676 102.750 290.380 102.750 C 293.865 102.750,294.275 102.665,294.638 101.865 C 295.040 100.978,295.068 81.417,294.667 81.163 C 294.341 80.957,287.660 80.957,287.333 81.163 C 287.131 81.291,287.073 81.865,287.029 84.203 L 286.974 87.085 286.029 87.001 L 285.083 86.917 284.980 85.209 C 284.883 83.613,284.695 83.000,284.302 83.000 C 284.116 83.000,283.000 81.847,283.000 81.655 C 283.000 81.583,282.882 81.406,282.738 81.262 C 282.435 80.959,275.797 80.870,275.333 81.163 C 275.126 81.294,275.068 82.049,274.992 85.619 C 274.942 87.983,274.886 89.756,274.867 89.559 C 274.827 89.135,274.534 89.000,273.653 89.000 L 273.000 89.000 273.000 87.469 C 273.000 84.968,272.342 83.333,271.334 83.333 C 271.108 83.333,271.026 83.136,270.951 82.405 C 270.795 80.897,271.044 80.968,266.121 81.029 C 261.117 81.092,261.301 81.026,261.097 82.827 C 260.991 83.765,260.920 83.902,260.137 84.665 C 259.364 85.417,259.281 85.573,259.181 86.453 C 259.088 87.275,259.054 87.073,258.954 85.083 C 258.724 80.559,261.211 81.094,240.113 81.033 C 219.781 80.975,221.329 80.848,221.112 82.583 C 221.069 82.928,221.042 82.847,221.025 82.324 C 220.980 80.943,221.057 80.968,217.011 81.029 C 213.969 81.075,213.428 81.122,213.285 81.350 C 213.133 81.591,213.087 81.587,212.808 81.308 C 212.370 80.870,197.448 80.825,197.204 81.261 C 197.072 81.497,197.038 81.497,196.842 81.261 C 196.579 80.944,190.742 80.875,189.872 81.178 C 189.149 81.430,189.129 81.529,189.039 85.375 L 188.959 88.833 187.979 88.833 L 187.000 88.833 186.997 87.042 C 186.990 82.768,186.681 81.616,185.442 81.248 C 184.649 81.013,165.590 80.897,164.127 81.119 M304.467 81.158 C 303.631 81.321,303.349 81.593,303.227 82.355 C 303.127 82.985,303.107 83.000,302.427 83.000 C 301.263 83.000,301.147 83.185,301.043 85.218 L 300.952 87.000 300.246 87.000 C 299.083 87.000,299.083 87.000,299.084 91.735 C 299.084 96.503,299.099 96.569,300.222 96.737 L 300.953 96.847 301.045 98.059 C 301.172 99.749,301.486 100.436,302.193 100.579 C 303.210 100.784,303.309 100.845,303.415 101.324 C 303.725 102.736,305.796 102.937,317.583 102.698 C 318.408 102.681,323.396 102.702,328.667 102.744 C 341.723 102.849,340.956 103.111,341.028 98.529 C 341.043 97.551,341.086 97.050,341.124 97.417 C 341.212 98.289,341.525 98.608,342.427 98.743 C 343.156 98.852,343.167 98.863,343.167 99.498 C 343.167 100.310,343.472 100.617,344.419 100.759 C 345.130 100.866,345.167 100.898,345.167 101.417 C 345.167 102.548,345.528 102.728,347.938 102.802 C 351.552 102.913,352.446 102.617,352.812 101.185 C 352.979 100.537,353.110 100.342,353.433 100.261 C 354.454 100.005,354.499 99.696,354.499 92.958 C 354.500 87.625,354.532 86.833,354.750 86.833 C 354.968 86.833,355.000 87.689,355.000 93.536 C 355.000 100.557,355.056 101.157,355.786 102.022 C 356.619 103.007,362.321 103.157,362.769 102.205 C 362.844 102.046,362.932 98.523,362.964 94.375 L 363.024 86.833 365.001 86.833 L 366.979 86.833 367.031 94.494 C 367.094 103.726,366.738 102.751,370.048 102.748 C 373.551 102.744,374.567 102.095,374.986 99.593 L 375.128 98.750 375.147 99.433 C 375.171 100.258,375.497 100.589,376.439 100.743 C 377.085 100.849,377.134 100.897,377.232 101.509 C 377.438 102.795,377.025 102.743,387.576 102.804 C 392.713 102.834,397.610 102.808,398.458 102.747 L 400.000 102.636 400.000 99.734 L 400.000 96.833 395.500 96.833 L 391.000 96.833 391.000 95.833 L 391.000 94.833 394.625 94.832 C 396.619 94.831,398.644 94.783,399.125 94.725 L 400.000 94.620 400.000 91.836 L 400.000 89.051 397.974 88.942 C 396.859 88.882,394.834 88.833,393.474 88.833 L 391.000 88.833 391.000 87.833 L 391.000 86.833 395.500 86.833 L 400.000 86.833 400.000 83.917 L 400.000 81.000 391.770 81.000 C 382.890 81.000,383.341 80.952,383.074 81.917 L 382.935 82.417 382.874 81.917 C 382.840 81.642,382.690 81.323,382.541 81.208 C 382.203 80.949,345.743 80.904,345.333 81.163 C 345.136 81.288,345.063 81.860,344.988 83.869 C 344.936 85.270,344.880 86.176,344.863 85.881 C 344.829 85.259,344.462 85.000,343.618 85.000 C 343.054 85.000,343.045 84.989,342.944 84.138 C 342.826 83.142,342.678 83.006,341.708 83.003 C 341.013 83.000,341.000 82.990,341.000 82.428 C 341.000 82.113,340.927 81.663,340.837 81.428 L 340.675 81.000 322.879 81.019 C 313.091 81.030,304.806 81.092,304.467 81.158 M333.000 87.978 L 333.000 89.122 332.292 88.985 C 331.902 88.910,330.552 88.845,329.292 88.841 L 327.000 88.833 327.000 87.833 L 327.000 86.833 330.000 86.833 L 333.000 86.833 333.000 87.978 M205.667 88.618 C 205.896 88.734,206.290 88.830,206.542 88.831 C 206.990 88.833,207.000 88.854,207.000 89.833 L 207.000 90.833 206.000 90.833 L 205.000 90.833 205.024 88.958 C 205.038 87.813,205.087 87.341,205.149 87.746 C 205.222 88.228,205.364 88.466,205.667 88.618 M375.703 88.844 L 376.083 88.854 375.713 89.003 C 375.350 89.149,375.237 89.415,375.112 90.417 C 375.078 90.692,375.043 90.279,375.036 89.500 C 375.025 88.502,375.066 88.194,375.172 88.458 C 375.264 88.688,375.470 88.837,375.703 88.844 M177.000 91.807 L 177.000 94.782 173.708 94.877 C 169.266 95.005,168.833 94.951,168.833 94.260 C 168.833 93.505,168.509 93.159,167.702 93.050 L 167.000 92.956 167.000 91.811 L 167.000 90.667 167.571 90.667 C 168.256 90.667,168.833 90.046,168.833 89.311 L 168.833 88.833 172.917 88.833 L 177.000 88.833 177.000 91.807 M317.000 91.807 L 317.000 94.781 313.708 94.881 C 309.177 95.020,309.049 94.997,308.882 94.021 C 308.736 93.170,308.746 89.467,308.895 89.079 C 308.975 88.872,309.622 88.833,312.995 88.833 L 317.000 88.833 317.000 91.807 M221.428 94.487 C 221.514 94.568,221.733 94.665,221.917 94.703 C 222.127 94.746,222.019 94.801,221.625 94.852 L 221.000 94.933 221.021 93.925 C 221.041 92.949,221.045 92.940,221.158 93.628 C 221.221 94.020,221.343 94.406,221.428 94.487 M333.000 95.667 L 333.000 96.833 330.000 96.833 L 327.000 96.833 327.000 95.833 L 327.000 94.833 329.917 94.833 C 331.750 94.833,332.833 94.771,332.833 94.667 C 332.833 94.575,332.871 94.500,332.917 94.500 C 332.962 94.500,333.000 95.025,333.000 95.667 " stroke="none" fill="#f5efe2" fill-rule="evenodd"></path><path id="path1" d="M82.083 60.289 C 81.441 60.644,81.154 60.941,80.833 61.583 L 80.417 62.417 80.370 75.333 C 80.319 89.124,80.379 90.585,81.026 91.284 C 82.036 92.377,81.378 92.333,96.989 92.333 L 111.117 92.333 111.668 91.958 C 112.992 91.057,112.910 91.683,112.970 82.030 C 113.021 73.707,113.010 73.358,112.658 71.667 C 111.685 66.992,108.940 63.441,104.738 61.419 C 101.471 59.847,102.289 59.945,92.000 59.883 L 82.917 59.827 82.083 60.289 M82.233 94.307 C 79.809 96.074,79.792 96.144,79.876 104.250 C 79.953 111.677,79.865 110.991,81.341 115.583 C 82.586 119.458,85.215 122.874,88.046 124.296 C 88.643 124.596,89.228 124.957,89.346 125.098 C 89.688 125.510,90.338 125.786,92.186 126.300 C 93.140 126.566,94.159 126.907,94.452 127.058 C 94.924 127.303,95.879 127.333,103.050 127.333 L 111.117 127.333 111.785 126.849 C 112.153 126.582,112.656 126.004,112.902 125.562 L 113.351 124.760 113.300 110.838 L 113.250 96.917 112.806 96.083 C 112.563 95.625,112.088 94.931,111.752 94.542 L 111.141 93.833 97.012 93.833 L 82.883 93.833 82.233 94.307 M61.405 94.793 L 46.728 94.835 46.405 95.459 C 45.952 96.339,45.807 124.603,46.251 125.771 C 46.783 127.173,46.105 127.076,55.892 127.139 L 64.583 127.194 67.333 126.511 C 70.072 125.831,70.245 125.756,72.184 124.417 C 74.686 122.688,77.456 118.588,77.823 116.070 C 78.321 112.652,78.569 98.270,78.155 96.780 C 77.943 96.016,76.976 94.895,76.456 94.811 C 76.251 94.777,69.478 94.769,61.405 94.793 M48.724 95.150 C 49.015 95.067,54.981 95.000,62.127 95.000 L 75.007 95.000 75.676 95.423 C 76.044 95.655,76.472 95.824,76.627 95.798 C 76.782 95.771,76.917 95.825,76.927 95.917 C 76.937 96.008,77.029 96.287,77.132 96.535 C 77.261 96.845,77.323 99.267,77.330 104.264 C 77.335 108.267,77.381 111.609,77.432 111.691 C 77.854 112.375,77.399 116.342,76.750 117.635 C 76.521 118.092,76.333 118.533,76.333 118.617 C 76.333 118.700,76.121 119.103,75.861 119.513 C 75.601 119.923,75.336 120.465,75.273 120.718 C 75.207 120.982,74.990 121.242,74.765 121.328 C 74.549 121.410,74.121 121.865,73.814 122.338 C 73.496 122.829,73.004 123.330,72.670 123.502 C 72.347 123.669,71.785 124.081,71.421 124.418 C 70.559 125.215,69.919 125.528,68.667 125.766 C 67.946 125.904,67.066 126.068,66.270 126.215 C 66.167 126.234,66.028 126.325,65.961 126.417 C 65.883 126.522,65.838 126.513,65.836 126.391 C 65.834 126.280,65.691 126.235,65.500 126.285 C 65.317 126.333,65.167 126.420,65.167 126.478 C 65.167 126.562,48.697 126.564,48.542 126.481 C 48.502 126.459,47.841 126.398,47.185 126.354 C 46.340 126.298,46.329 126.100,46.329 110.950 C 46.328 101.979,46.389 96.736,46.496 96.417 C 46.588 96.142,46.711 95.785,46.768 95.625 C 46.827 95.461,47.042 95.333,47.260 95.333 C 47.473 95.333,47.697 95.252,47.759 95.152 C 47.833 95.033,47.927 95.027,48.036 95.136 C 48.139 95.239,48.394 95.245,48.724 95.150 " stroke="none" fill="#cd124a" fill-rule="evenodd"></path><path id="path2" d="M70.917 5.839 C 70.458 5.909,68.621 6.056,66.833 6.164 C 63.131 6.389,61.603 6.636,60.032 7.264 C 59.426 7.507,58.042 7.882,56.957 8.099 C 54.586 8.571,53.503 8.881,52.946 9.246 C 52.718 9.396,51.700 9.773,50.685 10.085 C 48.772 10.672,48.372 10.842,47.662 11.365 C 47.430 11.535,46.702 11.857,46.043 12.080 C 44.671 12.544,43.965 12.886,43.238 13.438 C 42.957 13.652,42.245 14.046,41.655 14.313 C 41.066 14.580,40.171 15.079,39.667 15.422 C 39.162 15.764,38.326 16.247,37.807 16.495 C 37.289 16.743,36.689 17.141,36.474 17.380 C 36.259 17.619,35.636 18.051,35.090 18.340 C 34.544 18.630,33.719 19.188,33.257 19.581 C 32.795 19.973,32.124 20.450,31.767 20.640 C 31.409 20.829,30.896 21.253,30.625 21.581 C 30.355 21.908,29.854 22.319,29.512 22.494 C 29.170 22.668,28.685 23.080,28.435 23.407 C 28.185 23.735,27.693 24.150,27.340 24.330 C 26.988 24.509,26.534 24.926,26.330 25.255 C 26.126 25.585,25.669 26.038,25.314 26.262 C 24.960 26.486,24.476 26.975,24.240 27.349 C 24.004 27.722,23.592 28.153,23.323 28.306 C 23.030 28.473,22.669 28.934,22.417 29.464 C 22.144 30.039,21.802 30.461,21.432 30.680 C 21.121 30.863,20.823 31.179,20.771 31.382 C 20.718 31.584,20.218 32.307,19.660 32.987 C 19.101 33.667,18.491 34.530,18.304 34.904 C 18.118 35.277,17.714 35.846,17.407 36.167 C 17.100 36.487,16.725 37.050,16.573 37.417 C 16.421 37.783,15.956 38.571,15.538 39.167 C 15.121 39.762,14.519 40.774,14.201 41.415 C 13.883 42.056,13.454 42.806,13.249 43.082 C 13.044 43.358,12.672 44.108,12.423 44.750 C 12.174 45.392,11.685 46.404,11.336 47.000 C 10.987 47.596,10.501 48.714,10.256 49.485 C 10.011 50.256,9.583 51.338,9.305 51.890 C 9.027 52.441,8.549 53.886,8.243 55.100 C 7.937 56.314,7.530 57.632,7.338 58.029 C 6.786 59.169,6.543 60.339,6.087 64.063 C 5.853 65.977,5.470 68.284,5.236 69.190 C 4.640 71.499,4.686 81.835,5.301 83.627 C 5.507 84.227,5.803 85.892,5.997 87.544 C 6.449 91.385,6.768 93.049,7.249 94.068 C 7.469 94.535,7.908 95.935,8.224 97.180 C 8.548 98.456,9.016 99.837,9.298 100.346 C 9.573 100.843,10.037 102.032,10.330 102.988 C 10.622 103.944,11.042 104.963,11.263 105.253 C 11.484 105.543,11.948 106.456,12.295 107.282 C 12.641 108.109,13.115 109.040,13.348 109.351 C 13.582 109.662,14.016 110.440,14.312 111.080 C 14.609 111.719,15.140 112.619,15.493 113.080 C 15.845 113.540,16.252 114.203,16.397 114.554 C 16.542 114.904,16.949 115.520,17.303 115.922 C 17.656 116.323,18.194 117.124,18.498 117.701 C 18.802 118.278,19.292 118.954,19.588 119.203 C 19.884 119.453,20.282 119.991,20.474 120.399 C 20.666 120.808,21.044 121.272,21.313 121.431 C 21.582 121.590,21.968 122.027,22.171 122.402 C 22.561 123.122,22.820 123.408,25.541 126.119 C 28.373 128.939,28.764 129.291,29.463 129.648 C 29.831 129.836,30.294 130.250,30.490 130.568 C 30.704 130.914,31.067 131.218,31.394 131.326 C 31.695 131.425,32.191 131.764,32.497 132.080 C 32.802 132.395,33.522 132.928,34.095 133.263 C 34.668 133.598,35.499 134.173,35.943 134.541 C 36.387 134.909,37.051 135.340,37.418 135.499 C 37.785 135.657,38.326 135.989,38.620 136.236 C 38.913 136.483,39.775 136.988,40.535 137.358 C 41.295 137.728,42.179 138.230,42.499 138.474 C 43.132 138.955,43.910 139.339,45.333 139.871 C 45.837 140.060,46.453 140.356,46.701 140.530 C 47.339 140.976,48.527 141.482,49.592 141.759 C 50.092 141.890,51.018 142.266,51.648 142.597 C 52.445 143.014,53.467 143.344,55.000 143.679 C 56.213 143.944,57.590 144.343,58.061 144.565 C 59.164 145.087,60.878 145.428,63.583 145.664 C 64.775 145.768,66.050 145.922,66.417 146.006 C 66.783 146.090,67.502 146.160,68.013 146.163 C 68.573 146.165,69.431 146.337,70.171 146.596 C 71.707 147.133,78.593 147.153,79.951 146.626 C 80.668 146.347,81.864 146.180,86.250 145.748 C 89.755 145.402,90.738 145.208,92.167 144.579 C 92.854 144.277,94.054 143.906,94.833 143.755 C 96.944 143.345,97.987 143.021,98.652 142.568 C 98.981 142.344,100.104 141.894,101.148 141.567 C 102.192 141.241,103.317 140.798,103.648 140.582 C 103.979 140.366,104.922 139.914,105.744 139.576 C 106.565 139.239,107.465 138.790,107.744 138.578 C 108.022 138.366,108.867 137.895,109.622 137.531 C 110.377 137.166,111.232 136.668,111.523 136.423 C 111.814 136.178,112.632 135.686,113.341 135.330 C 114.049 134.974,114.963 134.392,115.372 134.038 C 115.781 133.684,116.334 133.304,116.601 133.194 C 116.867 133.084,117.235 132.767,117.418 132.489 C 117.600 132.212,118.101 131.767,118.530 131.501 C 118.960 131.235,119.485 130.781,119.697 130.492 C 119.910 130.203,120.327 129.842,120.624 129.689 C 121.652 129.159,127.350 123.662,128.097 122.479 C 128.326 122.115,128.623 121.776,128.756 121.725 C 128.888 121.674,129.267 121.187,129.598 120.643 C 129.929 120.098,130.383 119.533,130.608 119.385 C 130.833 119.238,131.134 118.885,131.277 118.600 C 131.420 118.316,131.933 117.558,132.418 116.917 C 132.903 116.275,133.469 115.412,133.676 115.000 C 133.882 114.587,134.329 113.950,134.667 113.583 C 135.006 113.217,135.457 112.476,135.669 111.938 C 135.881 111.400,136.367 110.538,136.748 110.022 C 137.129 109.506,137.576 108.708,137.742 108.250 C 137.908 107.792,138.298 107.083,138.610 106.674 C 138.922 106.266,139.293 105.516,139.434 105.008 C 139.981 103.042,140.220 102.451,140.680 101.927 C 141.060 101.494,141.238 100.996,141.565 99.454 C 141.938 97.692,142.213 96.920,142.929 95.628 C 143.068 95.378,143.290 94.291,143.423 93.212 C 143.783 90.292,144.135 88.581,144.584 87.566 C 145.711 85.018,145.649 67.312,144.503 64.451 C 144.036 63.284,143.834 62.248,143.326 58.417 C 143.172 57.253,142.997 56.682,142.547 55.871 C 142.123 55.106,141.856 54.278,141.556 52.788 C 141.210 51.072,141.069 50.671,140.663 50.249 C 140.138 49.705,139.810 48.911,139.509 47.458 C 139.388 46.876,139.121 46.281,138.802 45.886 C 138.274 45.230,137.334 43.410,137.333 43.042 C 137.333 42.928,137.083 42.553,136.777 42.209 C 136.470 41.865,135.969 41.021,135.662 40.333 C 135.355 39.646,134.899 38.887,134.649 38.647 C 134.399 38.407,134.001 37.829,133.764 37.362 C 133.528 36.895,133.119 36.266,132.855 35.964 C 132.592 35.663,132.036 34.892,131.619 34.250 C 131.203 33.608,130.560 32.791,130.192 32.435 C 129.823 32.078,129.436 31.582,129.333 31.333 C 129.230 31.084,128.927 30.719,128.659 30.521 C 128.391 30.323,128.047 29.918,127.894 29.622 C 127.741 29.326,126.484 27.984,125.100 26.641 C 123.716 25.298,122.208 23.817,121.750 23.350 C 121.291 22.882,120.840 22.500,120.746 22.500 C 120.469 22.500,119.362 21.518,119.253 21.177 C 119.198 21.003,118.937 20.786,118.673 20.694 C 118.409 20.602,117.745 20.127,117.198 19.638 C 116.174 18.724,114.283 17.432,112.788 16.625 C 112.321 16.372,111.484 15.870,110.928 15.508 C 110.372 15.147,109.467 14.646,108.917 14.395 C 108.367 14.143,107.484 13.659,106.955 13.317 C 106.426 12.975,105.350 12.463,104.563 12.178 C 103.776 11.893,102.814 11.474,102.426 11.247 C 102.037 11.019,100.864 10.564,99.818 10.235 C 98.772 9.907,97.617 9.466,97.250 9.255 C 96.426 8.783,95.255 8.438,93.052 8.022 C 92.117 7.845,90.923 7.503,90.396 7.262 C 89.183 6.707,87.208 6.397,83.417 6.168 C 81.767 6.068,79.819 5.914,79.088 5.827 C 77.554 5.642,72.147 5.650,70.917 5.839 M76.135 25.856 C 76.565 25.960,77.123 26.237,77.375 26.470 L 77.833 26.896 77.820 41.073 C 77.806 56.854,77.822 56.610,76.737 57.167 C 75.964 57.563,47.254 57.631,46.819 57.237 C 46.207 56.683,46.167 55.679,46.167 41.005 L 46.167 26.692 46.598 26.179 L 47.030 25.667 61.191 25.667 C 71.189 25.667,75.582 25.722,76.135 25.856 M101.988 60.234 C 107.766 62.127,111.506 66.134,112.658 71.667 C 113.010 73.358,113.021 73.707,112.970 82.030 C 112.910 91.683,112.992 91.057,111.668 91.958 L 111.117 92.333 96.989 92.333 C 81.378 92.333,82.036 92.377,81.026 91.284 C 80.379 90.585,80.319 89.124,80.370 75.333 L 80.417 62.417 80.833 61.583 C 81.154 60.941,81.441 60.644,82.083 60.289 L 82.917 59.827 92.000 59.883 C 100.159 59.932,101.175 59.968,101.988 60.234 M76.404 60.466 C 77.912 60.988,77.850 60.267,77.796 76.705 L 77.750 90.826 77.313 91.263 C 76.436 92.140,76.067 92.161,61.899 92.164 C 46.716 92.167,46.973 92.181,46.457 91.351 L 46.083 90.750 46.033 77.089 C 45.980 62.868,46.023 61.765,46.675 60.693 L 46.995 60.167 61.289 60.174 C 74.320 60.181,75.656 60.206,76.404 60.466 M111.752 94.542 C 112.088 94.931,112.563 95.625,112.806 96.083 L 113.250 96.917 113.300 110.838 L 113.351 124.760 112.902 125.562 C 112.656 126.004,112.153 126.582,111.785 126.849 L 111.117 127.333 103.050 127.333 C 95.879 127.333,94.924 127.303,94.452 127.058 C 94.159 126.907,93.140 126.566,92.186 126.300 C 90.338 125.786,89.688 125.510,89.346 125.098 C 89.228 124.957,88.643 124.596,88.046 124.296 C 85.215 122.874,82.586 119.458,81.341 115.583 C 79.865 110.991,79.953 111.677,79.876 104.250 C 79.792 96.144,79.809 96.074,82.233 94.307 L 82.883 93.833 97.012 93.833 L 111.141 93.833 111.752 94.542 M75.995 94.697 C 77.002 94.929,77.875 95.771,78.155 96.780 C 78.569 98.270,78.321 112.652,77.823 116.070 C 77.456 118.588,74.686 122.688,72.184 124.417 C 70.245 125.756,70.072 125.831,67.333 126.511 L 64.583 127.194 55.900 127.139 C 46.257 127.077,46.874 127.156,46.311 125.917 C 46.025 125.288,46.008 124.425,46.011 110.917 C 46.015 95.888,46.009 96.025,46.734 94.918 L 47.008 94.500 61.074 94.500 C 71.311 94.500,75.374 94.554,75.995 94.697 " stroke="none" fill="#2d255d" fill-rule="evenodd"></path><path id="path3" d="M69.917 4.087 C 69.367 4.211,68.535 4.317,68.068 4.323 C 67.601 4.329,66.776 4.487,66.234 4.675 C 65.693 4.862,64.468 5.085,63.511 5.171 C 59.951 5.488,57.184 6.054,55.859 6.735 C 55.616 6.861,54.797 7.089,54.039 7.243 C 52.475 7.561,50.071 8.339,49.480 8.719 C 49.262 8.859,48.408 9.237,47.583 9.558 C 45.678 10.302,41.713 12.199,41.167 12.629 C 40.938 12.809,40.071 13.297,39.241 13.714 C 38.411 14.130,37.628 14.596,37.501 14.748 C 37.375 14.901,36.924 15.202,36.501 15.416 C 36.077 15.631,35.338 16.117,34.858 16.496 C 34.379 16.875,33.541 17.446,32.996 17.766 C 32.451 18.085,31.926 18.493,31.831 18.671 C 31.735 18.850,31.251 19.256,30.754 19.573 C 30.258 19.891,29.722 20.348,29.565 20.588 C 29.408 20.828,28.877 21.282,28.386 21.596 C 27.894 21.910,27.416 22.336,27.321 22.543 C 27.227 22.750,26.853 23.090,26.490 23.299 C 26.127 23.507,25.635 23.973,25.397 24.334 C 25.158 24.694,24.719 25.133,24.420 25.309 C 24.121 25.486,23.736 25.838,23.563 26.093 C 23.391 26.348,22.922 26.863,22.522 27.237 C 22.121 27.611,21.654 28.236,21.485 28.627 C 21.301 29.050,21.016 29.399,20.778 29.489 C 20.559 29.572,20.201 29.878,19.982 30.169 C 19.763 30.460,19.199 31.122,18.730 31.641 C 18.260 32.159,17.758 32.808,17.615 33.083 C 17.471 33.358,17.100 33.863,16.790 34.204 C 16.481 34.546,15.970 35.285,15.655 35.847 C 15.341 36.408,14.887 37.104,14.647 37.392 C 14.407 37.681,14.004 38.329,13.751 38.833 C 13.499 39.337,13.037 40.100,12.726 40.527 C 12.415 40.954,11.946 41.817,11.684 42.444 C 11.422 43.070,10.940 44.021,10.614 44.556 C 10.288 45.091,9.791 46.178,9.510 46.973 C 9.229 47.767,8.742 48.904,8.428 49.500 C 8.115 50.096,7.660 51.371,7.417 52.333 C 7.175 53.296,6.726 54.646,6.420 55.333 C 5.822 56.677,5.638 57.442,5.258 60.167 C 5.124 61.129,4.823 62.477,4.588 63.162 C 3.075 67.578,3.062 83.842,4.568 89.000 C 4.875 90.054,5.251 91.848,5.404 92.985 C 5.602 94.469,5.847 95.482,6.271 96.569 C 6.596 97.402,7.082 98.857,7.350 99.803 C 7.618 100.749,8.094 102.099,8.407 102.803 C 8.719 103.507,9.321 104.906,9.744 105.911 C 10.167 106.916,10.616 107.854,10.741 107.994 C 10.867 108.135,11.277 108.920,11.654 109.738 C 12.031 110.557,12.536 111.484,12.775 111.798 C 13.015 112.112,13.465 112.867,13.777 113.476 C 14.492 114.875,15.928 117.020,16.816 118.017 C 17.192 118.438,17.500 118.873,17.500 118.983 C 17.500 119.093,17.875 119.557,18.333 120.016 C 18.791 120.474,19.278 121.065,19.415 121.331 C 19.552 121.596,19.969 122.061,20.341 122.365 C 20.712 122.668,21.166 123.201,21.349 123.549 C 21.960 124.713,27.506 130.255,28.451 130.646 C 28.718 130.757,29.060 131.057,29.212 131.313 C 29.363 131.569,29.808 131.993,30.202 132.255 C 30.595 132.517,31.217 133.004,31.583 133.339 C 31.950 133.673,32.606 134.150,33.042 134.397 C 33.477 134.645,33.833 134.913,33.833 134.994 C 33.833 135.172,37.791 137.815,38.833 138.332 C 39.246 138.537,39.831 138.890,40.133 139.117 C 40.435 139.344,41.335 139.832,42.133 140.202 C 42.931 140.573,43.698 140.975,43.838 141.097 C 43.978 141.218,44.878 141.625,45.838 142.002 C 46.798 142.378,48.221 142.979,49.000 143.338 C 49.779 143.697,51.138 144.182,52.019 144.415 C 52.900 144.648,54.400 145.131,55.352 145.488 C 56.659 145.978,57.614 146.205,59.250 146.414 C 61.533 146.707,61.808 146.762,64.333 147.435 C 69.193 148.731,83.004 148.575,87.266 147.176 C 87.807 146.998,89.322 146.696,90.631 146.505 C 92.951 146.166,95.393 145.530,96.101 145.080 C 96.294 144.958,97.112 144.701,97.918 144.509 C 98.725 144.317,100.067 143.855,100.901 143.481 C 101.735 143.107,102.867 142.650,103.417 142.466 C 103.967 142.282,104.867 141.913,105.417 141.647 C 107.684 140.546,110.154 139.232,110.442 138.973 C 110.611 138.820,111.162 138.512,111.667 138.288 C 112.171 138.064,113.033 137.542,113.583 137.128 C 114.133 136.715,114.900 136.216,115.288 136.020 C 115.675 135.824,116.158 135.440,116.360 135.166 C 116.563 134.892,117.033 134.510,117.406 134.316 C 117.778 134.123,118.429 133.654,118.852 133.274 C 120.206 132.057,121.540 130.933,122.378 130.304 C 122.826 129.967,123.623 129.255,124.148 128.721 C 124.672 128.187,126.063 126.813,127.238 125.667 C 128.413 124.521,129.716 123.133,130.134 122.583 C 130.552 122.033,131.210 121.238,131.598 120.815 C 131.985 120.393,132.452 119.755,132.635 119.399 C 132.818 119.042,133.170 118.563,133.417 118.333 C 133.664 118.104,134.056 117.542,134.287 117.083 C 134.519 116.625,135.046 115.800,135.457 115.250 C 135.869 114.700,136.389 113.838,136.612 113.335 C 136.835 112.832,137.159 112.269,137.332 112.085 C 137.505 111.900,137.970 111.073,138.365 110.247 C 138.760 109.421,139.284 108.483,139.530 108.164 C 139.794 107.821,140.126 107.004,140.341 106.167 C 140.716 104.711,140.890 104.318,141.581 103.365 C 141.801 103.061,142.068 102.386,142.176 101.865 C 142.471 100.429,142.991 98.882,143.251 98.666 C 143.635 98.347,143.978 97.206,144.420 94.778 C 144.651 93.511,144.994 92.171,145.183 91.802 C 146.410 89.397,147.153 75.193,146.415 68.250 C 146.279 66.967,146.167 65.591,146.167 65.193 C 146.167 64.161,145.543 61.238,145.166 60.498 C 144.990 60.154,144.655 58.795,144.421 57.478 C 143.961 54.887,143.861 54.567,143.221 53.632 C 142.969 53.265,142.634 52.320,142.394 51.299 C 142.113 50.107,141.821 49.329,141.437 48.750 C 140.869 47.892,140.752 47.597,140.172 45.557 C 139.958 44.803,139.630 44.121,139.279 43.702 C 138.975 43.337,138.561 42.599,138.360 42.061 C 138.159 41.523,137.772 40.783,137.499 40.417 C 137.226 40.050,136.785 39.294,136.521 38.736 C 136.256 38.179,135.817 37.466,135.546 37.153 C 135.275 36.840,134.781 36.096,134.448 35.500 C 134.116 34.904,133.541 34.088,133.172 33.687 C 132.802 33.286,132.500 32.853,132.500 32.725 C 132.500 32.597,132.106 32.085,131.625 31.588 C 131.144 31.090,130.563 30.361,130.333 29.968 C 129.795 29.045,123.028 22.329,121.844 21.543 C 121.346 21.212,120.709 20.681,120.430 20.362 C 120.151 20.044,119.681 19.683,119.388 19.560 C 119.094 19.438,118.655 19.078,118.413 18.760 C 118.171 18.443,117.569 17.955,117.075 17.676 C 116.580 17.397,116.057 16.988,115.913 16.767 C 115.768 16.546,115.144 16.100,114.525 15.775 C 113.907 15.450,113.105 14.948,112.742 14.659 C 112.380 14.370,111.599 13.914,111.008 13.645 C 110.416 13.377,109.803 13.040,109.646 12.898 C 109.085 12.391,104.116 9.999,102.613 9.514 C 101.772 9.242,100.564 8.756,99.930 8.434 C 99.282 8.105,97.966 7.658,96.930 7.414 C 95.914 7.174,94.521 6.767,93.833 6.508 C 92.066 5.843,90.489 5.521,87.664 5.250 C 86.312 5.120,84.654 4.865,83.978 4.683 C 80.968 3.872,72.468 3.512,69.917 4.087 M79.088 5.827 C 79.819 5.914,81.767 6.068,83.417 6.168 C 87.208 6.397,89.183 6.707,90.396 7.262 C 90.923 7.503,92.117 7.845,93.052 8.022 C 95.255 8.438,96.426 8.783,97.250 9.255 C 97.617 9.466,98.772 9.907,99.818 10.235 C 100.864 10.564,102.037 11.019,102.426 11.247 C 102.814 11.474,103.776 11.893,104.563 12.178 C 105.350 12.463,106.426 12.975,106.955 13.317 C 107.484 13.659,108.367 14.143,108.917 14.395 C 109.467 14.646,110.372 15.147,110.928 15.508 C 111.484 15.870,112.321 16.372,112.788 16.625 C 114.283 17.432,116.174 18.724,117.198 19.638 C 117.745 20.127,118.409 20.602,118.673 20.694 C 118.937 20.786,119.198 21.003,119.253 21.177 C 119.362 21.518,120.469 22.500,120.746 22.500 C 120.840 22.500,121.291 22.882,121.750 23.350 C 122.208 23.817,123.716 25.298,125.100 26.641 C 126.484 27.984,127.741 29.326,127.894 29.622 C 128.047 29.918,128.391 30.323,128.659 30.521 C 128.927 30.719,129.230 31.084,129.333 31.333 C 129.436 31.582,129.823 32.078,130.192 32.435 C 130.560 32.791,131.203 33.608,131.619 34.250 C 132.036 34.892,132.592 35.663,132.855 35.964 C 133.119 36.266,133.528 36.895,133.764 37.362 C 134.001 37.829,134.399 38.407,134.649 38.647 C 134.899 38.887,135.355 39.646,135.662 40.333 C 135.969 41.021,136.470 41.865,136.777 42.209 C 137.083 42.553,137.333 42.928,137.333 43.042 C 137.334 43.410,138.274 45.230,138.802 45.886 C 139.121 46.281,139.388 46.876,139.509 47.458 C 139.810 48.911,140.138 49.705,140.663 50.249 C 141.069 50.671,141.210 51.072,141.556 52.788 C 141.856 54.278,142.123 55.106,142.547 55.871 C 142.997 56.682,143.172 57.253,143.326 58.417 C 143.834 62.248,144.036 63.284,144.503 64.451 C 145.649 67.312,145.711 85.018,144.584 87.566 C 144.135 88.581,143.783 90.292,143.423 93.212 C 143.290 94.291,143.068 95.378,142.929 95.628 C 142.213 96.920,141.938 97.692,141.565 99.454 C 141.238 100.996,141.060 101.494,140.680 101.927 C 140.220 102.451,139.981 103.042,139.434 105.008 C 139.293 105.516,138.922 106.266,138.610 106.674 C 138.298 107.083,137.908 107.792,137.742 108.250 C 137.576 108.708,137.129 109.506,136.748 110.022 C 136.367 110.538,135.881 111.400,135.669 111.938 C 135.457 112.476,135.006 113.217,134.667 113.583 C 134.329 113.950,133.882 114.587,133.676 115.000 C 133.469 115.412,132.903 116.275,132.418 116.917 C 131.933 117.558,131.420 118.316,131.277 118.600 C 131.134 118.885,130.833 119.238,130.608 119.385 C 130.383 119.533,129.929 120.098,129.598 120.643 C 129.267 121.187,128.888 121.674,128.756 121.725 C 128.623 121.776,128.326 122.115,128.097 122.479 C 127.350 123.662,121.652 129.159,120.624 129.689 C 120.327 129.842,119.910 130.203,119.697 130.492 C 119.485 130.781,118.960 131.235,118.530 131.501 C 118.101 131.767,117.600 132.212,117.418 132.489 C 117.235 132.767,116.867 133.084,116.601 133.194 C 116.334 133.304,115.781 133.684,115.372 134.038 C 114.963 134.392,114.049 134.974,113.341 135.330 C 112.632 135.686,111.814 136.178,111.523 136.423 C 111.232 136.668,110.377 137.166,109.622 137.531 C 108.867 137.895,108.022 138.366,107.744 138.578 C 107.465 138.790,106.565 139.239,105.744 139.576 C 104.922 139.914,103.979 140.366,103.648 140.582 C 103.317 140.798,102.192 141.241,101.148 141.567 C 100.104 141.894,98.981 142.344,98.652 142.568 C 97.987 143.021,96.944 143.345,94.833 143.755 C 94.054 143.906,92.854 144.277,92.167 144.579 C 90.738 145.208,89.755 145.402,86.250 145.748 C 81.864 146.180,80.668 146.347,79.951 146.626 C 78.593 147.153,71.707 147.133,70.171 146.596 C 69.431 146.337,68.573 146.165,68.013 146.163 C 67.502 146.160,66.783 146.090,66.417 146.006 C 66.050 145.922,64.775 145.768,63.583 145.664 C 60.878 145.428,59.164 145.087,58.061 144.565 C 57.590 144.343,56.213 143.944,55.000 143.679 C 53.467 143.344,52.445 143.014,51.648 142.597 C 51.018 142.266,50.092 141.890,49.592 141.759 C 48.527 141.482,47.339 140.976,46.701 140.530 C 46.453 140.356,45.837 140.060,45.333 139.871 C 43.910 139.339,43.132 138.955,42.499 138.474 C 42.179 138.230,41.295 137.728,40.535 137.358 C 39.775 136.988,38.913 136.483,38.620 136.236 C 38.326 135.989,37.785 135.657,37.418 135.499 C 37.051 135.340,36.387 134.909,35.943 134.541 C 35.499 134.173,34.668 133.598,34.095 133.263 C 33.522 132.928,32.802 132.395,32.497 132.080 C 32.191 131.764,31.695 131.425,31.394 131.326 C 31.067 131.218,30.704 130.914,30.490 130.568 C 30.294 130.250,29.831 129.836,29.463 129.648 C 28.764 129.291,28.373 128.939,25.541 126.119 C 22.820 123.408,22.561 123.122,22.171 122.402 C 21.968 122.027,21.582 121.590,21.313 121.431 C 21.044 121.272,20.666 120.808,20.474 120.399 C 20.282 119.991,19.884 119.453,19.588 119.203 C 19.292 118.954,18.802 118.278,18.498 117.701 C 18.194 117.124,17.656 116.323,17.303 115.922 C 16.949 115.520,16.542 114.904,16.397 114.554 C 16.252 114.203,15.845 113.540,15.493 113.080 C 15.140 112.619,14.609 111.719,14.312 111.080 C 14.016 110.440,13.582 109.662,13.348 109.351 C 13.115 109.040,12.641 108.109,12.295 107.282 C 11.948 106.456,11.484 105.543,11.263 105.253 C 11.042 104.963,10.622 103.944,10.330 102.988 C 10.037 102.032,9.573 100.843,9.298 100.346 C 9.016 99.837,8.548 98.456,8.224 97.180 C 7.908 95.935,7.469 94.535,7.249 94.068 C 6.768 93.049,6.449 91.385,5.997 87.544 C 5.803 85.892,5.507 84.227,5.301 83.627 C 4.686 81.835,4.640 71.499,5.236 69.190 C 5.470 68.284,5.853 65.977,6.087 64.063 C 6.543 60.339,6.786 59.169,7.338 58.029 C 7.530 57.632,7.937 56.314,8.243 55.100 C 8.549 53.886,9.027 52.441,9.305 51.890 C 9.583 51.338,10.011 50.256,10.256 49.485 C 10.501 48.714,10.987 47.596,11.336 47.000 C 11.685 46.404,12.174 45.392,12.423 44.750 C 12.672 44.108,13.044 43.358,13.249 43.082 C 13.454 42.806,13.883 42.056,14.201 41.415 C 14.519 40.774,15.121 39.762,15.538 39.167 C 15.956 38.571,16.421 37.783,16.573 37.417 C 16.725 37.050,17.100 36.487,17.407 36.167 C 17.714 35.846,18.118 35.277,18.304 34.904 C 18.491 34.530,19.101 33.667,19.660 32.987 C 20.218 32.307,20.718 31.584,20.771 31.382 C 20.823 31.179,21.121 30.863,21.432 30.680 C 21.802 30.461,22.144 30.039,22.417 29.464 C 22.669 28.934,23.030 28.473,23.323 28.306 C 23.592 28.153,24.004 27.722,24.240 27.349 C 24.476 26.975,24.960 26.486,25.314 26.262 C 25.669 26.038,26.126 25.585,26.330 25.255 C 26.534 24.926,26.988 24.509,27.340 24.330 C 27.693 24.150,28.185 23.735,28.435 23.407 C 28.685 23.080,29.170 22.668,29.512 22.494 C 29.854 22.319,30.355 21.908,30.625 21.581 C 30.896 21.253,31.409 20.829,31.767 20.640 C 32.124 20.450,32.795 19.973,33.257 19.581 C 33.719 19.188,34.544 18.630,35.090 18.340 C 35.636 18.051,36.259 17.619,36.474 17.380 C 36.689 17.141,37.289 16.743,37.807 16.495 C 38.326 16.247,39.162 15.764,39.667 15.422 C 40.171 15.079,41.066 14.580,41.655 14.313 C 42.245 14.046,42.957 13.652,43.238 13.438 C 43.965 12.886,44.671 12.544,46.043 12.080 C 46.702 11.857,47.430 11.535,47.662 11.365 C 48.372 10.842,48.772 10.672,50.685 10.085 C 51.700 9.773,52.718 9.396,52.946 9.246 C 53.503 8.881,54.586 8.571,56.957 8.099 C 58.042 7.882,59.426 7.507,60.032 7.264 C 61.603 6.636,63.131 6.389,66.833 6.164 C 68.621 6.056,70.458 5.909,70.917 5.839 C 72.147 5.650,77.554 5.642,79.088 5.827 M46.598 26.179 L 46.167 26.692 46.167 41.005 C 46.167 55.679,46.207 56.683,46.819 57.237 C 47.254 57.631,75.964 57.563,76.737 57.167 C 77.822 56.610,77.806 56.854,77.820 41.073 L 77.833 26.896 77.375 26.470 C 76.523 25.680,76.256 25.667,61.191 25.667 L 47.030 25.667 46.598 26.179 M46.917 94.667 C 46.848 94.777,51.731 94.829,61.448 94.822 C 69.768 94.815,75.940 94.748,75.750 94.667 C 75.265 94.458,47.046 94.458,46.917 94.667 M47.759 95.152 C 47.697 95.252,47.473 95.333,47.260 95.333 C 47.042 95.333,46.827 95.461,46.768 95.625 C 46.711 95.785,46.588 96.142,46.496 96.417 C 46.389 96.736,46.328 101.979,46.329 110.950 C 46.329 126.100,46.340 126.298,47.185 126.354 C 47.841 126.398,48.502 126.459,48.542 126.481 C 48.697 126.564,65.167 126.562,65.167 126.478 C 65.167 126.420,65.317 126.333,65.500 126.285 C 65.691 126.235,65.834 126.280,65.836 126.391 C 65.838 126.513,65.883 126.522,65.961 126.417 C 66.028 126.325,66.167 126.234,66.270 126.215 C 67.066 126.068,67.946 125.904,68.667 125.766 C 69.919 125.528,70.559 125.215,71.421 124.418 C 71.785 124.081,72.347 123.669,72.670 123.502 C 73.004 123.330,73.496 122.829,73.814 122.338 C 74.121 121.865,74.549 121.410,74.765 121.328 C 74.990 121.242,75.207 120.982,75.273 120.718 C 75.336 120.465,75.601 119.923,75.861 119.513 C 76.121 119.103,76.333 118.700,76.333 118.617 C 76.333 118.533,76.521 118.092,76.750 117.635 C 77.145 116.849,77.274 116.404,77.439 115.250 C 77.544 114.514,77.539 111.864,77.432 111.691 C 77.381 111.609,77.335 108.267,77.330 104.264 C 77.323 99.267,77.261 96.845,77.132 96.535 C 77.029 96.287,76.937 96.008,76.927 95.917 C 76.917 95.825,76.782 95.771,76.627 95.798 C 76.472 95.824,76.044 95.655,75.676 95.423 L 75.007 95.000 62.127 95.000 C 54.981 95.000,49.015 95.067,48.724 95.150 C 48.394 95.245,48.139 95.239,48.036 95.136 C 47.927 95.027,47.833 95.033,47.759 95.152 " stroke="none" fill="#9c9c9d" fill-rule="evenodd"></path><path id="path4" d="M46.675 60.693 C 46.023 61.765,45.980 62.868,46.033 77.089 L 46.083 90.750 46.457 91.351 C 46.973 92.181,46.716 92.167,61.899 92.164 C 76.067 92.161,76.436 92.140,77.313 91.263 L 77.750 90.826 77.796 76.705 C 77.840 63.322,77.827 62.535,77.534 61.667 C 77.004 60.095,77.950 60.182,61.289 60.174 L 46.995 60.167 46.675 60.693 " stroke="none" fill="#148ac2" fill-rule="evenodd"></path></g></svg>