<?xml version="1.0" standalone="no"?>
<!DOCTYPE svg PUBLIC "-//W3C//DTD SVG 20010904//EN"
 "http://www.w3.org/TR/2001/REC-SVG-20010904/DTD/svg10.dtd">
<svg version="1.0" xmlns="http://www.w3.org/2000/svg"
 width="240.000000pt" height="83.000000pt" viewBox="0 0 240.000000 83.000000"
 preserveAspectRatio="xMidYMid meet">

<g transform="translate(0.000000,83.000000) scale(0.100000,-0.100000)"
fill="#000000" stroke="none">
<path d="M329 717 c-104 -30 -190 -104 -237 -206 -38 -81 -37 -192 2 -277 34
-77 102 -144 181 -181 51 -24 73 -28 145 -28 72 0 93 4 140 27 83 41 135 90
171 163 114 232 -36 491 -296 510 -33 3 -80 -1 -106 -8z m101 -172 l0 -75 -81
0 c-79 0 -81 1 -75 23 3 12 6 46 6 75 l0 52 75 0 75 0 0 -75z m0 -319 c0 -79
-21 -100 -96 -101 l-59 0 -3 78 -3 77 81 0 80 0 0 -54z"/>
<path d="M870 436 c0 -37 4 -66 10 -66 6 0 10 11 10 25 0 22 4 25 35 25 31 0
35 -3 35 -25 0 -14 5 -25 10 -25 6 0 10 29 10 66 0 41 -4 63 -10 59 -5 -3 -10
-17 -10 -31 0 -21 -5 -24 -35 -24 -30 0 -35 3 -35 24 0 14 -4 28 -10 31 -6 4
-10 -18 -10 -59z"/>
<path d="M1036 479 c-51 -40 -23 -109 44 -109 66 0 92 59 45 105 -30 30 -54
31 -89 4z m84 -20 c27 -49 -20 -96 -69 -69 -24 12 -29 58 -9 78 20 20 66 15
78 -9z"/>
<path d="M1182 438 l-2 -68 43 2 42 1 -37 4 -37 4 -4 62 -3 62 -2 -67z"/>
<path d="M1250 495 c0 -3 11 -23 25 -43 14 -20 25 -47 25 -59 0 -13 5 -23 10
-23 6 0 10 10 10 23 0 12 9 37 20 55 29 48 24 63 -6 18 l-26 -38 -18 30 c-18
29 -40 50 -40 37z"/>
<path d="M1396 479 c-30 -23 -33 -54 -10 -87 13 -19 24 -22 57 -20 37 3 42 6
45 31 2 15 -1 27 -7 27 -6 0 -11 -11 -11 -25 0 -19 -5 -25 -21 -25 -36 0 -59
19 -59 49 0 39 22 55 68 48 34 -6 35 -5 18 8 -27 20 -49 19 -80 -6z"/>
<path d="M1528 494 c-12 -11 -10 -124 2 -124 6 0 10 11 10 25 0 22 4 25 39 25
36 0 40 -3 44 -27 2 -16 4 4 4 42 0 39 -2 55 -4 38 -4 -31 -7 -33 -43 -33 -36
0 -39 2 -42 31 -2 17 -6 27 -10 23z"/>
<path d="M1685 475 c-46 -45 -21 -105 44 -105 69 0 97 68 45 109 -35 27 -59
26 -89 -4z m84 -9 c16 -19 10 -66 -10 -79 -44 -28 -95 25 -69 72 13 25 61 29
79 7z"/>
<path d="M1836 487 c-27 -20 -16 -49 24 -62 48 -16 46 -40 -2 -39 -21 1 -38
-3 -38 -8 0 -5 19 -8 43 -6 35 2 43 7 45 26 3 18 -4 26 -32 37 -49 21 -48 45
2 45 27 0 33 3 22 10 -21 13 -43 12 -64 -3z"/>
<path d="M1930 490 c0 -5 9 -10 20 -10 18 0 20 -7 20 -55 0 -30 5 -55 10 -55
6 0 10 25 10 55 0 48 2 55 20 55 11 0 20 5 20 10 0 6 -22 10 -50 10 -27 0 -50
-4 -50 -10z"/>
<path d="M866 324 c-21 -20 -20 -38 1 -55 15 -13 15 -12 3 8 -12 18 -12 24 0
38 7 9 22 14 32 12 10 -3 16 -1 12 4 -8 14 -31 11 -48 -7z"/>
<path d="M1040 298 c0 -31 3 -39 10 -28 7 12 13 12 27 4 16 -10 18 -7 20 20 3
31 -10 46 -39 46 -14 0 -18 -9 -18 -42z m48 9 c2 -12 -3 -17 -17 -17 -15 0
-21 6 -21 21 0 25 33 22 38 -4z"/>
<path d="M1167 333 c-15 -14 -6 -34 21 -44 26 -10 26 -11 8 -25 -11 -8 -15
-14 -9 -14 6 0 16 7 24 16 10 13 10 17 -2 25 -8 5 -20 9 -26 9 -20 0 -15 28 5
33 14 4 14 5 1 6 -9 0 -19 -2 -22 -6z"/>
<path d="M1238 333 c6 -2 13 -21 13 -41 2 -34 2 -34 6 -7 2 17 12 36 21 43 13
10 11 12 -19 11 -19 0 -28 -3 -21 -6z"/>
<path d="M1356 308 c-9 -21 -16 -39 -16 -40 0 -2 16 -3 35 -3 40 0 40 -1 15
45 l-19 35 -15 -37z m34 -20 c0 -5 -7 -8 -15 -8 -15 0 -20 21 -8 33 7 7 23
-11 23 -25z"/>
<path d="M1432 295 c1 -40 2 -43 5 -15 l5 35 29 -35 28 -35 -1 50 c-1 40 -2
43 -5 15 l-5 -35 -29 35 -28 35 1 -50z"/>
<path d="M1567 322 c-21 -23 -21 -36 0 -53 15 -13 15 -12 5 7 -14 27 7 61 32
51 10 -4 15 -3 11 3 -10 15 -30 12 -48 -8z"/>
<path d="M1644 326 c-3 -8 -4 -27 -2 -43 2 -23 8 -28 33 -30 27 -2 28 -1 6 5
-33 10 -39 32 -9 33 20 0 20 1 5 8 -25 9 -23 25 5 33 21 6 21 6 -5 7 -15 1
-30 -5 -33 -13z"/>
<path d="M1722 295 c1 -45 1 -46 7 -15 l6 35 21 -28 c12 -15 25 -27 28 -27 3
0 5 19 4 43 -1 38 -2 39 -5 8 l-4 -34 -29 34 -29 34 1 -50z"/>
<path d="M1818 333 c6 -2 13 -21 13 -41 2 -34 2 -34 6 -7 2 17 12 36 21 43 13
10 11 12 -19 11 -19 0 -28 -3 -21 -6z"/>
<path d="M1890 298 c0 -31 3 -39 10 -28 7 12 13 12 27 4 16 -10 18 -7 20 20 3
31 -10 46 -39 46 -14 0 -18 -9 -18 -42z m48 9 c2 -12 -3 -17 -17 -17 -15 0
-21 6 -21 21 0 25 33 22 38 -4z"/>
<path d="M1974 326 c-3 -8 -4 -27 -2 -43 2 -23 8 -28 33 -30 27 -2 28 -1 6 5
-33 10 -39 32 -9 33 20 0 20 1 5 8 -25 9 -23 25 5 33 21 6 21 6 -5 7 -15 1
-30 -5 -33 -13z"/>
<path d="M942 295 c0 -22 2 -32 5 -22 3 10 14 17 28 17 14 0 25 -7 28 -17 3
-10 5 0 5 22 0 22 -2 32 -5 23 -3 -11 -14 -18 -28 -18 -14 0 -25 7 -28 18 -3
9 -5 -1 -5 -23z"/>
<path d="M1123 295 c0 -22 2 -30 4 -17 2 12 2 30 0 40 -3 9 -5 -1 -4 -23z"/>
<path d="M1313 295 c0 -22 2 -30 4 -17 2 12 2 30 0 40 -3 9 -5 -1 -4 -23z"/>
<path d="M1600 260 c-9 -6 -10 -10 -3 -10 6 0 15 5 18 10 8 12 4 12 -15 0z"/>
</g>
</svg>
