<svg id="svg" version="1.1" xmlns="http://www.w3.org/2000/svg" xmlns:xlink="http://www.w3.org/1999/xlink" width="400" height="116.21829362029209" viewBox="0, 0, 400,116.21829362029209"><g id="svgg"><path id="path0" d="M14.836 30.125 C 14.839 55.073,14.899 57.059,15.499 51.917 C 17.428 35.388,28.003 20.287,43.029 12.604 C 48.812 9.647,53.664 8.168,60.667 7.225 C 65.399 6.589,71.212 6.861,77.333 8.007 C 97.886 11.855,115.172 30.582,117.670 51.708 C 117.786 52.694,117.946 53.500,118.024 53.500 C 118.103 53.500,118.167 42.888,118.167 29.917 L 118.167 6.333 66.500 6.333 L 14.833 6.333 14.836 30.125 M64.746 25.042 C 64.655 25.248,64.465 25.398,64.323 25.375 C 64.177 25.352,63.891 25.619,63.658 25.996 C 63.434 26.360,63.166 26.660,63.063 26.662 C 62.960 26.665,62.589 26.929,62.238 27.250 C 61.888 27.571,61.534 27.833,61.451 27.833 C 61.368 27.833,61.064 27.941,60.775 28.072 C 60.486 28.203,60.107 28.335,59.931 28.364 C 59.756 28.393,59.445 28.717,59.241 29.083 C 58.980 29.549,58.617 29.875,58.033 30.167 C 57.574 30.396,57.077 30.785,56.929 31.032 C 56.781 31.278,56.493 31.532,56.288 31.595 C 56.084 31.659,55.643 31.945,55.309 32.230 C 54.660 32.785,53.303 33.668,52.783 33.875 C 52.610 33.944,52.429 34.151,52.382 34.334 C 52.334 34.517,52.170 34.667,52.018 34.667 C 51.665 34.667,50.969 35.148,51.075 35.319 C 51.256 35.612,49.461 36.833,48.850 36.833 C 48.749 36.833,48.667 36.933,48.667 37.054 C 48.667 37.368,48.030 37.897,47.250 38.230 C 46.883 38.387,46.471 38.588,46.333 38.676 C 46.196 38.764,45.923 38.918,45.727 39.020 C 45.531 39.121,45.290 39.380,45.191 39.596 C 45.093 39.812,44.749 40.160,44.426 40.369 C 43.681 40.853,43.656 40.926,43.544 42.875 L 43.452 44.500 54.392 44.500 L 65.333 44.500 65.333 36.109 C 65.333 25.831,65.233 23.942,64.746 25.042 M14.940 62.750 C 14.881 62.902,14.833 73.484,14.833 86.264 L 14.833 109.500 36.583 109.500 C 48.546 109.500,58.333 109.440,58.333 109.367 C 58.333 109.294,57.794 109.142,57.134 109.029 C 54.125 108.513,50.746 107.526,47.322 106.162 C 45.494 105.435,41.561 103.513,40.808 102.980 C 40.564 102.808,40.315 102.667,40.255 102.667 C 40.194 102.667,39.230 102.048,38.114 101.292 C 26.593 93.491,18.781 81.912,16.103 68.667 C 15.767 67.004,15.334 64.068,15.331 63.429 C 15.327 62.764,15.092 62.354,14.940 62.750 M117.685 65.042 C 116.072 78.831,108.037 92.209,96.460 100.380 C 91.964 103.554,85.812 106.565,81.380 107.762 C 78.914 108.428,77.320 108.812,76.208 109.007 C 75.544 109.124,75.000 109.283,75.000 109.360 C 75.000 109.437,84.712 109.500,96.583 109.500 L 118.167 109.500 118.167 86.417 C 118.167 73.721,118.103 63.333,118.026 63.333 C 117.948 63.333,117.795 64.102,117.685 65.042 " stroke="none" fill="#eee3d1" fill-rule="evenodd"></path><path id="path1" d="M0.000 58.083 L 0.000 116.167 192.583 116.167 L 385.167 116.167 385.167 58.083 L 385.167 0.000 192.583 0.000 L 0.000 0.000 0.000 58.083 M383.167 58.083 L 383.167 114.500 192.417 114.500 L 1.667 114.500 1.667 58.083 L 1.667 1.667 192.417 1.667 L 383.167 1.667 383.167 58.083 M61.957 7.169 C 60.310 7.317,56.569 7.898,55.500 8.172 C 55.179 8.254,54.467 8.430,53.917 8.563 C 52.015 9.024,48.444 10.167,48.225 10.386 C 48.163 10.449,48.016 10.500,47.900 10.500 C 47.784 10.500,47.140 10.742,46.469 11.038 C 32.440 17.226,22.061 28.615,17.646 42.667 C 16.681 45.736,16.472 46.558,16.015 49.083 C 15.591 51.423,15.334 53.636,15.334 54.948 C 15.333 55.941,15.107 56.486,14.949 55.877 C 14.906 55.716,14.864 56.858,14.855 58.417 C 14.846 60.018,14.900 61.153,14.979 61.028 C 15.183 60.707,15.332 61.169,15.339 62.139 C 15.344 62.986,15.735 66.225,16.001 67.625 C 16.525 70.389,16.665 70.977,17.321 73.167 C 21.806 88.135,33.325 100.642,47.833 106.295 C 51.074 107.557,54.529 108.534,57.458 109.017 C 58.123 109.126,58.667 109.280,58.667 109.358 C 58.667 109.436,62.229 109.500,66.583 109.500 C 71.203 109.500,74.500 109.437,74.500 109.349 C 74.500 109.266,74.894 109.147,75.375 109.085 C 79.225 108.590,85.252 106.615,89.715 104.388 C 90.521 103.986,91.136 103.585,91.081 103.497 C 91.027 103.409,91.095 103.380,91.233 103.433 C 91.636 103.588,91.958 103.304,91.572 103.134 C 91.304 103.017,91.317 103.006,91.651 103.071 C 92.468 103.230,96.601 100.438,100.420 97.148 C 106.008 92.335,111.409 84.901,114.029 78.417 C 116.102 73.287,117.378 68.207,117.767 63.542 C 117.830 62.785,117.945 62.167,118.024 62.167 C 118.102 62.167,118.167 60.479,118.167 58.417 C 118.167 56.354,118.102 54.667,118.024 54.667 C 117.945 54.667,117.831 54.048,117.769 53.292 C 117.100 45.121,112.978 34.190,108.358 28.333 C 108.177 28.104,107.409 27.129,106.652 26.167 C 103.454 22.102,97.363 16.716,93.500 14.537 C 93.179 14.356,92.354 13.886,91.667 13.492 C 90.568 12.862,89.017 12.103,86.293 10.860 C 85.859 10.662,85.403 10.500,85.280 10.500 C 85.156 10.500,85.004 10.449,84.941 10.386 C 84.673 10.118,80.355 8.771,78.417 8.351 C 73.852 7.361,72.037 7.150,67.500 7.082 C 65.346 7.050,62.852 7.089,61.957 7.169 M65.417 33.667 L 65.417 44.583 54.375 44.626 L 43.333 44.669 43.334 41.876 C 43.334 36.439,43.537 31.346,43.744 31.556 C 43.998 31.814,44.191 32.308,44.269 32.903 C 44.352 33.532,44.489 33.660,44.605 33.216 C 44.656 33.023,44.835 32.828,45.004 32.784 C 45.192 32.735,45.380 32.445,45.490 32.036 C 45.635 31.500,46.212 30.849,46.145 31.298 C 46.085 31.698,46.231 31.670,46.733 31.183 C 47.044 30.881,47.599 30.473,47.965 30.276 C 48.679 29.891,50.346 28.748,51.011 28.187 C 51.980 27.371,52.473 27.000,52.593 27.000 C 52.663 27.000,53.252 26.563,53.902 26.029 C 54.552 25.496,55.215 25.010,55.375 24.951 C 55.561 24.883,55.667 24.669,55.667 24.361 C 55.667 23.933,55.767 23.839,56.542 23.533 C 57.356 23.212,57.380 23.188,56.885 23.177 C 56.592 23.172,56.308 23.094,56.253 23.006 C 56.141 22.823,58.423 22.730,62.667 22.742 L 65.417 22.750 65.417 33.667 M80.833 47.177 C 84.805 47.981,87.854 50.708,89.384 54.823 C 89.887 56.177,90.046 68.599,89.565 68.950 C 89.150 69.254,68.170 69.270,67.867 68.967 C 67.544 68.644,67.581 47.231,67.904 47.050 C 68.266 46.847,79.762 46.960,80.833 47.177 M65.167 47.166 C 65.483 47.362,65.641 68.592,65.329 68.905 C 65.137 69.097,44.431 69.265,43.684 69.080 L 43.285 68.982 43.405 63.116 C 43.471 59.890,43.520 55.150,43.513 52.583 C 43.505 49.853,43.567 47.813,43.661 47.667 C 43.797 47.454,44.623 47.411,49.119 47.376 C 53.662 47.342,56.132 47.286,63.750 47.047 C 64.392 47.026,65.029 47.080,65.167 47.166 M65.300 71.533 C 65.448 71.682,65.499 73.288,65.497 77.742 C 65.495 84.507,65.389 85.328,64.252 87.470 C 63.814 88.295,63.721 88.601,63.877 88.707 C 64.026 88.808,64.011 88.834,63.822 88.799 C 63.675 88.771,63.133 89.212,62.585 89.804 C 62.048 90.383,61.276 91.086,60.869 91.366 C 60.298 91.759,60.181 91.911,60.357 92.036 C 60.528 92.158,60.509 92.174,60.282 92.101 C 60.116 92.047,59.703 92.145,59.363 92.318 C 57.336 93.352,56.778 93.417,49.833 93.417 L 43.417 93.417 43.373 82.583 C 43.350 76.625,43.366 71.656,43.410 71.542 C 43.523 71.245,65.003 71.236,65.300 71.533 M89.751 71.708 C 89.801 71.915,89.821 76.883,89.796 82.750 L 89.750 93.417 83.429 93.460 C 77.478 93.502,77.034 93.484,75.851 93.159 C 72.172 92.150,69.231 89.233,68.043 85.417 C 67.785 84.585,67.507 72.157,67.734 71.565 C 67.809 71.370,69.573 71.333,78.742 71.333 L 89.660 71.333 89.751 71.708 M90.391 89.370 C 90.448 91.901,90.422 93.528,90.325 93.588 C 90.227 93.649,90.167 92.066,90.167 89.399 C 90.167 87.041,90.196 85.142,90.232 85.181 C 90.268 85.219,90.339 87.104,90.391 89.370 M64.646 87.766 C 64.475 88.183,64.437 88.205,64.371 87.923 C 64.330 87.743,64.379 87.568,64.481 87.534 C 64.583 87.500,64.673 87.347,64.680 87.194 C 64.687 87.042,64.727 86.999,64.769 87.100 C 64.810 87.200,64.755 87.500,64.646 87.766 M62.582 90.502 C 62.319 90.776,62.028 91.000,61.934 91.000 C 61.840 91.000,62.023 90.750,62.340 90.444 C 63.046 89.763,63.244 89.810,62.582 90.502 M61.240 91.578 C 60.821 91.895,60.593 91.903,60.868 91.590 C 60.987 91.456,61.191 91.343,61.324 91.340 C 61.492 91.335,61.468 91.406,61.240 91.578 M88.042 93.957 C 87.377 93.989,86.290 93.989,85.625 93.957 C 84.960 93.925,85.504 93.900,86.833 93.900 C 88.162 93.900,88.706 93.925,88.042 93.957 " stroke="none" fill="#252358" fill-rule="evenodd"></path><path id="path2" d="M67.904 47.050 C 67.581 47.231,67.544 68.644,67.867 68.967 C 68.170 69.270,89.150 69.254,89.565 68.950 C 90.046 68.599,89.887 56.177,89.384 54.823 C 87.854 50.708,84.805 47.981,80.833 47.177 C 79.762 46.960,68.266 46.847,67.904 47.050 M43.410 71.542 C 43.366 71.656,43.350 76.625,43.373 82.583 L 43.417 93.417 49.833 93.417 C 56.104 93.417,56.278 93.408,57.498 93.025 C 61.361 91.812,64.209 88.852,65.166 85.056 C 65.567 83.463,65.682 71.915,65.300 71.533 C 65.003 71.236,43.523 71.245,43.410 71.542 M67.734 71.565 C 67.507 72.157,67.785 84.585,68.043 85.417 C 69.231 89.233,72.172 92.150,75.851 93.159 C 77.034 93.484,77.478 93.502,83.429 93.460 L 89.750 93.417 89.796 82.750 C 89.821 76.883,89.801 71.915,89.751 71.708 L 89.660 71.333 78.742 71.333 C 69.573 71.333,67.809 71.370,67.734 71.565 " stroke="none" fill="#dc083e" fill-rule="evenodd"></path><path id="path3" d="M173.917 29.167 C 173.860 29.258,173.406 29.333,172.907 29.333 C 172.408 29.333,172.000 29.408,172.000 29.500 C 172.000 29.592,171.737 29.667,171.417 29.667 C 171.096 29.667,170.833 29.742,170.833 29.833 C 170.833 29.925,170.608 30.000,170.333 30.000 C 170.058 30.000,169.833 30.072,169.833 30.159 C 169.833 30.247,169.571 30.367,169.250 30.428 C 168.929 30.488,168.667 30.604,168.667 30.685 C 168.667 30.767,168.517 30.833,168.333 30.833 C 168.150 30.833,168.000 30.908,168.000 31.000 C 168.000 31.092,167.923 31.167,167.829 31.167 C 167.735 31.167,167.327 31.485,166.922 31.875 C 165.943 32.818,165.713 33.000,165.507 33.000 C 165.411 33.000,165.333 33.120,165.333 33.266 C 165.333 33.413,165.108 33.743,164.833 34.000 C 164.558 34.257,164.333 34.533,164.333 34.613 C 164.333 34.694,164.183 34.868,164.000 35.000 C 163.817 35.132,163.667 35.369,163.667 35.527 C 163.667 35.685,163.597 35.856,163.513 35.909 C 163.428 35.961,163.310 36.228,163.250 36.502 C 163.189 36.776,163.071 37.000,162.987 37.000 C 162.902 37.000,162.833 37.150,162.833 37.333 C 162.833 37.517,162.758 37.667,162.667 37.667 C 162.575 37.667,162.500 37.929,162.500 38.250 C 162.500 38.571,162.425 38.833,162.333 38.833 C 162.242 38.833,162.167 39.133,162.167 39.500 C 162.167 39.867,162.092 40.167,162.000 40.167 C 161.907 40.167,161.833 40.628,161.833 41.217 C 161.833 41.794,161.753 42.347,161.655 42.445 C 161.375 42.725,161.695 47.742,162.015 48.075 C 162.098 48.162,162.167 48.401,162.167 48.607 C 162.167 48.812,162.242 49.027,162.333 49.083 C 162.425 49.140,162.500 49.407,162.500 49.677 C 162.500 49.946,162.575 50.167,162.667 50.167 C 162.758 50.167,162.833 50.317,162.833 50.500 C 162.833 50.683,162.908 50.833,163.000 50.833 C 163.092 50.833,163.167 50.945,163.167 51.082 C 163.167 51.430,163.718 52.667,163.873 52.667 C 163.943 52.667,164.000 52.773,164.000 52.904 C 164.000 53.034,164.300 53.435,164.667 53.795 C 165.033 54.154,165.333 54.522,165.333 54.612 C 165.333 54.792,166.038 55.500,166.218 55.500 C 166.324 55.500,166.940 55.988,167.427 56.458 C 167.546 56.573,167.723 56.667,167.821 56.667 C 167.920 56.667,168.000 56.742,168.000 56.833 C 168.000 56.925,168.150 57.000,168.333 57.000 C 168.517 57.000,168.667 57.075,168.667 57.167 C 168.667 57.258,168.782 57.333,168.924 57.333 C 169.065 57.333,169.341 57.483,169.536 57.665 C 169.734 57.849,170.249 58.044,170.696 58.103 C 171.138 58.162,171.500 58.275,171.500 58.355 C 171.500 58.435,171.833 58.500,172.240 58.500 C 172.647 58.500,173.027 58.575,173.083 58.667 C 173.144 58.765,174.141 58.833,175.510 58.833 C 176.948 58.833,177.833 58.770,177.833 58.667 C 177.833 58.575,178.171 58.500,178.583 58.500 C 178.996 58.500,179.333 58.425,179.333 58.333 C 179.333 58.242,179.528 58.167,179.766 58.167 C 180.158 58.167,180.928 57.896,181.706 57.486 C 181.865 57.402,182.092 57.333,182.211 57.333 C 182.329 57.333,182.535 57.183,182.667 57.000 C 182.799 56.817,183.003 56.667,183.120 56.667 C 183.237 56.667,183.333 56.603,183.333 56.525 C 183.333 56.448,183.621 56.254,183.973 56.096 C 184.324 55.937,184.718 55.652,184.848 55.463 C 184.977 55.273,185.327 54.869,185.625 54.565 C 185.923 54.260,186.167 53.950,186.167 53.876 C 186.167 53.801,186.317 53.632,186.500 53.500 C 186.683 53.368,186.833 53.135,186.833 52.984 C 186.833 52.832,186.946 52.614,187.083 52.500 C 187.221 52.386,187.333 52.189,187.333 52.063 C 187.333 51.937,187.408 51.833,187.500 51.833 C 187.592 51.833,187.667 51.608,187.667 51.333 C 187.667 51.058,187.742 50.833,187.833 50.833 C 187.925 50.833,188.000 50.683,188.000 50.500 C 188.000 50.317,188.075 50.167,188.167 50.167 C 188.258 50.167,188.333 49.979,188.333 49.750 C 188.333 49.521,188.408 49.333,188.500 49.333 C 188.592 49.333,188.667 49.086,188.667 48.783 C 188.667 48.481,188.760 48.140,188.875 48.025 C 189.030 47.870,189.083 46.831,189.083 44.000 C 189.083 41.169,189.030 40.130,188.875 39.975 C 188.760 39.860,188.667 39.557,188.667 39.300 C 188.667 39.043,188.592 38.833,188.500 38.833 C 188.408 38.833,188.333 38.646,188.333 38.417 C 188.333 38.188,188.258 38.000,188.167 38.000 C 188.075 38.000,188.000 37.775,188.000 37.500 C 188.000 37.225,187.925 37.000,187.833 37.000 C 187.742 37.000,187.667 36.887,187.667 36.750 C 187.667 36.612,187.592 36.500,187.500 36.500 C 187.408 36.500,187.333 36.385,187.333 36.243 C 187.333 35.805,186.692 34.703,186.082 34.093 C 185.762 33.773,185.500 33.412,185.500 33.291 C 185.500 33.171,185.256 32.929,184.958 32.755 C 184.660 32.580,184.218 32.226,183.975 31.969 C 183.732 31.711,183.451 31.500,183.351 31.500 C 183.251 31.500,183.076 31.350,182.961 31.167 C 182.847 30.983,182.626 30.833,182.470 30.833 C 182.314 30.833,182.144 30.764,182.091 30.679 C 182.039 30.595,181.772 30.476,181.498 30.416 C 181.224 30.356,181.000 30.238,181.000 30.153 C 181.000 30.069,180.775 30.000,180.500 30.000 C 180.225 30.000,180.000 29.925,180.000 29.833 C 180.000 29.742,179.737 29.667,179.417 29.667 C 179.096 29.667,178.833 29.592,178.833 29.500 C 178.833 29.406,178.364 29.333,177.760 29.333 C 177.169 29.333,176.640 29.258,176.583 29.167 C 176.527 29.075,175.927 29.000,175.250 29.000 C 174.573 29.000,173.973 29.075,173.917 29.167 M251.083 29.167 C 251.027 29.258,250.460 29.333,249.823 29.333 C 249.163 29.333,248.667 29.405,248.667 29.500 C 248.667 29.592,248.367 29.667,248.000 29.667 C 247.633 29.667,247.333 29.742,247.333 29.833 C 247.333 29.925,247.146 30.000,246.917 30.000 C 246.688 30.000,246.500 30.075,246.500 30.167 C 246.500 30.258,246.315 30.333,246.089 30.333 C 245.580 30.333,244.508 30.816,244.147 31.208 C 243.999 31.368,243.785 31.500,243.672 31.500 C 243.559 31.500,243.257 31.725,243.000 32.000 C 242.743 32.275,242.451 32.500,242.351 32.500 C 242.137 32.500,241.167 33.482,241.167 33.698 C 241.167 33.839,241.025 34.038,240.542 34.577 C 240.427 34.705,240.333 34.890,240.333 34.988 C 240.333 35.086,240.258 35.167,240.167 35.167 C 240.075 35.167,240.000 35.317,240.000 35.500 C 240.000 35.683,239.925 35.833,239.833 35.833 C 239.742 35.833,239.667 35.983,239.667 36.167 C 239.667 36.350,239.592 36.500,239.500 36.500 C 239.408 36.500,239.333 36.612,239.333 36.750 C 239.333 36.887,239.277 37.000,239.207 37.000 C 239.044 37.000,238.685 38.156,238.556 39.097 C 238.500 39.502,238.390 39.833,238.311 39.833 C 238.231 39.833,238.167 40.246,238.167 40.750 C 238.167 41.254,238.092 41.667,238.000 41.667 C 237.897 41.667,237.833 42.583,237.833 44.083 C 237.833 45.583,237.897 46.500,238.000 46.500 C 238.092 46.500,238.167 46.913,238.167 47.417 C 238.167 47.921,238.233 48.333,238.314 48.333 C 238.395 48.333,238.513 48.746,238.576 49.250 C 238.639 49.754,238.760 50.167,238.845 50.167 C 238.930 50.167,239.000 50.350,239.000 50.573 C 239.000 50.797,239.075 51.027,239.167 51.083 C 239.258 51.140,239.333 51.332,239.333 51.510 C 239.333 51.688,239.408 51.833,239.500 51.833 C 239.592 51.833,239.667 51.929,239.667 52.047 C 239.667 52.164,239.817 52.368,240.000 52.500 C 240.183 52.632,240.333 52.874,240.333 53.037 C 240.333 53.200,240.403 53.333,240.489 53.333 C 240.574 53.333,240.689 53.473,240.743 53.645 C 240.846 53.968,242.220 55.500,242.407 55.500 C 242.466 55.500,242.717 55.688,242.964 55.917 C 243.211 56.146,243.529 56.333,243.670 56.333 C 243.811 56.333,244.035 56.483,244.167 56.667 C 244.299 56.850,244.503 57.000,244.620 57.000 C 244.737 57.000,244.833 57.075,244.833 57.167 C 244.833 57.258,244.979 57.333,245.157 57.333 C 245.335 57.333,245.527 57.408,245.583 57.500 C 245.640 57.592,245.869 57.667,246.093 57.667 C 246.317 57.667,246.500 57.736,246.500 57.821 C 246.500 57.906,246.912 58.028,247.417 58.091 C 247.921 58.154,248.333 58.271,248.333 58.353 C 248.333 58.434,248.671 58.500,249.083 58.500 C 249.496 58.500,249.833 58.575,249.833 58.667 C 249.833 58.771,250.806 58.833,252.417 58.833 C 254.028 58.833,255.000 58.771,255.000 58.667 C 255.000 58.575,255.338 58.500,255.750 58.500 C 256.162 58.500,256.500 58.436,256.500 58.357 C 256.500 58.278,256.969 58.165,257.542 58.105 C 258.115 58.046,258.608 57.922,258.639 57.832 C 258.669 57.741,258.838 57.667,259.014 57.667 C 259.190 57.667,259.333 57.592,259.333 57.500 C 259.333 57.408,259.504 57.333,259.713 57.333 C 259.922 57.333,260.201 57.183,260.333 57.000 C 260.465 56.817,260.707 56.667,260.870 56.667 C 261.033 56.667,261.167 56.592,261.167 56.500 C 261.167 56.408,261.273 56.333,261.403 56.333 C 261.701 56.333,262.664 55.793,262.666 55.625 C 262.666 55.556,262.787 55.500,262.933 55.500 C 263.080 55.500,263.410 55.275,263.667 55.000 C 263.924 54.725,264.216 54.500,264.317 54.500 C 264.446 54.500,264.500 52.885,264.500 49.000 L 264.500 43.500 258.250 43.500 L 252.000 43.500 252.000 45.500 L 252.000 47.500 256.167 47.500 L 260.333 47.500 260.333 49.822 C 260.333 51.998,260.312 52.151,260.000 52.250 C 259.817 52.308,259.667 52.426,259.667 52.511 C 259.667 52.597,259.517 52.667,259.333 52.667 C 259.150 52.667,259.000 52.742,259.000 52.833 C 259.000 52.925,258.904 53.000,258.787 53.000 C 258.670 53.000,258.465 53.150,258.333 53.333 C 258.192 53.529,257.902 53.667,257.630 53.667 C 257.375 53.667,257.167 53.735,257.167 53.819 C 257.167 53.902,256.867 54.021,256.501 54.083 C 256.135 54.145,255.793 54.264,255.741 54.348 C 255.689 54.432,255.389 54.500,255.073 54.500 C 254.758 54.500,254.500 54.575,254.500 54.667 C 254.500 54.769,253.694 54.833,252.417 54.833 C 251.139 54.833,250.333 54.769,250.333 54.667 C 250.333 54.575,250.117 54.500,249.854 54.500 C 249.590 54.500,249.105 54.387,248.776 54.250 C 248.447 54.113,248.015 54.000,247.817 54.000 C 247.618 54.000,247.334 53.868,247.186 53.707 C 247.038 53.546,246.692 53.302,246.417 53.166 C 245.569 52.743,244.333 51.577,244.333 51.198 C 244.333 51.038,244.183 50.799,244.000 50.667 C 243.817 50.535,243.667 50.330,243.667 50.213 C 243.667 50.096,243.592 50.000,243.500 50.000 C 243.408 50.000,243.333 49.817,243.333 49.593 C 243.333 49.369,243.258 49.140,243.167 49.083 C 243.075 49.027,243.000 48.841,243.000 48.671 C 243.000 48.500,242.924 48.336,242.831 48.305 C 242.694 48.259,242.351 45.312,242.320 43.917 C 242.301 43.030,242.701 39.910,242.841 39.861 C 242.928 39.831,243.000 39.587,243.000 39.319 C 243.000 39.052,243.075 38.833,243.167 38.833 C 243.258 38.833,243.335 38.702,243.337 38.542 C 243.339 38.381,243.487 38.063,243.667 37.833 C 243.846 37.604,243.994 37.323,243.996 37.208 C 243.998 37.094,244.075 37.000,244.167 37.000 C 244.258 37.000,244.333 36.881,244.333 36.736 C 244.333 36.352,246.247 34.528,246.789 34.395 C 247.042 34.333,247.287 34.237,247.333 34.183 C 247.520 33.961,248.183 33.667,248.498 33.667 C 248.682 33.667,248.833 33.592,248.833 33.500 C 248.833 33.408,249.058 33.333,249.333 33.333 C 249.608 33.333,249.833 33.258,249.833 33.167 C 249.833 33.063,250.722 33.000,252.167 33.000 C 253.611 33.000,254.500 33.063,254.500 33.167 C 254.500 33.258,254.688 33.333,254.917 33.333 C 255.146 33.333,255.333 33.408,255.333 33.500 C 255.333 33.592,255.558 33.667,255.833 33.667 C 256.108 33.667,256.333 33.742,256.333 33.833 C 256.333 33.925,256.446 34.000,256.583 34.000 C 256.721 34.000,256.833 34.074,256.833 34.163 C 256.833 34.253,257.036 34.378,257.284 34.440 C 257.878 34.589,258.422 35.150,258.784 35.988 C 258.946 36.361,259.136 36.667,259.206 36.667 C 259.276 36.667,259.333 36.817,259.333 37.000 C 259.333 37.183,259.408 37.333,259.500 37.333 C 259.592 37.333,259.667 37.483,259.667 37.667 C 259.667 37.850,259.742 38.000,259.833 38.000 C 259.925 38.000,260.000 38.188,260.000 38.417 C 260.000 38.811,260.050 38.833,260.917 38.833 C 261.421 38.833,261.833 38.765,261.833 38.681 C 261.833 38.598,262.302 38.466,262.875 38.390 L 263.917 38.250 263.970 37.603 C 263.999 37.247,263.943 36.876,263.845 36.778 C 263.747 36.680,263.667 36.427,263.667 36.217 C 263.667 36.006,263.592 35.833,263.500 35.833 C 263.408 35.833,263.333 35.683,263.333 35.500 C 263.333 35.317,263.258 35.167,263.167 35.167 C 263.075 35.167,263.000 35.017,263.000 34.833 C 263.000 34.650,262.925 34.500,262.833 34.500 C 262.742 34.500,262.667 34.387,262.667 34.250 C 262.667 34.112,262.592 34.000,262.500 34.000 C 262.408 34.000,262.333 33.853,262.333 33.673 C 262.333 33.492,262.143 33.174,261.910 32.964 C 261.677 32.755,261.165 32.265,260.772 31.875 C 260.379 31.485,260.001 31.167,259.933 31.167 C 259.865 31.167,259.695 31.052,259.554 30.911 C 259.414 30.771,258.969 30.568,258.566 30.460 C 258.163 30.352,257.833 30.205,257.833 30.132 C 257.833 30.059,257.608 30.000,257.333 30.000 C 257.058 30.000,256.833 29.925,256.833 29.833 C 256.833 29.742,256.571 29.667,256.250 29.667 C 255.929 29.667,255.667 29.592,255.667 29.500 C 255.667 29.408,255.226 29.333,254.677 29.333 C 254.132 29.333,253.640 29.258,253.583 29.167 C 253.527 29.075,252.964 29.000,252.333 29.000 C 251.702 29.000,251.140 29.075,251.083 29.167 M308.917 29.167 C 308.860 29.258,308.406 29.333,307.907 29.333 C 307.408 29.333,307.000 29.408,307.000 29.500 C 307.000 29.592,306.737 29.667,306.417 29.667 C 306.096 29.667,305.833 29.742,305.833 29.833 C 305.833 29.925,305.608 30.000,305.333 30.000 C 305.058 30.000,304.833 30.066,304.833 30.146 C 304.833 30.226,304.627 30.333,304.375 30.384 C 304.123 30.435,303.751 30.632,303.549 30.822 C 303.346 31.012,303.082 31.167,302.960 31.167 C 302.839 31.167,302.632 31.317,302.500 31.500 C 302.368 31.683,302.199 31.833,302.124 31.833 C 302.049 31.833,301.802 32.002,301.575 32.208 C 300.317 33.349,300.000 33.708,300.000 33.994 C 300.000 34.168,299.850 34.358,299.667 34.417 C 299.483 34.475,299.333 34.616,299.333 34.730 C 299.333 34.844,299.183 35.098,299.000 35.295 C 298.817 35.492,298.667 35.768,298.667 35.910 C 298.667 36.051,298.603 36.167,298.525 36.167 C 298.379 36.167,297.833 37.694,297.833 38.102 C 297.833 38.229,297.758 38.333,297.667 38.333 C 297.575 38.333,297.500 38.596,297.500 38.917 C 297.500 39.237,297.425 39.500,297.333 39.500 C 297.242 39.500,297.167 39.912,297.167 40.417 C 297.167 40.921,297.092 41.333,297.000 41.333 C 296.896 41.333,296.833 42.361,296.833 44.083 C 296.833 45.806,296.896 46.833,297.000 46.833 C 297.092 46.833,297.167 47.171,297.167 47.583 C 297.167 47.996,297.242 48.333,297.333 48.333 C 297.425 48.333,297.500 48.633,297.500 49.000 C 297.500 49.367,297.574 49.667,297.665 49.667 C 297.755 49.667,297.878 49.968,297.937 50.337 C 297.996 50.706,298.109 51.048,298.189 51.097 C 298.268 51.146,298.333 51.332,298.333 51.510 C 298.333 51.688,298.408 51.833,298.500 51.833 C 298.592 51.833,298.667 51.946,298.667 52.083 C 298.667 52.221,298.729 52.333,298.805 52.333 C 298.881 52.333,299.050 52.540,299.179 52.792 C 299.308 53.044,299.546 53.371,299.707 53.520 C 299.868 53.668,300.000 53.869,300.000 53.967 C 300.000 54.225,301.492 55.713,302.125 56.086 C 302.423 56.262,302.667 56.464,302.667 56.536 C 302.667 56.608,302.765 56.667,302.885 56.667 C 303.005 56.667,303.249 56.798,303.427 56.958 C 303.972 57.450,305.118 57.972,305.912 58.091 C 306.327 58.154,306.667 58.271,306.667 58.352 C 306.667 58.434,307.004 58.500,307.417 58.500 C 307.829 58.500,308.167 58.575,308.167 58.667 C 308.167 58.770,309.056 58.833,310.500 58.833 C 311.944 58.833,312.833 58.770,312.833 58.667 C 312.833 58.575,313.171 58.500,313.583 58.500 C 313.996 58.500,314.333 58.434,314.333 58.353 C 314.333 58.271,314.746 58.154,315.250 58.091 C 315.754 58.028,316.167 57.906,316.167 57.821 C 316.167 57.736,316.317 57.667,316.500 57.667 C 316.683 57.667,316.833 57.592,316.833 57.500 C 316.833 57.408,316.983 57.333,317.167 57.333 C 317.350 57.333,317.500 57.258,317.500 57.167 C 317.500 57.075,317.596 57.000,317.713 57.000 C 317.830 57.000,318.035 56.850,318.167 56.667 C 318.299 56.483,318.522 56.333,318.663 56.333 C 318.951 56.333,319.833 55.574,319.833 55.327 C 319.833 55.239,319.977 55.167,320.153 55.167 C 320.348 55.167,320.559 54.971,320.694 54.665 C 320.816 54.389,321.037 54.124,321.185 54.078 C 321.332 54.031,321.587 53.694,321.752 53.330 C 321.916 52.965,322.114 52.667,322.192 52.667 C 322.270 52.667,322.333 52.554,322.333 52.417 C 322.333 52.279,322.408 52.167,322.500 52.167 C 322.592 52.167,322.667 52.017,322.667 51.833 C 322.667 51.650,322.742 51.500,322.833 51.500 C 322.925 51.500,323.000 51.386,323.000 51.248 C 323.000 51.109,323.075 50.846,323.167 50.664 C 323.258 50.482,323.401 50.196,323.484 50.028 C 323.566 49.861,323.688 49.223,323.753 48.612 C 323.819 48.000,323.938 47.500,324.019 47.500 C 324.100 47.500,324.167 45.962,324.167 44.083 C 324.167 42.204,324.103 40.667,324.024 40.667 C 323.946 40.667,323.835 40.166,323.778 39.553 C 323.720 38.941,323.597 38.364,323.503 38.270 C 323.410 38.177,323.333 37.928,323.333 37.717 C 323.333 37.506,323.258 37.333,323.167 37.333 C 323.075 37.333,323.000 37.183,323.000 37.000 C 323.000 36.817,322.925 36.667,322.833 36.667 C 322.742 36.667,322.667 36.554,322.667 36.417 C 322.667 36.279,322.592 36.167,322.500 36.167 C 322.408 36.167,322.333 36.017,322.333 35.833 C 322.333 35.650,322.258 35.500,322.167 35.500 C 322.075 35.500,322.000 35.359,322.000 35.187 C 322.000 35.015,321.887 34.781,321.750 34.667 C 321.612 34.553,321.500 34.392,321.500 34.309 C 321.500 34.102,319.199 31.833,318.989 31.833 C 318.895 31.833,318.630 31.645,318.401 31.416 C 317.856 30.871,316.791 30.333,316.257 30.333 C 316.024 30.333,315.833 30.277,315.832 30.208 C 315.830 30.007,314.973 29.667,314.467 29.667 C 314.210 29.667,314.000 29.592,314.000 29.500 C 314.000 29.406,313.531 29.333,312.927 29.333 C 312.336 29.333,311.807 29.258,311.750 29.167 C 311.693 29.075,311.056 29.000,310.333 29.000 C 309.611 29.000,308.973 29.075,308.917 29.167 M337.424 29.154 C 337.364 29.253,336.868 29.333,336.323 29.333 C 335.774 29.333,335.333 29.408,335.333 29.500 C 335.333 29.592,335.033 29.667,334.667 29.667 C 334.300 29.667,334.000 29.742,334.000 29.833 C 334.000 29.925,333.813 30.000,333.583 30.000 C 333.354 30.000,333.167 30.066,333.167 30.146 C 333.167 30.226,332.944 30.336,332.672 30.391 C 332.400 30.445,332.025 30.642,331.839 30.828 C 331.652 31.014,331.423 31.167,331.328 31.167 C 331.115 31.167,330.000 32.265,330.000 32.474 C 330.000 32.558,329.887 32.719,329.750 32.833 C 329.612 32.947,329.500 33.182,329.500 33.354 C 329.500 33.526,329.425 33.667,329.333 33.667 C 329.242 33.667,329.167 33.817,329.167 34.000 C 329.167 34.183,329.092 34.333,329.000 34.333 C 328.908 34.333,328.833 34.521,328.833 34.750 C 328.833 34.979,328.758 35.167,328.667 35.167 C 328.565 35.167,328.500 35.944,328.500 37.167 C 328.500 38.389,328.565 39.167,328.667 39.167 C 328.758 39.167,328.833 39.392,328.833 39.667 C 328.833 39.942,328.908 40.167,329.000 40.167 C 329.092 40.167,329.167 40.279,329.167 40.417 C 329.167 40.554,329.242 40.667,329.333 40.667 C 329.425 40.667,329.500 40.799,329.500 40.960 C 329.500 41.396,330.941 42.833,331.378 42.833 C 331.493 42.833,331.680 42.983,331.795 43.167 C 331.909 43.350,332.115 43.500,332.251 43.500 C 332.388 43.500,332.500 43.575,332.500 43.667 C 332.500 43.758,332.646 43.833,332.823 43.833 C 333.001 43.833,333.192 43.906,333.247 43.995 C 333.302 44.084,333.719 44.206,334.174 44.267 C 334.628 44.327,335.000 44.442,335.000 44.521 C 335.000 44.601,335.188 44.667,335.417 44.667 C 335.646 44.667,335.833 44.742,335.833 44.833 C 335.833 44.925,336.133 45.000,336.500 45.000 C 336.867 45.000,337.167 45.075,337.167 45.167 C 337.167 45.258,337.429 45.333,337.750 45.333 C 338.071 45.333,338.333 45.408,338.333 45.500 C 338.333 45.592,338.633 45.667,339.000 45.667 C 339.367 45.667,339.667 45.742,339.667 45.833 C 339.667 45.925,339.910 46.003,340.208 46.007 C 340.506 46.011,341.050 46.123,341.417 46.255 C 341.783 46.387,342.290 46.496,342.542 46.497 C 342.794 46.499,343.000 46.575,343.000 46.667 C 343.000 46.758,343.150 46.833,343.333 46.833 C 343.517 46.833,343.667 46.908,343.667 47.000 C 343.667 47.092,343.763 47.167,343.880 47.167 C 343.997 47.167,344.201 47.317,344.333 47.500 C 344.465 47.683,344.675 47.833,344.799 47.833 C 345.145 47.833,345.494 48.261,345.606 48.824 C 345.662 49.104,345.774 49.333,345.854 49.333 C 345.934 49.333,346.000 49.896,346.000 50.583 C 346.000 51.306,345.930 51.833,345.833 51.833 C 345.742 51.833,345.667 51.940,345.667 52.070 C 345.667 52.337,344.445 53.667,344.200 53.667 C 344.113 53.667,343.947 53.779,343.833 53.917 C 343.719 54.054,343.452 54.167,343.239 54.167 C 343.027 54.167,342.807 54.242,342.750 54.333 C 342.693 54.425,342.389 54.500,342.073 54.500 C 341.758 54.500,341.500 54.575,341.500 54.667 C 341.500 54.769,340.694 54.833,339.417 54.833 C 338.139 54.833,337.333 54.769,337.333 54.667 C 337.333 54.575,337.075 54.500,336.760 54.500 C 336.444 54.500,336.144 54.432,336.092 54.348 C 336.041 54.264,335.712 54.147,335.362 54.088 C 335.013 54.029,334.621 53.835,334.493 53.657 C 334.365 53.479,334.126 53.333,333.963 53.333 C 333.800 53.333,333.667 53.262,333.667 53.174 C 333.667 52.968,332.866 52.167,332.659 52.167 C 332.572 52.167,332.500 52.017,332.500 51.833 C 332.500 51.650,332.425 51.500,332.333 51.500 C 332.242 51.500,332.167 51.350,332.167 51.167 C 332.167 50.983,332.097 50.833,332.012 50.833 C 331.927 50.833,331.805 50.402,331.741 49.875 C 331.570 48.465,331.464 48.333,330.504 48.333 C 330.054 48.333,329.640 48.408,329.583 48.500 C 329.527 48.592,328.997 48.667,328.407 48.667 L 327.333 48.667 327.333 49.583 C 327.333 50.087,327.398 50.500,327.476 50.500 C 327.555 50.500,327.668 50.969,327.728 51.542 C 327.788 52.115,327.911 52.608,328.002 52.639 C 328.092 52.669,328.167 52.838,328.167 53.014 C 328.167 53.190,328.242 53.333,328.333 53.333 C 328.425 53.333,328.500 53.483,328.500 53.667 C 328.500 53.850,328.575 54.000,328.667 54.000 C 328.758 54.000,328.833 54.078,328.833 54.174 C 328.833 54.270,329.002 54.522,329.208 54.733 C 329.415 54.945,329.743 55.297,329.937 55.517 C 330.490 56.142,331.494 57.000,331.672 57.000 C 331.761 57.000,331.833 57.075,331.833 57.167 C 331.833 57.258,331.983 57.333,332.167 57.333 C 332.350 57.333,332.500 57.408,332.500 57.500 C 332.500 57.592,332.650 57.667,332.833 57.667 C 333.017 57.667,333.167 57.736,333.167 57.821 C 333.167 57.906,333.579 58.028,334.083 58.091 C 334.587 58.154,335.000 58.271,335.000 58.353 C 335.000 58.434,335.412 58.500,335.917 58.500 C 336.421 58.500,336.833 58.575,336.833 58.667 C 336.833 58.771,337.806 58.833,339.417 58.833 C 341.028 58.833,342.000 58.771,342.000 58.667 C 342.000 58.575,342.337 58.500,342.750 58.500 C 343.162 58.500,343.500 58.425,343.500 58.333 C 343.500 58.242,343.687 58.167,343.916 58.167 C 344.390 58.167,345.667 57.652,345.667 57.461 C 345.667 57.391,345.817 57.333,346.000 57.333 C 346.183 57.333,346.333 57.258,346.333 57.167 C 346.333 57.075,346.435 57.000,346.559 57.000 C 346.863 57.000,349.167 54.709,349.167 54.406 C 349.167 54.275,349.238 54.167,349.326 54.167 C 349.413 54.167,349.534 53.904,349.594 53.583 C 349.655 53.262,349.770 53.000,349.852 53.000 C 349.933 53.000,350.000 52.737,350.000 52.417 C 350.000 52.096,350.075 51.833,350.167 51.833 C 350.267 51.833,350.333 51.170,350.333 50.177 C 350.333 49.252,350.260 48.474,350.167 48.417 C 350.075 48.360,350.000 48.130,350.000 47.905 C 350.000 47.491,349.958 47.378,349.409 46.338 C 349.034 45.627,347.245 43.833,346.910 43.833 C 346.776 43.833,346.667 43.758,346.667 43.667 C 346.667 43.575,346.551 43.500,346.410 43.500 C 346.268 43.500,345.992 43.350,345.795 43.167 C 345.598 42.983,345.301 42.833,345.135 42.833 C 344.969 42.833,344.833 42.767,344.833 42.686 C 344.833 42.605,344.421 42.487,343.917 42.424 C 343.412 42.361,343.000 42.240,343.000 42.155 C 343.000 42.070,342.700 42.000,342.333 42.000 C 341.967 42.000,341.667 41.925,341.667 41.833 C 341.667 41.742,341.404 41.667,341.083 41.667 C 340.762 41.667,340.500 41.592,340.500 41.500 C 340.500 41.408,340.242 41.333,339.927 41.333 C 339.611 41.333,339.307 41.258,339.250 41.167 C 339.193 41.075,338.889 41.000,338.573 41.000 C 338.258 41.000,338.000 40.933,338.000 40.851 C 338.000 40.769,337.719 40.661,337.375 40.612 C 336.287 40.455,335.000 40.106,335.000 39.967 C 335.000 39.894,334.850 39.833,334.667 39.833 C 334.483 39.833,334.333 39.758,334.333 39.667 C 334.333 39.575,334.188 39.500,334.011 39.500 C 333.834 39.500,333.642 39.350,333.583 39.167 C 333.525 38.983,333.408 38.833,333.322 38.833 C 333.237 38.833,333.167 38.721,333.167 38.583 C 333.167 38.446,333.092 38.333,333.000 38.333 C 332.908 38.333,332.833 38.183,332.833 38.000 C 332.833 37.817,332.758 37.667,332.667 37.667 C 332.575 37.667,332.500 37.367,332.500 37.000 C 332.500 36.633,332.575 36.333,332.667 36.333 C 332.758 36.333,332.833 36.180,332.833 35.992 C 332.833 35.694,333.071 35.355,333.773 34.653 C 334.503 33.923,334.860 33.667,335.149 33.667 C 335.331 33.667,335.527 33.592,335.583 33.500 C 335.640 33.408,335.977 33.333,336.333 33.333 C 336.689 33.333,337.027 33.258,337.083 33.167 C 337.141 33.074,337.918 33.000,338.843 33.000 C 339.837 33.000,340.500 33.067,340.500 33.167 C 340.500 33.258,340.758 33.333,341.073 33.333 C 341.389 33.333,341.693 33.408,341.750 33.500 C 341.807 33.592,342.020 33.667,342.223 33.667 C 342.427 33.667,342.701 33.817,342.833 34.000 C 342.965 34.183,343.190 34.333,343.333 34.333 C 343.630 34.333,344.167 34.901,344.167 35.215 C 344.167 35.331,344.317 35.535,344.500 35.667 C 344.683 35.799,344.833 36.078,344.833 36.287 C 344.833 36.496,344.908 36.667,345.000 36.667 C 345.092 36.667,345.167 36.967,345.167 37.333 C 345.167 37.700,345.242 38.000,345.333 38.000 C 345.425 38.000,345.500 38.096,345.500 38.213 C 345.500 38.414,348.690 38.442,349.292 38.245 C 349.545 38.162,349.585 36.167,349.333 36.167 C 349.242 36.167,349.167 35.957,349.167 35.700 C 349.167 35.193,348.827 34.337,348.625 34.335 C 348.556 34.334,348.500 34.183,348.500 34.000 C 348.500 33.817,348.425 33.667,348.333 33.667 C 348.242 33.667,348.167 33.556,348.167 33.420 C 348.167 32.754,345.239 30.333,344.433 30.333 C 344.287 30.333,344.167 30.258,344.167 30.167 C 344.167 30.075,343.979 30.000,343.750 30.000 C 343.521 30.000,343.333 29.925,343.333 29.833 C 343.333 29.742,343.086 29.667,342.783 29.667 C 342.481 29.667,342.162 29.598,342.075 29.515 C 341.771 29.223,337.582 28.898,337.424 29.154 M134.278 29.778 C 134.217 29.839,134.167 36.251,134.167 44.028 L 134.167 58.167 136.500 58.167 L 138.833 58.167 138.833 51.583 L 138.833 45.000 145.750 45.000 L 152.667 45.000 152.667 51.583 L 152.667 58.167 154.833 58.167 L 157.000 58.167 157.000 43.917 L 157.000 29.667 154.833 29.667 L 152.667 29.667 152.667 35.500 L 152.667 41.333 145.750 41.333 L 138.833 41.333 138.833 35.500 L 138.833 29.667 136.611 29.667 C 135.389 29.667,134.339 29.717,134.278 29.778 M193.167 43.917 L 193.167 58.167 202.250 58.167 L 211.333 58.167 211.333 56.333 L 211.333 54.500 204.417 54.500 L 197.500 54.500 197.500 42.083 L 197.500 29.667 195.333 29.667 L 193.167 29.667 193.167 43.917 M209.500 29.989 C 209.500 30.166,209.650 30.358,209.833 30.417 C 210.017 30.475,210.167 30.651,210.167 30.808 C 210.167 30.965,210.317 31.201,210.500 31.333 C 210.683 31.465,210.833 31.698,210.833 31.850 C 210.833 32.002,210.946 32.219,211.083 32.333 C 211.221 32.447,211.333 32.628,211.333 32.734 C 211.333 32.840,211.483 33.035,211.667 33.167 C 211.850 33.299,212.000 33.513,212.000 33.642 C 212.000 33.772,212.139 33.999,212.309 34.147 C 212.480 34.295,212.672 34.585,212.737 34.792 C 212.803 34.998,212.926 35.167,213.011 35.167 C 213.097 35.167,213.167 35.300,213.167 35.463 C 213.167 35.626,213.317 35.868,213.500 36.000 C 213.683 36.132,213.833 36.320,213.833 36.417 C 213.833 36.514,213.983 36.701,214.167 36.833 C 214.350 36.965,214.500 37.207,214.500 37.370 C 214.500 37.533,214.570 37.667,214.655 37.667 C 214.741 37.667,214.864 37.835,214.929 38.042 C 214.994 38.248,215.187 38.538,215.357 38.686 C 215.527 38.834,215.667 39.062,215.667 39.191 C 215.667 39.321,215.817 39.535,216.000 39.667 C 216.183 39.799,216.333 40.003,216.333 40.120 C 216.333 40.237,216.394 40.333,216.468 40.333 C 216.542 40.333,216.735 40.633,216.897 41.000 C 217.058 41.367,217.260 41.667,217.345 41.667 C 217.430 41.667,217.500 41.779,217.500 41.915 C 217.500 42.052,217.650 42.258,217.833 42.372 C 218.017 42.487,218.167 42.696,218.167 42.837 C 218.167 42.978,218.317 43.201,218.500 43.333 C 218.683 43.465,218.833 43.709,218.833 43.875 C 218.833 44.041,218.946 44.220,219.083 44.273 C 219.221 44.326,219.333 44.494,219.333 44.648 C 219.333 44.801,219.483 45.035,219.667 45.167 C 219.850 45.299,220.000 45.535,220.000 45.692 C 220.000 45.849,220.150 46.025,220.333 46.083 C 220.659 46.187,220.667 46.336,220.667 52.178 L 220.667 58.167 222.667 58.167 L 224.667 58.167 224.667 52.161 C 224.667 46.977,224.701 46.143,224.917 46.060 C 225.054 46.008,225.167 45.839,225.167 45.686 C 225.167 45.532,225.317 45.299,225.500 45.167 C 225.683 45.035,225.833 44.798,225.833 44.641 C 225.833 44.484,225.983 44.308,226.166 44.250 C 226.349 44.192,226.549 43.943,226.610 43.697 C 226.670 43.451,226.858 43.129,227.027 42.980 C 227.195 42.832,227.333 42.643,227.333 42.559 C 227.333 42.475,227.483 42.299,227.667 42.167 C 227.850 42.035,228.000 41.810,228.000 41.667 C 228.000 41.524,228.150 41.299,228.333 41.167 C 228.517 41.035,228.667 40.803,228.667 40.653 C 228.667 40.503,228.854 40.239,229.083 40.067 C 229.313 39.895,229.500 39.639,229.500 39.497 C 229.500 39.356,229.650 39.132,229.833 39.000 C 230.017 38.868,230.167 38.673,230.167 38.567 C 230.167 38.461,230.279 38.281,230.417 38.167 C 230.554 38.053,230.667 37.835,230.667 37.683 C 230.667 37.531,230.817 37.299,231.000 37.167 C 231.183 37.035,231.333 36.793,231.333 36.630 C 231.333 36.467,231.397 36.333,231.474 36.333 C 231.737 36.333,232.333 35.713,232.333 35.439 C 232.333 35.289,232.403 35.167,232.489 35.167 C 232.574 35.167,232.697 34.998,232.763 34.792 C 232.828 34.585,233.020 34.295,233.191 34.147 C 233.361 33.999,233.500 33.772,233.500 33.642 C 233.500 33.513,233.650 33.299,233.833 33.167 C 234.017 33.035,234.167 32.848,234.167 32.753 C 234.167 32.658,234.354 32.378,234.583 32.131 C 234.813 31.883,235.000 31.582,235.000 31.461 C 235.000 31.339,235.150 31.132,235.333 31.000 C 235.517 30.868,235.667 30.664,235.667 30.547 C 235.667 30.429,235.742 30.333,235.833 30.333 C 235.925 30.333,236.000 30.183,236.000 30.000 C 236.000 29.682,235.889 29.667,233.526 29.667 L 231.052 29.667 230.738 30.250 C 230.566 30.571,230.366 30.833,230.295 30.833 C 230.225 30.833,230.167 30.967,230.167 31.130 C 230.167 31.293,230.017 31.535,229.833 31.667 C 229.650 31.799,229.500 32.040,229.500 32.203 C 229.500 32.367,229.425 32.500,229.333 32.500 C 229.242 32.500,229.167 32.612,229.167 32.750 C 229.167 32.887,229.093 33.000,229.003 33.000 C 228.913 33.000,228.789 33.206,228.727 33.458 C 228.664 33.710,228.475 34.038,228.307 34.186 C 228.138 34.334,228.000 34.524,228.000 34.608 C 228.000 34.691,227.850 34.868,227.667 35.000 C 227.483 35.132,227.333 35.374,227.333 35.537 C 227.333 35.700,227.275 35.833,227.205 35.833 C 227.134 35.833,226.934 36.096,226.762 36.417 C 226.589 36.737,226.384 37.000,226.307 37.000 C 226.230 37.000,226.167 37.133,226.167 37.297 C 226.167 37.460,226.017 37.701,225.833 37.833 C 225.650 37.965,225.500 38.153,225.500 38.250 C 225.500 38.347,225.350 38.535,225.167 38.667 C 224.983 38.799,224.833 39.035,224.833 39.192 C 224.833 39.348,224.740 39.575,224.625 39.696 C 224.510 39.818,224.305 40.142,224.168 40.417 C 224.031 40.692,223.787 41.038,223.626 41.186 C 223.465 41.334,223.333 41.578,223.333 41.728 C 223.333 41.878,223.258 42.000,223.167 42.000 C 223.075 42.000,223.000 42.119,223.000 42.264 C 223.000 42.654,222.592 42.450,222.530 42.029 C 222.501 41.830,222.407 41.667,222.322 41.667 C 222.236 41.667,222.167 41.533,222.167 41.370 C 222.167 41.207,222.017 40.965,221.833 40.833 C 221.650 40.701,221.500 40.497,221.500 40.380 C 221.500 40.263,221.425 40.167,221.333 40.167 C 221.242 40.167,221.167 40.017,221.167 39.833 C 221.167 39.650,221.106 39.500,221.032 39.500 C 220.958 39.500,220.758 39.181,220.588 38.792 C 220.417 38.402,220.140 37.962,219.972 37.814 C 219.804 37.666,219.667 37.449,219.667 37.333 C 219.667 37.217,219.527 37.001,219.357 36.853 C 219.187 36.705,218.994 36.415,218.929 36.208 C 218.864 36.002,218.741 35.833,218.655 35.833 C 218.570 35.833,218.500 35.700,218.500 35.537 C 218.500 35.374,218.350 35.132,218.167 35.000 C 217.983 34.868,217.833 34.680,217.833 34.583 C 217.833 34.486,217.683 34.299,217.500 34.167 C 217.317 34.035,217.167 33.793,217.167 33.630 C 217.167 33.467,217.093 33.333,217.003 33.333 C 216.913 33.333,216.793 33.146,216.735 32.917 C 216.678 32.688,216.564 32.500,216.482 32.500 C 216.400 32.500,216.333 32.367,216.333 32.203 C 216.333 32.040,216.183 31.799,216.000 31.667 C 215.817 31.535,215.667 31.321,215.667 31.191 C 215.667 31.062,215.527 30.834,215.357 30.686 C 215.187 30.538,214.994 30.248,214.929 30.042 C 214.757 29.496,209.500 29.445,209.500 29.989 M269.500 43.917 L 269.500 58.167 271.667 58.167 L 273.833 58.167 273.833 51.583 L 273.833 45.000 280.917 45.000 L 288.000 45.000 288.000 51.583 L 288.000 58.167 290.083 58.167 L 292.167 58.167 292.167 43.917 L 292.167 29.667 290.083 29.667 L 288.000 29.667 288.000 35.500 L 288.000 41.333 280.917 41.333 L 273.833 41.333 273.833 35.500 L 273.833 29.667 271.667 29.667 L 269.500 29.667 269.500 43.917 M352.833 31.667 L 352.833 33.667 357.417 33.667 L 362.000 33.667 362.000 45.917 L 362.000 58.167 364.167 58.167 L 366.333 58.167 366.333 45.917 L 366.333 33.667 370.917 33.667 L 375.500 33.667 375.500 31.667 L 375.500 29.667 364.167 29.667 L 352.833 29.667 352.833 31.667 M177.333 33.167 C 177.333 33.258,177.596 33.333,177.917 33.333 C 178.237 33.333,178.500 33.408,178.500 33.500 C 178.500 33.592,178.688 33.667,178.917 33.667 C 179.146 33.667,179.333 33.730,179.333 33.808 C 179.333 33.886,179.633 34.085,180.000 34.250 C 180.367 34.415,180.667 34.614,180.667 34.692 C 180.667 34.770,180.744 34.833,180.838 34.833 C 181.024 34.833,182.500 36.255,182.500 36.434 C 182.500 36.495,182.640 36.666,182.811 36.814 C 182.982 36.962,183.175 37.327,183.241 37.625 C 183.306 37.923,183.429 38.167,183.513 38.167 C 183.598 38.167,183.667 38.317,183.667 38.500 C 183.667 38.683,183.742 38.833,183.833 38.833 C 183.925 38.833,184.000 39.058,184.000 39.333 C 184.000 39.608,184.075 39.833,184.167 39.833 C 184.258 39.833,184.333 40.171,184.333 40.583 C 184.333 40.996,184.408 41.333,184.500 41.333 C 184.604 41.333,184.667 42.361,184.667 44.083 C 184.667 45.806,184.604 46.833,184.500 46.833 C 184.408 46.833,184.333 47.133,184.333 47.500 C 184.333 47.867,184.258 48.167,184.167 48.167 C 184.075 48.167,184.000 48.350,184.000 48.573 C 184.000 48.797,183.925 49.027,183.833 49.083 C 183.742 49.140,183.667 49.369,183.667 49.593 C 183.667 49.817,183.600 50.000,183.518 50.000 C 183.436 50.000,183.322 50.188,183.265 50.417 C 183.207 50.646,183.087 50.833,182.997 50.833 C 182.907 50.833,182.833 50.943,182.833 51.078 C 182.833 51.388,180.544 53.667,180.233 53.667 C 180.105 53.667,180.000 53.742,180.000 53.833 C 180.000 53.925,179.864 54.000,179.699 54.000 C 179.533 54.000,179.251 54.110,179.074 54.245 C 178.896 54.379,178.544 54.492,178.292 54.495 C 178.040 54.498,177.833 54.575,177.833 54.667 C 177.833 54.758,177.421 54.833,176.917 54.833 C 176.412 54.833,176.000 54.908,176.000 55.000 C 176.000 55.092,175.742 55.167,175.427 55.167 C 175.111 55.167,174.807 55.092,174.750 55.000 C 174.693 54.908,174.276 54.833,173.823 54.833 C 173.371 54.833,173.000 54.758,173.000 54.667 C 173.000 54.575,172.779 54.500,172.510 54.500 C 172.240 54.500,171.977 54.431,171.925 54.346 C 171.872 54.262,171.605 54.143,171.331 54.083 C 171.057 54.023,170.833 53.904,170.833 53.820 C 170.833 53.736,170.723 53.667,170.589 53.667 C 170.308 53.667,168.000 51.414,168.000 51.139 C 168.000 51.038,167.862 50.834,167.693 50.686 C 167.525 50.538,167.250 49.967,167.084 49.417 C 166.917 48.867,166.718 48.345,166.641 48.258 C 166.563 48.171,166.500 47.857,166.500 47.560 C 166.500 47.263,166.425 46.973,166.333 46.917 C 166.233 46.855,166.167 45.720,166.167 44.073 C 166.167 42.358,166.229 41.333,166.333 41.333 C 166.425 41.333,166.500 40.996,166.500 40.583 C 166.500 40.171,166.575 39.833,166.667 39.833 C 166.758 39.833,166.833 39.613,166.833 39.343 C 166.833 39.074,166.902 38.811,166.985 38.759 C 167.069 38.707,167.188 38.365,167.250 37.999 C 167.312 37.633,167.431 37.333,167.515 37.333 C 167.598 37.333,167.667 37.200,167.667 37.037 C 167.667 36.874,167.827 36.630,168.023 36.495 C 168.498 36.168,168.993 35.678,169.500 35.033 C 169.729 34.742,170.010 34.502,170.124 34.502 C 170.442 34.499,171.667 33.938,171.667 33.794 C 171.667 33.724,171.817 33.667,172.000 33.667 C 172.183 33.667,172.333 33.592,172.333 33.500 C 172.333 33.408,172.596 33.333,172.917 33.333 C 173.237 33.333,173.500 33.258,173.500 33.167 C 173.500 33.065,174.250 33.000,175.417 33.000 C 176.583 33.000,177.333 33.065,177.333 33.167 M312.500 33.167 C 312.500 33.258,312.800 33.333,313.167 33.333 C 313.533 33.333,313.833 33.408,313.833 33.500 C 313.833 33.592,313.946 33.667,314.083 33.667 C 314.221 33.667,314.333 33.742,314.333 33.833 C 314.333 33.925,314.483 34.000,314.667 34.000 C 314.850 34.000,315.000 34.075,315.000 34.167 C 315.000 34.258,315.123 34.333,315.274 34.333 C 315.424 34.333,315.747 34.540,315.991 34.792 C 316.236 35.044,316.738 35.512,317.108 35.833 C 317.477 36.154,317.913 36.698,318.075 37.042 C 318.238 37.385,318.438 37.667,318.519 37.667 C 318.600 37.667,318.667 37.854,318.667 38.083 C 318.667 38.313,318.742 38.500,318.833 38.500 C 318.925 38.500,319.000 38.650,319.000 38.833 C 319.000 39.017,319.075 39.167,319.167 39.167 C 319.258 39.167,319.333 39.423,319.333 39.736 C 319.333 40.049,319.427 40.337,319.542 40.375 C 319.700 40.428,319.750 41.320,319.750 44.083 C 319.750 46.846,319.700 47.739,319.542 47.792 C 319.427 47.830,319.333 48.117,319.333 48.431 C 319.333 48.744,319.258 49.000,319.167 49.000 C 319.075 49.000,319.000 49.150,319.000 49.333 C 319.000 49.517,318.925 49.667,318.833 49.667 C 318.742 49.667,318.667 49.817,318.667 50.000 C 318.667 50.183,318.592 50.333,318.500 50.333 C 318.408 50.333,318.333 50.446,318.333 50.583 C 318.333 50.721,318.273 50.833,318.199 50.833 C 318.125 50.833,317.932 51.133,317.770 51.500 C 317.608 51.867,317.409 52.167,317.327 52.167 C 317.245 52.167,316.915 52.429,316.594 52.750 C 316.274 53.071,315.950 53.333,315.876 53.333 C 315.801 53.333,315.632 53.483,315.500 53.667 C 315.368 53.850,315.156 54.000,315.030 54.000 C 314.904 54.000,314.564 54.105,314.275 54.233 C 313.452 54.599,313.180 54.664,310.625 55.097 C 310.215 55.167,310.000 55.140,310.000 55.018 C 310.000 54.905,309.644 54.833,309.083 54.833 C 308.579 54.833,308.167 54.767,308.167 54.686 C 308.167 54.604,307.960 54.497,307.708 54.448 C 306.977 54.305,306.000 53.930,306.000 53.793 C 306.000 53.723,305.923 53.667,305.829 53.667 C 305.671 53.667,305.023 53.118,304.118 52.218 C 303.382 51.486,303.055 51.062,302.823 50.536 C 302.692 50.241,302.529 50.000,302.459 50.000 C 302.390 50.000,302.333 49.856,302.333 49.681 C 302.333 49.505,302.257 49.336,302.164 49.305 C 302.070 49.273,301.947 48.855,301.890 48.374 C 301.833 47.893,301.722 47.500,301.643 47.500 C 301.565 47.500,301.500 46.979,301.500 46.343 C 301.500 45.707,301.425 45.140,301.333 45.083 C 301.242 45.027,301.167 44.614,301.167 44.167 C 301.167 43.719,301.242 43.307,301.333 43.250 C 301.425 43.193,301.500 42.588,301.500 41.905 C 301.500 41.221,301.571 40.532,301.658 40.373 C 301.745 40.214,301.862 39.727,301.918 39.292 C 301.974 38.856,302.091 38.500,302.177 38.500 C 302.263 38.500,302.333 38.313,302.333 38.083 C 302.333 37.854,302.408 37.667,302.500 37.667 C 302.592 37.667,302.667 37.547,302.667 37.400 C 302.667 37.254,302.878 36.935,303.135 36.692 C 303.393 36.449,303.654 36.117,303.715 35.955 C 303.776 35.792,303.957 35.609,304.118 35.547 C 304.278 35.486,304.657 35.187,304.960 34.884 C 305.263 34.581,305.621 34.333,305.756 34.333 C 305.890 34.333,306.000 34.258,306.000 34.167 C 306.000 34.075,306.150 34.000,306.333 34.000 C 306.517 34.000,306.667 33.925,306.667 33.833 C 306.667 33.742,306.892 33.667,307.167 33.667 C 307.442 33.667,307.667 33.592,307.667 33.500 C 307.667 33.408,307.854 33.333,308.083 33.333 C 308.313 33.333,308.500 33.258,308.500 33.167 C 308.500 33.065,309.278 33.000,310.500 33.000 C 311.722 33.000,312.500 33.065,312.500 33.167 M138.833 72.833 C 138.833 72.925,138.608 73.000,138.333 73.000 C 138.058 73.000,137.833 73.075,137.833 73.167 C 137.833 73.258,137.646 73.333,137.417 73.333 C 137.188 73.333,137.000 73.408,137.000 73.500 C 137.000 73.592,136.868 73.667,136.707 73.667 C 136.545 73.667,136.211 73.854,135.964 74.083 C 135.717 74.313,135.471 74.500,135.418 74.500 C 135.290 74.500,134.167 75.628,134.167 75.756 C 134.167 75.812,134.054 75.970,133.917 76.107 C 133.779 76.245,133.667 76.502,133.667 76.679 C 133.667 76.855,133.592 77.000,133.500 77.000 C 133.408 77.000,133.333 77.150,133.333 77.333 C 133.333 77.517,133.258 77.667,133.167 77.667 C 133.075 77.667,133.000 77.854,133.000 78.083 C 133.000 78.313,132.925 78.500,132.833 78.500 C 132.742 78.500,132.667 78.837,132.667 79.250 C 132.667 79.662,132.592 80.000,132.500 80.000 C 132.397 80.000,132.333 80.833,132.333 82.167 C 132.333 83.500,132.397 84.333,132.500 84.333 C 132.592 84.333,132.667 84.591,132.667 84.907 C 132.667 85.222,132.742 85.527,132.833 85.583 C 132.925 85.640,133.000 85.944,133.000 86.260 C 133.000 86.575,133.075 86.833,133.167 86.833 C 133.258 86.833,133.333 86.983,133.333 87.167 C 133.333 87.350,133.405 87.500,133.492 87.500 C 133.580 87.500,133.701 87.763,133.761 88.083 C 133.821 88.404,133.937 88.667,134.019 88.667 C 134.100 88.667,134.167 88.817,134.167 89.000 C 134.167 89.183,134.243 89.333,134.336 89.333 C 134.429 89.333,134.829 89.671,135.224 90.083 C 135.619 90.496,136.031 90.833,136.138 90.833 C 136.245 90.833,136.333 90.908,136.333 91.000 C 136.333 91.092,136.483 91.167,136.667 91.167 C 136.850 91.167,137.000 91.237,137.000 91.323 C 137.000 91.409,137.337 91.530,137.750 91.592 C 138.162 91.654,138.500 91.771,138.500 91.852 C 138.500 91.934,139.662 92.000,141.083 92.000 C 142.504 92.000,143.667 91.935,143.667 91.855 C 143.667 91.776,143.985 91.668,144.373 91.616 C 144.799 91.559,145.190 91.384,145.358 91.177 C 145.511 90.988,145.718 90.833,145.818 90.833 C 146.084 90.833,147.667 89.238,147.667 88.970 C 147.667 88.844,147.817 88.632,148.000 88.500 C 148.183 88.368,148.333 88.089,148.333 87.880 C 148.333 87.671,148.408 87.500,148.500 87.500 C 148.592 87.500,148.667 87.350,148.667 87.167 C 148.667 86.983,148.742 86.833,148.833 86.833 C 149.088 86.833,149.032 85.841,148.762 85.571 C 148.631 85.440,148.293 85.333,148.012 85.333 C 147.730 85.333,147.500 85.258,147.500 85.167 C 147.500 84.524,145.959 85.126,145.787 85.836 C 145.597 86.625,145.251 87.500,145.130 87.500 C 145.063 87.500,144.671 87.837,144.259 88.250 C 143.846 88.662,143.432 89.000,143.338 89.000 C 143.244 89.000,143.167 89.075,143.167 89.167 C 143.167 89.258,142.867 89.333,142.500 89.333 C 142.133 89.333,141.833 89.408,141.833 89.500 C 141.833 89.594,141.361 89.667,140.750 89.667 C 140.139 89.667,139.667 89.594,139.667 89.500 C 139.667 89.408,139.479 89.333,139.250 89.333 C 139.021 89.333,138.833 89.258,138.833 89.167 C 138.833 89.075,138.722 89.000,138.585 89.000 C 138.269 89.000,136.333 87.056,136.333 86.739 C 136.333 86.607,136.258 86.500,136.167 86.500 C 136.075 86.500,136.000 86.356,136.000 86.181 C 136.000 86.005,135.906 85.830,135.792 85.792 C 135.635 85.739,135.583 84.930,135.583 82.500 C 135.583 80.070,135.635 79.261,135.792 79.208 C 135.906 79.170,136.000 78.920,136.000 78.653 C 136.000 78.385,136.075 78.167,136.167 78.167 C 136.258 78.167,136.333 78.093,136.333 78.003 C 136.333 77.913,136.671 77.487,137.083 77.056 C 137.496 76.626,137.833 76.221,137.833 76.156 C 137.833 76.021,139.348 75.500,139.740 75.500 C 139.883 75.500,140.000 75.425,140.000 75.333 C 140.000 75.237,140.528 75.167,141.250 75.167 C 141.972 75.167,142.500 75.237,142.500 75.333 C 142.500 75.425,142.717 75.500,142.982 75.500 C 143.257 75.500,143.506 75.607,143.560 75.750 C 143.613 75.887,143.774 76.000,143.919 76.000 C 144.257 76.000,145.000 76.740,145.000 77.076 C 145.000 77.217,145.075 77.333,145.167 77.333 C 145.258 77.333,145.333 77.416,145.333 77.516 C 145.333 78.501,146.963 79.401,147.417 78.667 C 147.473 78.575,147.778 78.500,148.093 78.500 C 148.637 78.500,148.667 78.470,148.667 77.917 C 148.667 77.596,148.592 77.333,148.500 77.333 C 148.408 77.333,148.333 77.183,148.333 77.000 C 148.333 76.817,148.258 76.667,148.167 76.667 C 148.075 76.667,148.000 76.517,148.000 76.333 C 148.000 76.150,147.925 76.000,147.833 76.000 C 147.742 76.000,147.667 75.889,147.667 75.754 C 147.667 75.433,145.900 73.667,145.580 73.667 C 145.444 73.667,145.333 73.592,145.333 73.500 C 145.333 73.408,145.108 73.333,144.833 73.333 C 144.558 73.333,144.333 73.258,144.333 73.167 C 144.333 73.075,144.146 73.000,143.917 73.000 C 143.688 73.000,143.500 72.925,143.500 72.833 C 143.500 72.730,142.611 72.667,141.167 72.667 C 139.722 72.667,138.833 72.730,138.833 72.833 M199.333 72.833 C 199.333 72.925,199.146 73.000,198.917 73.000 C 198.688 73.000,198.500 73.075,198.500 73.167 C 198.500 73.258,198.275 73.333,198.000 73.333 C 197.725 73.333,197.500 73.403,197.500 73.489 C 197.500 73.574,197.338 73.696,197.139 73.759 C 196.667 73.909,196.000 74.582,196.000 74.909 C 196.000 75.051,195.925 75.167,195.833 75.167 C 195.742 75.167,195.667 75.317,195.667 75.500 C 195.667 75.683,195.607 75.833,195.533 75.833 C 195.110 75.833,194.770 78.838,195.167 79.083 C 195.258 79.140,195.333 79.369,195.333 79.593 C 195.333 79.817,195.408 80.000,195.500 80.000 C 195.592 80.000,195.667 80.118,195.667 80.263 C 195.667 80.585,196.936 81.833,197.264 81.833 C 197.394 81.833,197.500 81.908,197.500 82.000 C 197.500 82.092,197.650 82.167,197.833 82.167 C 198.017 82.167,198.167 82.242,198.167 82.333 C 198.167 82.425,198.354 82.500,198.583 82.500 C 198.813 82.500,199.000 82.575,199.000 82.667 C 199.000 82.758,199.225 82.833,199.500 82.833 C 199.775 82.833,200.000 82.908,200.000 83.000 C 200.000 83.092,200.225 83.167,200.500 83.167 C 200.775 83.167,201.000 83.231,201.000 83.309 C 201.000 83.388,201.506 83.499,202.124 83.557 C 202.742 83.615,203.274 83.738,203.305 83.831 C 203.336 83.924,203.655 84.000,204.014 84.000 C 204.373 84.000,204.667 84.075,204.667 84.167 C 204.667 84.258,204.744 84.333,204.838 84.333 C 205.426 84.333,206.500 85.838,206.500 86.662 C 206.500 87.123,206.425 87.500,206.333 87.500 C 206.242 87.500,206.167 87.578,206.167 87.674 C 206.167 87.900,205.400 88.667,205.174 88.667 C 205.078 88.667,205.000 88.742,205.000 88.833 C 205.000 88.925,204.850 89.000,204.667 89.000 C 204.483 89.000,204.333 89.075,204.333 89.167 C 204.333 89.258,203.996 89.333,203.583 89.333 C 203.171 89.333,202.833 89.408,202.833 89.500 C 202.833 89.592,202.533 89.667,202.167 89.667 C 201.800 89.667,201.500 89.592,201.500 89.500 C 201.500 89.408,201.162 89.333,200.750 89.333 C 200.338 89.333,200.000 89.258,200.000 89.167 C 200.000 89.075,199.850 89.000,199.667 89.000 C 199.483 89.000,199.333 88.925,199.333 88.833 C 199.333 88.742,199.256 88.667,199.161 88.667 C 198.937 88.667,197.833 87.563,197.833 87.339 C 197.833 87.244,197.758 87.167,197.667 87.167 C 197.575 87.167,197.500 87.017,197.500 86.833 C 197.500 86.650,197.425 86.500,197.333 86.500 C 197.242 86.500,197.167 86.237,197.167 85.917 L 197.167 85.333 195.833 85.333 L 194.500 85.333 194.500 86.417 C 194.500 87.028,194.573 87.500,194.667 87.500 C 194.758 87.500,194.833 87.647,194.833 87.828 C 194.833 88.230,195.344 89.333,195.531 89.333 C 195.606 89.333,195.667 89.411,195.667 89.506 C 195.667 89.730,196.770 90.833,196.994 90.833 C 197.089 90.833,197.167 90.908,197.167 91.000 C 197.167 91.092,197.310 91.167,197.486 91.167 C 197.662 91.167,197.831 91.243,197.862 91.336 C 197.893 91.430,198.312 91.553,198.793 91.610 C 199.273 91.667,199.667 91.778,199.667 91.857 C 199.667 91.935,200.829 92.000,202.250 92.000 C 203.861 92.000,204.833 91.937,204.833 91.833 C 204.833 91.742,205.028 91.667,205.266 91.667 C 206.330 91.667,208.570 89.857,208.775 88.833 C 208.830 88.558,208.941 88.333,209.021 88.333 C 209.101 88.333,209.167 88.071,209.167 87.750 C 209.167 87.429,209.242 87.167,209.333 87.167 C 209.425 87.167,209.500 86.829,209.500 86.417 C 209.500 86.004,209.425 85.667,209.333 85.667 C 209.242 85.667,209.167 85.367,209.167 85.000 C 209.167 84.633,209.092 84.333,209.000 84.333 C 208.908 84.333,208.833 84.181,208.833 83.995 C 208.833 83.809,208.721 83.613,208.583 83.560 C 208.446 83.508,208.333 83.355,208.333 83.220 C 208.333 82.914,207.930 82.500,207.632 82.500 C 207.508 82.500,207.299 82.350,207.167 82.167 C 207.035 81.984,206.681 81.789,206.380 81.732 C 206.080 81.676,205.833 81.563,205.833 81.481 C 205.833 81.400,205.608 81.333,205.333 81.333 C 205.058 81.333,204.833 81.258,204.833 81.167 C 204.833 81.075,204.571 81.000,204.250 81.000 C 203.929 81.000,203.667 80.925,203.667 80.833 C 203.667 80.742,203.404 80.667,203.083 80.667 C 202.762 80.667,202.500 80.592,202.500 80.500 C 202.500 80.408,202.200 80.333,201.833 80.333 C 201.467 80.333,201.167 80.258,201.167 80.167 C 201.167 80.075,200.944 80.000,200.672 80.000 C 199.720 80.000,198.167 79.023,198.167 78.424 C 198.167 78.283,198.092 78.167,198.000 78.167 C 197.908 78.167,197.833 77.979,197.833 77.750 C 197.833 77.521,197.908 77.333,198.000 77.333 C 198.092 77.333,198.167 77.217,198.167 77.076 C 198.167 76.418,199.538 75.500,200.519 75.500 C 200.875 75.500,201.167 75.425,201.167 75.333 C 201.167 75.242,201.542 75.167,202.000 75.167 C 202.458 75.167,202.833 75.242,202.833 75.333 C 202.833 75.425,203.033 75.500,203.277 75.500 C 203.911 75.500,204.981 76.009,205.093 76.365 C 205.146 76.531,205.259 76.667,205.345 76.667 C 205.430 76.667,205.500 76.817,205.500 77.000 C 205.500 77.183,205.575 77.333,205.667 77.333 C 205.758 77.333,205.833 77.564,205.833 77.845 C 205.833 78.658,206.145 78.833,207.588 78.833 L 208.867 78.833 208.748 77.625 C 208.682 76.960,208.562 76.392,208.481 76.361 C 208.400 76.331,208.333 76.199,208.333 76.069 C 208.333 75.940,208.258 75.833,208.167 75.833 C 208.075 75.833,208.000 75.723,208.000 75.587 C 208.000 75.238,206.460 73.667,206.118 73.667 C 205.961 73.667,205.833 73.592,205.833 73.500 C 205.833 73.408,205.683 73.333,205.500 73.333 C 205.317 73.333,205.167 73.258,205.167 73.167 C 205.167 73.075,204.904 73.000,204.583 73.000 C 204.262 73.000,204.000 72.925,204.000 72.833 C 204.000 72.730,203.111 72.667,201.667 72.667 C 200.222 72.667,199.333 72.730,199.333 72.833 M282.667 72.833 C 282.667 72.925,282.479 73.000,282.250 73.000 C 282.021 73.000,281.833 73.075,281.833 73.167 C 281.833 73.258,281.608 73.333,281.333 73.333 C 281.058 73.333,280.833 73.399,280.833 73.479 C 280.833 73.559,280.620 73.668,280.360 73.720 C 279.822 73.827,277.833 75.719,277.833 76.123 C 277.833 76.198,277.683 76.368,277.500 76.500 C 277.304 76.641,277.167 76.931,277.167 77.203 C 277.167 77.458,277.092 77.667,277.000 77.667 C 276.908 77.667,276.833 77.779,276.833 77.917 C 276.833 78.054,276.766 78.167,276.683 78.167 C 276.502 78.167,276.366 79.165,276.228 81.500 C 276.123 83.288,276.422 86.500,276.694 86.500 C 276.770 86.500,276.833 86.650,276.833 86.833 C 276.833 87.017,276.908 87.167,277.000 87.167 C 277.092 87.167,277.167 87.338,277.167 87.547 C 277.167 87.755,277.317 88.035,277.500 88.167 C 277.683 88.299,277.833 88.540,277.833 88.703 C 277.833 88.867,277.903 89.000,277.989 89.000 C 278.074 89.000,278.197 89.165,278.261 89.367 C 278.400 89.806,278.735 90.167,279.005 90.167 C 279.112 90.167,279.398 90.376,279.641 90.632 C 280.170 91.189,281.136 91.667,281.734 91.667 C 281.972 91.667,282.167 91.742,282.167 91.833 C 282.167 91.937,283.139 92.000,284.750 92.000 C 286.171 92.000,287.333 91.934,287.333 91.852 C 287.333 91.771,287.671 91.654,288.083 91.592 C 288.496 91.530,288.833 91.409,288.833 91.323 C 288.833 91.237,288.965 91.166,289.125 91.165 C 289.285 91.164,289.594 90.939,289.810 90.665 C 290.027 90.391,290.276 90.167,290.364 90.167 C 290.562 90.167,291.000 89.741,291.000 89.549 C 291.000 89.471,291.150 89.299,291.333 89.167 C 291.517 89.035,291.667 88.793,291.667 88.630 C 291.667 88.467,291.733 88.333,291.815 88.333 C 291.896 88.333,292.012 88.071,292.072 87.750 C 292.133 87.429,292.253 87.167,292.341 87.167 C 292.428 87.167,292.500 86.942,292.500 86.667 C 292.500 86.392,292.575 86.167,292.667 86.167 C 292.758 86.167,292.833 86.086,292.833 85.988 C 292.833 85.650,292.356 85.333,291.845 85.333 C 291.564 85.333,291.333 85.258,291.333 85.167 C 291.333 85.075,290.996 85.000,290.583 85.000 C 289.894 85.000,289.833 85.034,289.833 85.417 C 289.833 85.646,289.758 85.833,289.667 85.833 C 289.575 85.833,289.500 85.983,289.500 86.167 C 289.500 86.350,289.425 86.500,289.333 86.500 C 289.242 86.500,289.167 86.650,289.167 86.833 C 289.167 87.017,289.092 87.167,289.000 87.167 C 288.908 87.167,288.833 87.245,288.833 87.341 C 288.833 87.437,288.646 87.703,288.417 87.932 C 288.188 88.161,288.000 88.420,288.000 88.508 C 288.000 88.595,287.867 88.667,287.703 88.667 C 287.540 88.667,287.299 88.817,287.167 89.000 C 287.010 89.217,286.735 89.333,286.380 89.333 C 286.079 89.333,285.833 89.408,285.833 89.500 C 285.833 89.594,285.361 89.667,284.750 89.667 C 284.139 89.667,283.667 89.594,283.667 89.500 C 283.667 89.408,283.442 89.333,283.167 89.333 C 282.892 89.333,282.667 89.277,282.667 89.207 C 282.667 89.138,282.426 88.975,282.132 88.845 C 281.837 88.714,281.347 88.358,281.043 88.054 C 280.738 87.749,280.423 87.500,280.342 87.500 C 280.262 87.500,280.145 87.200,280.083 86.833 C 280.021 86.467,279.902 86.167,279.819 86.167 C 279.735 86.167,279.667 85.904,279.667 85.583 C 279.667 85.262,279.592 85.000,279.500 85.000 C 279.408 85.000,279.333 84.587,279.333 84.083 C 279.333 83.579,279.258 83.167,279.167 83.167 C 279.075 83.167,279.000 82.754,279.000 82.250 C 279.000 81.746,279.075 81.333,279.167 81.333 C 279.258 81.333,279.333 80.921,279.333 80.417 C 279.333 79.912,279.408 79.500,279.500 79.500 C 279.592 79.500,279.667 79.275,279.667 79.000 C 279.667 78.725,279.732 78.500,279.813 78.500 C 279.893 78.500,280.003 78.275,280.058 78.000 C 280.188 77.350,281.474 76.069,282.144 75.922 C 282.432 75.858,282.667 75.738,282.667 75.653 C 282.667 75.569,282.892 75.500,283.167 75.500 C 283.442 75.500,283.667 75.425,283.667 75.333 C 283.667 75.237,284.194 75.167,284.917 75.167 C 285.639 75.167,286.167 75.237,286.167 75.333 C 286.167 75.425,286.291 75.500,286.444 75.500 C 286.810 75.500,288.000 76.029,288.000 76.191 C 288.000 76.261,288.188 76.506,288.417 76.735 C 288.646 76.964,288.833 77.267,288.833 77.409 C 288.833 77.551,288.908 77.667,289.000 77.667 C 289.092 77.667,289.167 77.779,289.167 77.917 C 289.167 78.054,289.242 78.167,289.333 78.167 C 289.425 78.167,289.500 78.317,289.500 78.500 C 289.500 78.784,289.611 78.833,290.250 78.833 C 290.662 78.833,291.000 78.758,291.000 78.667 C 291.000 78.575,291.230 78.500,291.512 78.500 C 292.023 78.500,292.500 78.184,292.500 77.845 C 292.500 77.747,292.432 77.667,292.348 77.667 C 292.264 77.667,292.145 77.367,292.083 77.000 C 292.021 76.633,291.902 76.333,291.819 76.333 C 291.735 76.333,291.667 76.221,291.667 76.083 C 291.667 75.946,291.592 75.833,291.500 75.833 C 291.408 75.833,291.333 75.719,291.333 75.579 C 291.333 75.176,289.887 73.836,289.334 73.725 C 289.058 73.670,288.833 73.559,288.833 73.479 C 288.833 73.399,288.683 73.333,288.500 73.333 C 288.317 73.333,288.167 73.258,288.167 73.167 C 288.167 73.075,287.979 73.000,287.750 73.000 C 287.521 73.000,287.333 72.925,287.333 72.833 C 287.333 72.730,286.444 72.667,285.000 72.667 C 283.556 72.667,282.667 72.730,282.667 72.833 M151.667 82.333 L 151.667 91.667 153.083 91.667 L 154.500 91.667 154.500 87.417 L 154.500 83.167 158.914 83.167 L 163.328 83.167 163.372 87.375 L 163.417 91.583 164.958 91.631 L 166.500 91.679 166.500 82.333 L 166.500 72.987 164.958 73.035 L 163.417 73.083 163.372 76.875 L 163.327 80.667 158.914 80.667 L 154.500 80.667 154.500 76.833 L 154.500 73.000 153.083 73.000 L 151.667 73.000 151.667 82.333 M169.833 82.333 L 169.833 91.667 171.417 91.667 L 173.000 91.667 173.000 87.566 L 173.000 83.466 175.111 83.525 C 176.608 83.566,177.242 83.644,177.292 83.792 C 177.330 83.906,177.432 84.000,177.518 84.000 C 177.768 84.000,179.118 85.418,179.243 85.810 C 179.305 86.006,179.426 86.167,179.511 86.167 C 179.597 86.167,179.667 86.300,179.667 86.463 C 179.667 86.626,179.817 86.868,180.000 87.000 C 180.183 87.132,180.333 87.336,180.333 87.453 C 180.333 87.571,180.408 87.667,180.500 87.667 C 180.592 87.667,180.667 87.817,180.667 88.000 C 180.667 88.183,180.734 88.333,180.817 88.333 C 180.900 88.333,181.046 88.559,181.142 88.836 C 181.239 89.112,181.434 89.382,181.575 89.437 C 181.717 89.491,181.833 89.678,181.833 89.851 C 181.833 90.025,181.908 90.167,182.000 90.167 C 182.092 90.167,182.167 90.300,182.167 90.463 C 182.167 90.626,182.317 90.868,182.500 91.000 C 182.683 91.132,182.833 91.336,182.833 91.453 C 182.833 91.614,183.289 91.667,184.667 91.667 C 186.185 91.667,186.500 91.624,186.500 91.417 C 186.500 91.279,186.425 91.167,186.333 91.167 C 186.242 91.167,186.167 91.017,186.167 90.833 C 186.167 90.650,186.092 90.500,186.000 90.500 C 185.908 90.500,185.833 90.355,185.833 90.178 C 185.833 90.001,185.683 89.808,185.500 89.750 C 185.317 89.692,185.167 89.505,185.167 89.334 C 185.167 89.163,185.054 88.911,184.917 88.774 C 184.779 88.636,184.667 88.406,184.667 88.262 C 184.667 88.118,184.592 88.000,184.500 88.000 C 184.408 88.000,184.333 87.904,184.333 87.787 C 184.333 87.670,184.183 87.465,184.000 87.333 C 183.817 87.201,183.667 86.960,183.667 86.797 C 183.667 86.633,183.597 86.500,183.511 86.500 C 183.426 86.500,183.303 86.331,183.237 86.125 C 183.172 85.919,182.980 85.629,182.809 85.480 C 182.639 85.332,182.500 85.119,182.500 85.006 C 182.500 84.893,182.161 84.480,181.747 84.089 C 180.898 83.287,180.876 82.833,181.684 82.833 C 181.950 82.833,182.167 82.758,182.167 82.667 C 182.167 82.575,182.289 82.500,182.439 82.500 C 182.588 82.500,182.832 82.361,182.980 82.191 C 183.129 82.020,183.419 81.828,183.625 81.763 C 183.831 81.697,184.000 81.516,184.000 81.359 C 184.000 81.202,184.150 80.965,184.333 80.833 C 184.529 80.692,184.667 80.402,184.667 80.130 C 184.667 79.875,184.742 79.667,184.833 79.667 C 185.080 79.667,185.044 76.495,184.792 75.951 C 184.677 75.704,184.527 75.502,184.458 75.501 C 184.390 75.501,184.333 75.388,184.333 75.250 C 184.333 74.911,183.105 73.667,182.770 73.667 C 182.621 73.667,182.500 73.592,182.500 73.500 C 182.500 73.408,182.275 73.333,182.000 73.333 C 181.725 73.333,181.500 73.258,181.500 73.167 C 181.500 73.059,179.444 73.000,175.667 73.000 L 169.833 73.000 169.833 82.333 M188.667 82.333 L 188.667 91.667 190.000 91.667 L 191.333 91.667 191.333 82.333 L 191.333 73.000 190.000 73.000 L 188.667 73.000 188.667 82.333 M210.833 74.250 L 210.833 75.500 213.833 75.500 L 216.833 75.500 216.833 83.583 L 216.833 91.667 218.250 91.667 L 219.667 91.667 219.667 83.583 L 219.667 75.500 222.750 75.500 L 225.833 75.500 225.833 74.250 L 225.833 73.000 218.333 73.000 L 210.833 73.000 210.833 74.250 M228.000 82.333 L 228.000 91.667 229.500 91.667 L 231.000 91.667 231.000 82.333 L 231.000 73.000 229.500 73.000 L 228.000 73.000 228.000 82.333 M239.333 73.328 C 239.333 73.509,239.189 73.913,239.013 74.227 C 238.837 74.541,238.641 75.143,238.577 75.565 C 238.514 75.988,238.396 76.333,238.314 76.333 C 238.233 76.333,238.167 76.483,238.167 76.667 C 238.167 76.850,238.092 77.000,238.000 77.000 C 237.908 77.000,237.833 77.188,237.833 77.417 C 237.833 77.646,237.758 77.833,237.667 77.833 C 237.575 77.833,237.500 77.983,237.500 78.167 C 237.500 78.350,237.425 78.500,237.333 78.500 C 237.242 78.500,237.167 78.725,237.167 79.000 C 237.167 79.275,237.100 79.500,237.019 79.500 C 236.938 79.500,236.821 79.837,236.759 80.250 C 236.697 80.662,236.576 81.000,236.490 81.000 C 236.404 81.000,236.333 81.188,236.333 81.417 C 236.333 81.646,236.258 81.833,236.167 81.833 C 236.075 81.833,236.000 82.058,236.000 82.333 C 236.000 82.608,235.925 82.833,235.833 82.833 C 235.742 82.833,235.667 82.983,235.667 83.167 C 235.667 83.350,235.592 83.500,235.500 83.500 C 235.408 83.500,235.333 83.688,235.333 83.917 C 235.333 84.146,235.258 84.333,235.167 84.333 C 235.075 84.333,235.000 84.552,235.000 84.819 C 235.000 85.087,234.920 85.332,234.823 85.365 C 234.725 85.397,234.603 85.741,234.551 86.129 C 234.499 86.516,234.391 86.833,234.311 86.833 C 234.232 86.833,234.167 86.983,234.167 87.167 C 234.167 87.350,234.092 87.500,234.000 87.500 C 233.908 87.500,233.833 87.688,233.833 87.917 C 233.833 88.146,233.758 88.333,233.667 88.333 C 233.575 88.333,233.500 88.558,233.500 88.833 C 233.500 89.108,233.443 89.333,233.374 89.333 C 233.185 89.333,232.861 90.158,232.735 90.958 L 232.624 91.667 234.145 91.667 C 235.387 91.667,235.667 91.621,235.667 91.417 C 235.667 91.279,235.742 91.167,235.833 91.167 C 235.925 91.167,236.000 90.942,236.000 90.667 C 236.000 90.392,236.075 90.167,236.167 90.167 C 236.258 90.167,236.333 90.021,236.333 89.843 C 236.333 89.665,236.406 89.475,236.495 89.420 C 236.584 89.365,236.706 88.948,236.767 88.493 C 236.827 88.039,236.942 87.667,237.021 87.667 C 237.101 87.667,237.167 87.479,237.167 87.250 C 237.167 87.021,237.242 86.833,237.333 86.833 C 237.425 86.833,237.500 86.683,237.500 86.500 C 237.500 86.177,237.611 86.167,241.167 86.167 C 244.722 86.167,244.833 86.177,244.833 86.500 C 244.833 86.683,244.908 86.833,245.000 86.833 C 245.092 86.833,245.167 87.021,245.167 87.250 C 245.167 87.479,245.242 87.667,245.333 87.667 C 245.425 87.667,245.500 87.817,245.500 88.000 C 245.500 88.183,245.575 88.333,245.667 88.333 C 245.758 88.333,245.833 88.558,245.833 88.833 C 245.833 89.108,245.908 89.333,246.000 89.333 C 246.092 89.333,246.167 89.521,246.167 89.750 C 246.167 89.979,246.237 90.167,246.323 90.167 C 246.409 90.167,246.530 90.504,246.592 90.917 L 246.705 91.667 248.436 91.667 C 249.863 91.667,250.167 91.623,250.167 91.417 C 250.167 91.279,250.092 91.167,250.000 91.167 C 249.908 91.167,249.833 90.942,249.833 90.667 C 249.833 90.392,249.758 90.167,249.667 90.167 C 249.575 90.167,249.500 90.054,249.500 89.917 C 249.500 89.779,249.425 89.667,249.333 89.667 C 249.242 89.667,249.167 89.442,249.167 89.167 C 249.167 88.892,249.092 88.667,249.000 88.667 C 248.908 88.667,248.833 88.517,248.833 88.333 C 248.833 88.150,248.767 88.000,248.686 88.000 C 248.604 88.000,248.487 87.662,248.425 87.250 C 248.364 86.837,248.243 86.500,248.156 86.500 C 248.070 86.500,248.000 86.313,248.000 86.083 C 248.000 85.854,247.925 85.667,247.833 85.667 C 247.742 85.667,247.667 85.517,247.667 85.333 C 247.667 85.150,247.592 85.000,247.500 85.000 C 247.408 85.000,247.333 84.850,247.333 84.667 C 247.333 84.483,247.258 84.333,247.167 84.333 C 247.075 84.333,247.000 84.146,247.000 83.917 C 247.000 83.688,246.933 83.500,246.852 83.500 C 246.770 83.500,246.653 83.219,246.592 82.875 C 246.456 82.122,246.133 81.333,245.959 81.333 C 245.890 81.333,245.833 81.108,245.833 80.833 C 245.833 80.558,245.758 80.333,245.667 80.333 C 245.575 80.333,245.500 80.221,245.500 80.083 C 245.500 79.946,245.425 79.833,245.333 79.833 C 245.242 79.833,245.167 79.608,245.167 79.333 C 245.167 79.058,245.092 78.833,245.000 78.833 C 244.908 78.833,244.833 78.683,244.833 78.500 C 244.833 78.317,244.767 78.167,244.686 78.167 C 244.604 78.167,244.487 77.829,244.425 77.417 C 244.364 77.004,244.243 76.667,244.156 76.667 C 244.070 76.667,244.000 76.479,244.000 76.250 C 244.000 76.021,243.925 75.833,243.833 75.833 C 243.742 75.833,243.667 75.683,243.667 75.500 C 243.667 75.317,243.592 75.167,243.500 75.167 C 243.408 75.167,243.333 74.942,243.333 74.667 C 243.333 74.392,243.258 74.167,243.167 74.167 C 243.075 74.167,243.000 74.054,243.000 73.917 C 243.000 73.779,242.925 73.667,242.833 73.667 C 242.742 73.667,242.667 73.517,242.667 73.333 C 242.667 73.022,242.556 73.000,241.000 73.000 C 239.453 73.000,239.333 73.024,239.333 73.328 M251.333 82.333 L 251.333 91.667 252.750 91.667 L 254.167 91.667 254.167 84.917 C 254.167 78.567,254.261 77.223,254.607 78.625 C 254.669 78.877,254.858 79.205,255.027 79.353 C 255.195 79.501,255.333 79.691,255.333 79.774 C 255.333 79.858,255.483 80.035,255.667 80.167 C 255.850 80.299,256.000 80.540,256.000 80.703 C 256.000 80.867,256.070 81.000,256.155 81.000 C 256.241 81.000,256.364 81.169,256.429 81.375 C 256.494 81.581,256.687 81.871,256.857 82.020 C 257.027 82.168,257.167 82.395,257.167 82.524 C 257.167 82.654,257.317 82.868,257.500 83.000 C 257.683 83.132,257.833 83.309,257.833 83.392 C 257.833 83.476,257.971 83.666,258.140 83.814 C 258.309 83.962,258.498 84.290,258.560 84.542 C 258.622 84.794,258.747 85.000,258.837 85.000 C 258.926 85.000,259.000 85.112,259.000 85.249 C 259.000 85.385,259.150 85.591,259.333 85.705 C 259.517 85.820,259.667 86.029,259.667 86.170 C 259.667 86.311,259.817 86.535,260.000 86.667 C 260.183 86.799,260.333 87.043,260.333 87.209 C 260.333 87.375,260.446 87.554,260.583 87.606 C 260.721 87.659,260.833 87.828,260.833 87.981 C 260.833 88.134,260.983 88.368,261.167 88.500 C 261.350 88.632,261.500 88.869,261.500 89.026 C 261.500 89.182,261.650 89.358,261.833 89.417 C 262.017 89.475,262.167 89.662,262.167 89.833 C 262.167 90.003,262.279 90.255,262.417 90.393 C 262.554 90.530,262.667 90.733,262.667 90.844 C 262.667 91.405,263.364 91.667,264.859 91.667 L 266.333 91.667 266.333 82.333 L 266.333 73.000 264.833 73.000 L 263.333 73.000 263.333 79.583 C 263.333 83.861,263.275 86.167,263.167 86.167 C 263.075 86.167,263.000 86.082,263.000 85.978 C 263.000 85.874,262.862 85.668,262.693 85.520 C 262.525 85.371,262.336 85.044,262.273 84.792 C 262.211 84.540,262.087 84.333,261.997 84.333 C 261.907 84.333,261.833 84.221,261.833 84.085 C 261.833 83.948,261.683 83.742,261.500 83.628 C 261.317 83.513,261.167 83.304,261.167 83.163 C 261.167 83.022,261.017 82.799,260.833 82.667 C 260.650 82.535,260.500 82.291,260.500 82.125 C 260.500 81.959,260.387 81.780,260.250 81.727 C 260.112 81.674,260.000 81.506,260.000 81.352 C 260.000 81.199,259.850 80.965,259.667 80.833 C 259.483 80.701,259.333 80.478,259.333 80.337 C 259.333 80.196,259.183 79.987,259.000 79.872 C 258.817 79.758,258.667 79.552,258.667 79.415 C 258.667 79.279,258.593 79.167,258.503 79.167 C 258.413 79.167,258.289 78.960,258.227 78.708 C 258.164 78.456,257.975 78.129,257.807 77.980 C 257.638 77.832,257.500 77.643,257.500 77.559 C 257.500 77.475,257.350 77.299,257.167 77.167 C 256.983 77.035,256.833 76.793,256.833 76.630 C 256.833 76.467,256.763 76.333,256.678 76.333 C 256.592 76.333,256.469 76.165,256.404 75.958 C 256.339 75.752,256.146 75.462,255.976 75.314 C 255.806 75.166,255.667 74.938,255.667 74.809 C 255.667 74.679,255.517 74.465,255.333 74.333 C 255.150 74.201,255.000 73.997,255.000 73.880 C 255.000 73.763,254.930 73.667,254.845 73.667 C 254.759 73.667,254.642 73.517,254.583 73.333 C 254.487 73.031,254.331 73.000,252.905 73.000 L 251.333 73.000 251.333 82.333 M295.333 82.333 L 295.333 91.667 302.417 91.667 L 309.500 91.667 309.500 90.500 L 309.500 89.333 303.917 89.333 L 298.333 89.333 298.333 86.250 L 298.333 83.167 303.417 83.167 L 308.500 83.167 308.500 81.917 L 308.500 80.667 303.417 80.667 L 298.333 80.667 298.333 78.083 L 298.333 75.500 303.750 75.500 L 309.167 75.500 309.167 74.250 L 309.167 73.000 302.250 73.000 L 295.333 73.000 295.333 82.333 M312.167 82.333 L 312.167 91.667 313.583 91.667 L 315.000 91.667 315.000 84.917 C 315.000 80.528,315.058 78.167,315.167 78.167 C 315.258 78.167,315.333 78.317,315.333 78.500 C 315.333 78.683,315.403 78.833,315.489 78.833 C 315.574 78.833,315.697 79.002,315.763 79.208 C 315.828 79.415,316.020 79.705,316.191 79.853 C 316.361 80.001,316.500 80.228,316.500 80.358 C 316.500 80.487,316.650 80.701,316.833 80.833 C 317.017 80.965,317.167 81.202,317.167 81.359 C 317.167 81.516,317.311 81.690,317.487 81.746 C 317.697 81.813,317.843 82.062,317.913 82.477 C 317.971 82.823,318.165 83.212,318.343 83.340 C 318.521 83.469,318.667 83.653,318.667 83.750 C 318.667 83.847,318.817 84.035,319.000 84.167 C 319.183 84.299,319.333 84.540,319.333 84.703 C 319.333 84.867,319.403 85.000,319.489 85.000 C 319.574 85.000,319.697 85.169,319.763 85.375 C 319.828 85.581,320.020 85.871,320.191 86.020 C 320.361 86.168,320.500 86.395,320.500 86.524 C 320.500 86.654,320.650 86.868,320.833 87.000 C 321.017 87.132,321.167 87.309,321.167 87.392 C 321.167 87.476,321.305 87.666,321.473 87.814 C 321.642 87.962,321.831 88.290,321.893 88.542 C 321.955 88.794,322.080 89.000,322.170 89.000 C 322.260 89.000,322.333 89.096,322.333 89.213 C 322.333 89.330,322.483 89.535,322.667 89.667 C 322.850 89.799,323.000 90.013,323.000 90.142 C 323.000 90.272,323.141 90.500,323.314 90.650 C 323.486 90.799,323.656 91.070,323.690 91.252 C 323.748 91.551,323.910 91.588,325.377 91.631 L 327.000 91.679 327.000 82.339 L 327.000 73.000 325.583 73.000 L 324.167 73.000 324.167 79.750 C 324.167 84.139,324.108 86.500,324.000 86.500 C 323.908 86.500,323.833 86.348,323.833 86.161 C 323.833 85.975,323.721 85.780,323.583 85.727 C 323.446 85.674,323.333 85.506,323.333 85.352 C 323.333 85.199,323.183 84.965,323.000 84.833 C 322.817 84.701,322.667 84.476,322.667 84.333 C 322.667 84.190,322.517 83.965,322.333 83.833 C 322.150 83.701,322.000 83.506,322.000 83.400 C 322.000 83.294,321.887 83.114,321.750 83.000 C 321.612 82.886,321.500 82.668,321.500 82.516 C 321.500 82.365,321.350 82.132,321.167 82.000 C 320.983 81.868,320.833 81.680,320.833 81.583 C 320.833 81.486,320.683 81.299,320.500 81.167 C 320.317 81.035,320.167 80.793,320.167 80.630 C 320.167 80.467,320.100 80.333,320.018 80.333 C 319.936 80.333,319.822 80.146,319.765 79.917 C 319.707 79.688,319.587 79.500,319.497 79.500 C 319.407 79.500,319.333 79.367,319.333 79.203 C 319.333 79.040,319.183 78.799,319.000 78.667 C 318.817 78.535,318.667 78.298,318.667 78.141 C 318.667 77.984,318.517 77.808,318.333 77.750 C 318.150 77.692,318.000 77.508,318.000 77.343 C 318.000 77.177,317.887 76.947,317.750 76.833 C 317.612 76.719,317.500 76.523,317.500 76.398 C 317.500 76.272,317.350 76.076,317.167 75.961 C 316.983 75.847,316.833 75.638,316.833 75.497 C 316.833 75.356,316.683 75.132,316.500 75.000 C 316.317 74.868,316.167 74.626,316.167 74.463 C 316.167 74.300,316.097 74.167,316.011 74.167 C 315.926 74.167,315.803 74.001,315.739 73.799 C 315.517 73.099,315.262 73.000,313.679 73.000 L 312.167 73.000 312.167 82.333 M329.167 74.250 L 329.167 75.500 332.250 75.500 L 335.333 75.500 335.333 83.583 L 335.333 91.667 336.667 91.667 L 338.000 91.667 338.000 83.583 L 338.000 75.500 341.083 75.500 L 344.167 75.500 344.167 74.250 L 344.167 73.000 336.667 73.000 L 329.167 73.000 329.167 74.250 M346.000 82.333 L 346.000 91.667 353.083 91.667 L 360.167 91.667 360.167 90.500 L 360.167 89.333 354.667 89.333 L 349.167 89.333 349.167 86.252 L 349.167 83.172 354.208 83.127 L 359.250 83.083 359.299 81.875 L 359.348 80.667 354.257 80.667 L 349.167 80.667 349.167 78.083 L 349.167 75.500 354.500 75.500 L 359.833 75.500 359.833 74.250 L 359.833 73.000 352.917 73.000 L 346.000 73.000 346.000 82.333 M363.000 82.333 L 363.000 91.667 364.500 91.667 L 366.000 91.667 366.000 87.566 L 366.000 83.466 368.111 83.525 C 369.608 83.566,370.242 83.644,370.292 83.792 C 370.330 83.906,370.488 84.000,370.644 84.000 C 370.799 84.000,371.037 84.160,371.172 84.356 C 371.306 84.552,371.585 84.886,371.792 85.099 C 371.998 85.311,372.167 85.547,372.167 85.622 C 372.167 85.698,372.317 85.868,372.500 86.000 C 372.683 86.132,372.833 86.374,372.833 86.537 C 372.833 86.700,372.907 86.833,372.997 86.833 C 373.087 86.833,373.207 87.021,373.265 87.250 C 373.322 87.479,373.436 87.667,373.518 87.667 C 373.600 87.667,373.667 87.800,373.667 87.963 C 373.667 88.126,373.817 88.368,374.000 88.500 C 374.183 88.632,374.333 88.869,374.333 89.026 C 374.333 89.182,374.483 89.358,374.667 89.417 C 374.850 89.475,375.000 89.667,375.000 89.845 C 375.000 90.022,375.075 90.167,375.167 90.167 C 375.258 90.167,375.333 90.311,375.333 90.488 C 375.333 90.665,375.446 90.922,375.583 91.060 C 375.721 91.197,375.833 91.390,375.833 91.488 C 375.833 91.604,376.474 91.667,377.667 91.667 C 379.185 91.667,379.500 91.624,379.500 91.417 C 379.500 91.279,379.433 91.167,379.352 91.167 C 379.270 91.167,379.154 90.902,379.094 90.580 C 379.033 90.257,378.837 89.901,378.658 89.789 C 378.480 89.678,378.333 89.471,378.333 89.330 C 378.333 89.189,378.183 88.965,378.000 88.833 C 377.817 88.701,377.667 88.460,377.667 88.297 C 377.667 88.133,377.600 88.000,377.518 88.000 C 377.436 88.000,377.322 87.813,377.265 87.583 C 377.207 87.354,377.087 87.167,376.997 87.167 C 376.907 87.167,376.833 87.033,376.833 86.870 C 376.833 86.707,376.683 86.465,376.500 86.333 C 376.317 86.201,376.167 86.014,376.167 85.917 C 376.167 85.820,376.017 85.632,375.833 85.500 C 375.650 85.368,375.499 85.145,375.497 85.005 C 375.496 84.865,375.159 84.426,374.748 84.029 C 373.958 83.266,373.984 82.833,374.821 82.833 C 375.011 82.833,375.167 82.758,375.167 82.667 C 375.167 82.575,375.289 82.500,375.439 82.500 C 375.588 82.500,375.833 82.359,375.983 82.186 C 376.132 82.014,376.403 81.844,376.584 81.809 C 376.766 81.774,377.020 81.522,377.150 81.248 C 377.279 80.974,377.448 80.725,377.526 80.694 C 377.603 80.664,377.667 80.420,377.667 80.153 C 377.667 79.885,377.742 79.667,377.833 79.667 C 377.934 79.667,378.000 78.944,378.000 77.833 C 378.000 76.722,377.934 76.000,377.833 76.000 C 377.742 76.000,377.667 75.887,377.667 75.750 C 377.667 75.612,377.592 75.500,377.500 75.500 C 377.408 75.500,377.333 75.362,377.333 75.194 C 377.333 74.798,376.202 73.667,375.806 73.667 C 375.638 73.667,375.500 73.592,375.500 73.500 C 375.500 73.408,375.313 73.333,375.083 73.333 C 374.854 73.333,374.667 73.258,374.667 73.167 C 374.667 73.059,372.611 73.000,368.833 73.000 L 363.000 73.000 363.000 82.333 M180.138 75.757 C 180.646 75.923,181.039 76.187,181.253 76.506 C 181.435 76.777,181.640 76.999,181.708 77.000 C 181.777 77.000,181.833 77.188,181.833 77.417 C 181.833 77.646,181.908 77.833,182.000 77.833 C 182.092 77.833,182.167 77.983,182.167 78.167 C 182.167 78.350,182.092 78.500,182.000 78.500 C 181.908 78.500,181.833 78.690,181.833 78.922 C 181.833 79.382,180.986 80.333,180.578 80.333 C 180.443 80.333,180.333 80.408,180.333 80.500 C 180.333 80.592,179.996 80.667,179.583 80.667 C 179.171 80.667,178.833 80.742,178.833 80.833 C 178.833 80.938,177.750 81.000,175.917 81.000 L 173.000 81.000 173.000 78.250 L 173.000 75.500 176.177 75.500 C 178.586 75.500,179.544 75.562,180.138 75.757 M372.917 75.667 C 372.973 75.758,373.159 75.833,373.330 75.833 C 373.758 75.833,375.000 77.063,375.000 77.487 C 375.000 77.677,375.075 77.833,375.167 77.833 C 375.258 77.833,375.333 77.983,375.333 78.167 C 375.333 78.350,375.258 78.500,375.167 78.500 C 375.075 78.500,375.000 78.706,375.000 78.958 C 374.999 79.282,374.852 79.515,374.500 79.750 C 374.226 79.933,374.001 80.140,374.000 80.208 C 374.000 80.277,373.850 80.333,373.667 80.333 C 373.483 80.333,373.333 80.408,373.333 80.500 C 373.333 80.592,372.996 80.667,372.583 80.667 C 372.171 80.667,371.833 80.742,371.833 80.833 C 371.833 80.938,370.750 81.000,368.917 81.000 L 366.000 81.000 366.000 78.250 L 366.000 75.500 369.407 75.500 C 371.498 75.500,372.853 75.564,372.917 75.667 M241.167 76.667 C 241.167 76.850,241.242 77.000,241.333 77.000 C 241.425 77.000,241.500 77.188,241.500 77.417 C 241.500 77.646,241.575 77.833,241.667 77.833 C 241.758 77.833,241.833 77.983,241.833 78.167 C 241.833 78.350,241.908 78.500,242.000 78.500 C 242.092 78.500,242.167 78.725,242.167 79.000 C 242.167 79.275,242.233 79.500,242.314 79.500 C 242.396 79.500,242.513 79.837,242.575 80.250 C 242.636 80.662,242.757 81.000,242.844 81.000 C 242.930 81.000,243.000 81.188,243.000 81.417 C 243.000 81.646,243.075 81.833,243.167 81.833 C 243.258 81.833,243.333 82.058,243.333 82.333 C 243.333 82.608,243.408 82.833,243.500 82.833 C 243.592 82.833,243.667 82.977,243.667 83.153 C 243.667 83.328,243.760 83.510,243.875 83.556 C 243.990 83.603,242.842 83.646,241.325 83.654 L 238.567 83.667 238.635 83.083 C 238.672 82.762,238.770 82.500,238.852 82.500 C 238.933 82.500,239.000 82.313,239.000 82.083 C 239.000 81.854,239.075 81.667,239.167 81.667 C 239.258 81.667,239.333 81.517,239.333 81.333 C 239.333 81.150,239.408 81.000,239.500 81.000 C 239.592 81.000,239.667 80.775,239.667 80.500 C 239.667 80.225,239.742 80.000,239.833 80.000 C 239.925 80.000,240.000 79.813,240.000 79.583 C 240.000 79.354,240.068 79.167,240.152 79.167 C 240.236 79.167,240.355 78.867,240.417 78.501 C 240.478 78.135,240.597 77.793,240.681 77.741 C 240.765 77.689,240.833 77.351,240.833 76.990 C 240.833 76.629,240.908 76.333,241.000 76.333 C 241.092 76.333,241.167 76.483,241.167 76.667 M90.167 89.399 C 90.167 92.066,90.227 93.649,90.325 93.588 C 90.474 93.496,90.384 85.342,90.232 85.181 C 90.196 85.142,90.167 87.041,90.167 89.399 M64.680 87.194 C 64.673 87.347,64.583 87.500,64.481 87.534 C 64.379 87.568,64.330 87.743,64.371 87.923 C 64.437 88.205,64.475 88.183,64.646 87.766 C 64.755 87.500,64.810 87.200,64.769 87.100 C 64.727 86.999,64.687 87.042,64.680 87.194 M62.340 90.444 C 62.023 90.750,61.840 91.000,61.934 91.000 C 62.129 91.000,63.096 90.033,62.988 89.946 C 62.949 89.914,62.657 90.138,62.340 90.444 M60.868 91.590 C 60.593 91.903,60.821 91.895,61.240 91.578 C 61.468 91.406,61.492 91.335,61.324 91.340 C 61.191 91.343,60.987 91.456,60.868 91.590 M85.625 93.957 C 86.290 93.989,87.377 93.989,88.042 93.957 C 88.706 93.925,88.162 93.900,86.833 93.900 C 85.504 93.900,84.960 93.925,85.625 93.957 " stroke="none" fill="#040404" fill-rule="evenodd"></path><path id="path4" d="M65.632 6.957 C 66.208 6.990,67.108 6.989,67.632 6.956 C 68.155 6.923,67.683 6.897,66.583 6.897 C 65.483 6.897,65.055 6.924,65.632 6.957 M62.208 7.119 C 62.460 7.158,62.873 7.158,63.125 7.119 C 63.377 7.081,63.171 7.050,62.667 7.050 C 62.163 7.050,61.956 7.081,62.208 7.119 M70.042 7.119 C 70.294 7.158,70.706 7.158,70.958 7.119 C 71.210 7.081,71.004 7.050,70.500 7.050 C 69.996 7.050,69.790 7.081,70.042 7.119 M55.083 8.167 C 54.873 8.257,54.842 8.310,55.000 8.310 C 55.137 8.310,55.400 8.245,55.583 8.167 C 55.793 8.076,55.824 8.023,55.667 8.023 C 55.529 8.023,55.267 8.088,55.083 8.167 M77.583 8.167 C 77.767 8.245,78.029 8.310,78.167 8.310 C 78.324 8.310,78.293 8.257,78.083 8.167 C 77.900 8.088,77.637 8.023,77.500 8.023 C 77.342 8.023,77.373 8.076,77.583 8.167 M32.406 19.875 L 31.917 20.417 32.458 19.927 C 32.756 19.658,33.000 19.414,33.000 19.385 C 33.000 19.257,32.862 19.370,32.406 19.875 M102.833 21.917 C 103.701 22.787,104.448 23.500,104.493 23.500 C 104.539 23.500,103.867 22.787,103.000 21.917 C 102.133 21.046,101.386 20.333,101.340 20.333 C 101.294 20.333,101.966 21.046,102.833 21.917 M30.167 21.917 C 29.484 22.604,28.963 23.167,29.008 23.167 C 29.054 23.167,29.650 22.604,30.333 21.917 C 31.016 21.229,31.537 20.667,31.492 20.667 C 31.446 20.667,30.850 21.229,30.167 21.917 M58.035 22.789 C 56.342 22.839,55.426 23.148,56.885 23.177 C 57.380 23.188,57.356 23.212,56.542 23.533 C 55.767 23.839,55.667 23.933,55.667 24.361 C 55.667 24.669,55.561 24.883,55.375 24.951 C 55.215 25.010,54.552 25.496,53.902 26.029 C 53.252 26.563,52.663 27.000,52.593 27.000 C 52.473 27.000,51.980 27.371,51.011 28.187 C 50.346 28.748,48.679 29.891,47.965 30.276 C 47.599 30.473,47.044 30.881,46.733 31.183 C 46.231 31.670,46.085 31.698,46.145 31.298 C 46.212 30.849,45.635 31.500,45.490 32.036 C 45.380 32.445,45.192 32.735,45.004 32.784 C 44.835 32.828,44.656 33.023,44.605 33.216 C 44.489 33.660,44.352 33.532,44.269 32.903 C 44.191 32.308,43.998 31.814,43.744 31.556 C 43.537 31.346,43.334 36.439,43.334 41.876 L 43.333 44.669 54.375 44.626 L 65.417 44.583 65.417 33.667 L 65.417 22.750 62.667 22.742 C 61.154 22.738,59.070 22.759,58.035 22.789 M104.833 24.052 C 104.833 24.081,105.077 24.325,105.375 24.594 L 105.917 25.083 105.427 24.542 C 104.971 24.037,104.833 23.923,104.833 24.052 M65.225 26.192 C 65.285 27.031,65.333 31.494,65.333 36.109 L 65.333 44.500 54.392 44.500 L 43.452 44.500 43.544 42.875 C 43.656 40.926,43.681 40.853,44.426 40.369 C 44.749 40.160,45.093 39.812,45.191 39.596 C 45.290 39.380,45.531 39.121,45.727 39.020 C 45.923 38.918,46.196 38.764,46.333 38.676 C 46.471 38.588,46.883 38.387,47.250 38.230 C 48.030 37.897,48.667 37.368,48.667 37.054 C 48.667 36.933,48.749 36.833,48.850 36.833 C 49.461 36.833,51.256 35.612,51.075 35.319 C 50.969 35.148,51.665 34.667,52.018 34.667 C 52.170 34.667,52.334 34.517,52.382 34.334 C 52.429 34.151,52.610 33.944,52.783 33.875 C 53.303 33.668,54.660 32.785,55.309 32.230 C 55.643 31.945,56.084 31.659,56.288 31.595 C 56.493 31.532,56.781 31.278,56.929 31.032 C 57.077 30.785,57.574 30.396,58.033 30.167 C 58.617 29.875,58.980 29.549,59.241 29.083 C 59.445 28.717,59.756 28.393,59.931 28.364 C 60.107 28.335,60.486 28.203,60.775 28.072 C 61.064 27.941,61.368 27.833,61.451 27.833 C 61.534 27.833,61.888 27.571,62.238 27.250 C 62.589 26.929,62.960 26.665,63.063 26.662 C 63.166 26.660,63.434 26.360,63.658 25.996 C 63.891 25.619,64.177 25.352,64.323 25.375 C 64.465 25.398,64.655 25.248,64.746 25.042 C 65.028 24.406,65.113 24.610,65.225 26.192 M24.833 28.167 C 24.638 28.442,24.515 28.667,24.561 28.667 C 24.606 28.667,24.804 28.442,25.000 28.167 C 25.196 27.892,25.319 27.667,25.273 27.667 C 25.227 27.667,25.029 27.892,24.833 28.167 M113.345 36.917 C 113.345 37.008,113.452 37.271,113.583 37.500 C 113.714 37.729,113.822 37.842,113.822 37.750 C 113.822 37.658,113.714 37.396,113.583 37.167 C 113.452 36.938,113.345 36.825,113.345 36.917 M58.500 47.210 C 56.254 47.279,52.033 47.354,49.119 47.376 C 44.623 47.411,43.797 47.454,43.661 47.667 C 43.567 47.813,43.505 49.853,43.513 52.583 C 43.520 55.150,43.471 59.890,43.405 63.116 L 43.285 68.982 43.684 69.080 C 44.431 69.265,65.137 69.097,65.329 68.905 C 65.641 68.592,65.483 47.362,65.167 47.166 C 65.029 47.080,64.392 47.026,63.750 47.047 C 63.108 47.067,60.746 47.140,58.500 47.210 M15.372 52.833 C 15.372 53.154,15.406 53.285,15.448 53.125 C 15.490 52.965,15.490 52.702,15.448 52.542 C 15.406 52.381,15.372 52.512,15.372 52.833 M117.833 54.083 C 117.833 54.404,117.908 54.667,118.000 54.667 C 118.092 54.667,118.167 54.404,118.167 54.083 C 118.167 53.762,118.092 53.500,118.000 53.500 C 117.908 53.500,117.833 53.762,117.833 54.083 M14.838 54.667 C 14.838 55.079,14.883 55.585,14.938 55.790 C 15.120 56.468,15.334 55.997,15.320 54.948 C 15.313 54.381,15.266 54.019,15.217 54.144 C 15.140 54.336,15.104 54.336,14.982 54.144 C 14.889 53.997,14.838 54.181,14.838 54.667 M14.940 61.083 C 14.881 61.236,14.839 61.711,14.846 62.139 C 14.854 62.567,14.900 62.814,14.950 62.689 C 15.026 62.498,15.063 62.498,15.184 62.689 C 15.276 62.835,15.328 62.615,15.328 62.083 C 15.328 61.152,15.120 60.614,14.940 61.083 M117.833 62.750 C 117.833 63.071,117.908 63.333,118.000 63.333 C 118.092 63.333,118.167 63.071,118.167 62.750 C 118.167 62.429,118.092 62.167,118.000 62.167 C 117.908 62.167,117.833 62.429,117.833 62.750 M15.375 63.917 C 15.377 64.283,15.411 64.414,15.451 64.206 C 15.491 63.999,15.490 63.699,15.448 63.540 C 15.406 63.380,15.374 63.550,15.375 63.917 M28.000 92.552 C 28.000 92.581,28.244 92.825,28.542 93.094 L 29.083 93.583 28.594 93.042 C 28.138 92.537,28.000 92.423,28.000 92.552 M102.911 94.875 L 101.917 95.917 102.958 94.922 C 103.531 94.375,104.000 93.906,104.000 93.880 C 104.000 93.757,103.836 93.907,102.911 94.875 M31.833 96.417 C 32.144 96.737,32.436 97.000,32.482 97.000 C 32.528 97.000,32.311 96.737,32.000 96.417 C 31.689 96.096,31.397 95.833,31.351 95.833 C 31.305 95.833,31.522 96.096,31.833 96.417 M74.500 109.333 C 74.500 109.425,74.612 109.500,74.750 109.500 C 74.887 109.500,75.000 109.425,75.000 109.333 C 75.000 109.242,74.887 109.167,74.750 109.167 C 74.612 109.167,74.500 109.242,74.500 109.333 " stroke="none" fill="#1469b5" fill-rule="evenodd"></path></g></svg>