<svg id="svg" version="1.1" xmlns="http://www.w3.org/2000/svg" xmlns:xlink="http://www.w3.org/1999/xlink" width="400" height="95.09803921568627" viewBox="0, 0, 400,95.09803921568627"><g id="svgg"><path id="path0" d="M15.167 24.764 C 15.167 39.967,15.209 43.847,15.375 43.792 C 15.500 43.751,15.625 43.262,15.688 42.563 C 16.851 29.711,25.940 16.826,38.185 10.671 C 41.805 8.852,44.004 8.088,48.750 6.999 C 63.026 3.724,79.623 9.738,89.234 21.667 C 94.014 27.601,98.167 37.585,98.167 43.146 C 98.167 43.249,98.242 43.333,98.333 43.333 C 98.443 43.333,98.500 36.944,98.500 24.500 L 98.500 5.667 56.833 5.667 L 15.167 5.667 15.167 24.764 M54.875 36.282 C 55.035 36.323,55.298 36.323,55.458 36.282 C 55.619 36.240,55.487 36.205,55.167 36.205 C 54.846 36.205,54.715 36.240,54.875 36.282 M15.167 70.250 L 15.167 89.000 32.583 89.000 C 50.827 89.000,51.987 88.952,48.417 88.339 C 47.154 88.122,46.996 88.082,44.750 87.406 C 29.628 82.852,17.709 69.015,15.831 53.833 C 15.228 48.957,15.167 50.481,15.167 70.250 M98.166 52.375 C 98.160 53.556,97.363 57.416,96.609 59.917 C 92.811 72.504,82.504 83.057,70.083 87.074 C 67.830 87.803,67.224 87.967,65.744 88.254 C 63.836 88.623,63.833 88.624,63.833 88.828 C 63.833 88.945,69.371 89.000,81.167 89.000 L 98.500 89.000 98.500 70.583 C 98.500 58.417,98.443 52.167,98.333 52.167 C 98.242 52.167,98.166 52.260,98.166 52.375 " stroke="none" fill="#eee3d1" fill-rule="evenodd"></path><path id="path1" d="M55.000 6.448 C 53.604 6.513,49.779 6.961,48.917 7.160 C 45.370 7.979,42.630 8.830,40.500 9.774 C 39.451 10.239,36.752 11.567,36.667 11.659 C 36.586 11.747,36.465 11.819,35.185 12.535 C 33.778 13.323,31.008 15.427,29.047 17.197 C 21.353 24.139,16.385 34.273,15.723 44.373 C 15.655 45.406,15.531 46.112,15.391 46.252 C 15.124 46.519,15.064 49.417,15.328 49.253 C 15.534 49.126,15.624 49.569,15.748 51.333 C 16.512 62.201,22.796 73.786,31.427 80.239 C 34.150 82.275,34.432 82.475,35.083 82.836 C 35.450 83.039,35.938 83.334,36.167 83.491 C 36.538 83.745,39.448 85.188,41.000 85.887 C 42.958 86.770,47.600 88.096,49.875 88.424 C 50.384 88.497,50.667 88.620,50.667 88.769 C 50.667 88.962,51.700 89.000,56.917 89.000 C 62.081 89.000,63.167 88.961,63.167 88.773 C 63.167 88.619,63.569 88.481,64.407 88.346 C 66.744 87.969,70.361 86.912,72.917 85.859 C 74.578 85.175,77.913 83.374,77.871 83.184 C 77.846 83.069,77.897 83.020,77.985 83.074 C 78.517 83.403,83.067 79.957,86.100 76.930 C 90.061 72.975,93.095 68.480,95.055 63.665 C 95.222 63.254,95.428 62.748,95.513 62.542 C 95.869 61.673,95.978 61.371,96.249 60.500 C 97.151 57.605,97.733 54.764,97.988 52.008 C 98.062 51.206,98.200 50.572,98.309 50.536 C 98.625 50.431,98.570 45.213,98.250 44.893 C 98.083 44.726,98.000 44.310,98.000 43.645 C 98.000 43.097,97.931 42.333,97.846 41.949 C 97.762 41.564,97.601 40.688,97.489 40.000 C 97.308 38.889,97.150 38.198,96.670 36.417 C 96.447 35.591,95.975 34.111,95.793 33.667 C 95.699 33.438,95.547 33.063,95.455 32.833 C 95.364 32.604,95.228 32.267,95.154 32.083 C 92.075 24.494,86.764 18.022,79.776 13.343 C 78.120 12.234,77.544 11.893,75.583 10.860 C 72.189 9.073,66.909 7.408,62.833 6.839 C 61.407 6.640,57.125 6.321,56.500 6.367 C 56.271 6.384,55.596 6.420,55.000 6.448 M56.026 27.750 L 55.969 36.583 54.026 36.686 C 50.301 36.882,38.415 36.849,38.208 36.641 C 38.037 36.470,38.072 19.667,38.245 19.078 C 38.279 18.962,41.202 18.907,47.189 18.911 L 56.083 18.917 56.026 27.750 M55.917 47.417 L 55.917 56.250 47.025 56.293 L 38.133 56.336 38.254 47.626 C 38.320 42.836,38.393 38.895,38.416 38.868 C 38.440 38.841,41.449 38.777,45.104 38.726 C 48.759 38.676,51.783 38.602,51.824 38.562 C 51.865 38.523,52.803 38.511,53.908 38.537 L 55.917 38.583 55.917 47.417 M68.848 38.819 C 71.811 39.583,74.301 41.960,75.270 44.951 C 75.658 46.144,75.822 55.830,75.460 56.130 C 75.269 56.289,73.238 56.327,66.564 56.293 L 57.917 56.250 57.833 47.667 C 57.787 42.946,57.809 38.952,57.881 38.792 C 58.087 38.333,67.050 38.355,68.848 38.819 M75.432 58.219 C 75.513 58.331,75.640 75.542,75.562 75.746 C 75.415 76.128,65.932 76.121,64.451 75.737 C 61.397 74.946,59.018 72.575,58.025 69.333 C 57.890 68.893,57.734 60.383,57.824 58.385 C 57.836 58.124,75.245 57.959,75.432 58.219 M55.927 58.564 C 56.219 59.731,55.899 68.910,55.531 69.903 C 54.547 72.558,52.440 74.637,49.833 75.525 C 48.825 75.869,48.385 75.899,43.458 75.961 L 38.167 76.028 38.167 67.097 L 38.167 58.167 46.997 58.167 L 55.827 58.167 55.927 58.564 M76.142 74.625 L 76.118 76.083 75.954 74.886 C 75.804 73.792,75.849 73.167,76.078 73.167 C 76.127 73.167,76.156 73.823,76.142 74.625 " stroke="none" fill="#2a215a" fill-rule="evenodd"></path><path id="path2" d="M57.881 38.792 C 57.809 38.952,57.787 42.946,57.833 47.667 L 57.917 56.250 66.564 56.293 C 73.238 56.327,75.269 56.289,75.460 56.130 C 75.822 55.830,75.658 46.144,75.270 44.951 C 74.301 41.960,71.811 39.583,68.848 38.819 C 67.050 38.355,58.087 38.333,57.881 38.792 M58.458 58.135 C 58.115 58.164,57.829 58.276,57.824 58.385 C 57.734 60.383,57.890 68.893,58.025 69.333 C 59.018 72.575,61.397 74.946,64.451 75.737 C 65.932 76.121,75.415 76.128,75.562 75.746 C 75.640 75.542,75.513 58.331,75.432 58.219 C 75.391 58.162,59.100 58.082,58.458 58.135 M38.278 58.278 C 38.025 58.531,38.153 75.615,38.410 75.828 C 38.890 76.226,48.523 75.970,49.833 75.524 C 52.439 74.638,54.547 72.559,55.531 69.903 C 55.899 68.910,56.219 59.731,55.927 58.564 L 55.827 58.167 47.108 58.167 C 42.312 58.167,38.339 58.217,38.278 58.278 " stroke="none" fill="#dc083e" fill-rule="evenodd"></path><path id="path3" d="M155.167 19.642 C 155.167 19.720,154.437 19.828,153.545 19.881 C 152.630 19.936,151.898 20.055,151.865 20.156 C 151.832 20.253,151.587 20.333,151.319 20.333 C 151.052 20.333,150.833 20.408,150.833 20.500 C 150.833 20.592,150.683 20.667,150.500 20.667 C 150.317 20.667,150.167 20.742,150.167 20.833 C 150.167 20.925,150.033 21.000,149.870 21.000 C 149.707 21.000,149.465 21.150,149.333 21.333 C 149.201 21.517,148.996 21.667,148.877 21.667 C 148.543 21.667,146.237 24.052,145.915 24.730 C 145.758 25.062,145.562 25.333,145.481 25.333 C 145.400 25.333,145.333 25.483,145.333 25.667 C 145.333 25.850,145.258 26.000,145.167 26.000 C 145.075 26.000,145.000 26.225,145.000 26.500 C 145.000 26.775,144.925 27.000,144.833 27.000 C 144.742 27.000,144.667 27.150,144.667 27.333 C 144.667 27.517,144.592 27.667,144.500 27.667 C 144.408 27.667,144.333 27.887,144.333 28.157 C 144.333 28.426,144.258 28.693,144.167 28.750 C 144.075 28.807,144.000 29.144,144.000 29.500 C 144.000 29.856,143.925 30.193,143.833 30.250 C 143.733 30.312,143.667 31.474,143.667 33.177 C 143.667 34.948,143.729 36.000,143.833 36.000 C 143.925 36.000,144.000 36.375,144.000 36.833 C 144.000 37.292,144.075 37.667,144.167 37.667 C 144.258 37.667,144.333 37.892,144.333 38.167 C 144.333 38.442,144.408 38.667,144.500 38.667 C 144.592 38.667,144.667 38.817,144.667 39.000 C 144.667 39.183,144.742 39.333,144.833 39.333 C 144.925 39.333,145.000 39.542,145.000 39.797 C 145.000 40.069,145.138 40.359,145.333 40.500 C 145.517 40.632,145.667 40.874,145.667 41.037 C 145.667 41.200,145.742 41.333,145.833 41.333 C 145.925 41.333,146.000 41.470,146.000 41.638 C 146.000 41.974,148.544 44.500,148.882 44.500 C 148.998 44.500,149.201 44.650,149.333 44.833 C 149.465 45.017,149.707 45.167,149.870 45.167 C 150.033 45.167,150.167 45.242,150.167 45.333 C 150.167 45.425,150.317 45.500,150.500 45.500 C 150.683 45.500,150.833 45.575,150.833 45.667 C 150.833 45.758,151.058 45.833,151.333 45.833 C 151.608 45.833,151.833 45.908,151.833 46.000 C 151.833 46.092,152.058 46.167,152.333 46.167 C 152.608 46.167,152.833 46.242,152.833 46.333 C 152.833 46.425,153.208 46.500,153.667 46.500 C 154.125 46.500,154.500 46.575,154.500 46.667 C 154.500 46.767,155.191 46.833,156.240 46.833 C 157.220 46.833,158.025 46.761,158.083 46.667 C 158.140 46.575,158.519 46.500,158.927 46.500 C 159.334 46.500,159.667 46.425,159.667 46.333 C 159.667 46.242,159.892 46.167,160.167 46.167 C 160.442 46.167,160.667 46.092,160.667 46.000 C 160.667 45.908,160.892 45.833,161.167 45.833 C 161.442 45.833,161.667 45.772,161.667 45.698 C 161.667 45.623,161.929 45.459,162.250 45.333 C 162.571 45.207,162.833 45.043,162.833 44.969 C 162.833 44.894,162.952 44.833,163.096 44.833 C 163.241 44.833,163.648 44.533,164.000 44.167 C 164.352 43.800,164.727 43.500,164.832 43.500 C 165.039 43.500,165.500 43.094,165.500 42.912 C 165.500 42.851,165.725 42.590,166.000 42.333 C 166.275 42.076,166.500 41.763,166.500 41.637 C 166.500 41.510,166.650 41.299,166.833 41.167 C 167.017 41.035,167.167 40.793,167.167 40.630 C 167.167 40.467,167.242 40.333,167.333 40.333 C 167.425 40.333,167.500 40.188,167.500 40.010 C 167.500 39.832,167.575 39.640,167.667 39.583 C 167.758 39.527,167.833 39.297,167.833 39.073 C 167.833 38.850,167.908 38.667,168.000 38.667 C 168.092 38.667,168.167 38.446,168.167 38.177 C 168.167 37.907,168.242 37.640,168.333 37.583 C 168.425 37.527,168.500 37.152,168.500 36.750 C 168.500 36.348,168.575 35.973,168.667 35.917 C 168.766 35.855,168.833 34.748,168.833 33.157 C 168.833 31.497,168.771 30.500,168.667 30.500 C 168.575 30.500,168.500 30.125,168.500 29.667 C 168.500 29.208,168.425 28.833,168.333 28.833 C 168.242 28.833,168.167 28.571,168.167 28.250 C 168.167 27.929,168.092 27.667,168.000 27.667 C 167.908 27.667,167.833 27.517,167.833 27.333 C 167.833 27.150,167.758 27.000,167.667 27.000 C 167.575 27.000,167.500 26.792,167.500 26.537 C 167.500 26.265,167.362 25.974,167.167 25.833 C 166.983 25.701,166.833 25.460,166.833 25.297 C 166.833 25.133,166.758 25.000,166.667 25.000 C 166.575 25.000,166.500 24.886,166.500 24.748 C 166.500 24.441,163.759 21.667,163.456 21.667 C 163.337 21.667,163.132 21.517,163.000 21.333 C 162.868 21.150,162.626 21.000,162.463 21.000 C 162.300 21.000,162.167 20.943,162.167 20.874 C 162.167 20.751,161.867 20.613,160.667 20.181 C 160.346 20.066,159.390 19.930,158.542 19.880 C 157.694 19.829,157.000 19.723,157.000 19.644 C 157.000 19.565,156.587 19.500,156.083 19.500 C 155.579 19.500,155.167 19.564,155.167 19.642 M225.583 19.667 C 225.527 19.758,224.904 19.837,224.198 19.841 C 223.493 19.845,222.579 19.924,222.167 20.018 C 221.754 20.111,221.210 20.229,220.958 20.279 C 220.706 20.330,220.500 20.438,220.500 20.519 C 220.500 20.600,220.350 20.667,220.167 20.667 C 219.983 20.667,219.833 20.742,219.833 20.833 C 219.833 20.925,219.683 21.000,219.500 21.000 C 219.317 21.000,219.167 21.075,219.167 21.167 C 219.167 21.258,219.033 21.333,218.870 21.333 C 218.707 21.333,218.465 21.483,218.333 21.667 C 218.201 21.850,217.996 22.000,217.876 22.000 C 217.594 22.000,215.833 23.761,215.833 24.043 C 215.833 24.162,215.683 24.368,215.500 24.500 C 215.317 24.632,215.167 24.874,215.167 25.037 C 215.167 25.200,215.092 25.333,215.000 25.333 C 214.908 25.333,214.833 25.483,214.833 25.667 C 214.833 25.850,214.758 26.000,214.667 26.000 C 214.575 26.000,214.500 26.150,214.500 26.333 C 214.500 26.517,214.425 26.667,214.333 26.667 C 214.242 26.667,214.167 26.817,214.167 27.000 C 214.167 27.183,214.092 27.333,214.000 27.333 C 213.908 27.333,213.833 27.516,213.833 27.740 C 213.833 27.964,213.758 28.193,213.667 28.250 C 213.575 28.307,213.500 28.607,213.500 28.917 C 213.500 29.227,213.435 29.520,213.357 29.569 C 212.844 29.886,212.844 37.000,213.356 37.000 C 213.435 37.000,213.500 37.258,213.500 37.573 C 213.500 37.889,213.575 38.193,213.667 38.250 C 213.758 38.307,213.833 38.499,213.833 38.677 C 213.833 38.854,213.908 39.000,214.000 39.000 C 214.092 39.000,214.167 39.225,214.167 39.500 C 214.167 39.775,214.242 40.000,214.333 40.000 C 214.425 40.000,214.500 40.133,214.500 40.297 C 214.500 40.460,214.650 40.701,214.833 40.833 C 215.017 40.965,215.167 41.207,215.167 41.370 C 215.167 41.533,215.242 41.667,215.333 41.667 C 215.425 41.667,215.500 41.741,215.500 41.831 C 215.500 42.021,215.932 42.578,216.417 43.014 C 217.348 43.852,217.769 44.166,217.958 44.166 C 218.073 44.167,218.167 44.242,218.167 44.333 C 218.167 44.425,218.300 44.500,218.463 44.500 C 218.626 44.500,218.868 44.650,219.000 44.833 C 219.132 45.017,219.374 45.167,219.537 45.167 C 219.700 45.167,219.833 45.242,219.833 45.333 C 219.833 45.425,219.983 45.500,220.167 45.500 C 220.350 45.500,220.500 45.575,220.500 45.667 C 220.500 45.758,220.683 45.833,220.907 45.833 C 221.131 45.833,221.360 45.908,221.417 46.000 C 221.473 46.092,221.698 46.167,221.917 46.167 C 222.135 46.167,222.360 46.242,222.417 46.333 C 222.473 46.425,222.928 46.500,223.427 46.500 C 223.925 46.500,224.333 46.575,224.333 46.667 C 224.333 46.768,225.080 46.833,226.240 46.833 C 227.332 46.833,228.191 46.762,228.250 46.667 C 228.307 46.575,228.761 46.500,229.260 46.500 C 229.759 46.500,230.167 46.425,230.167 46.333 C 230.167 46.242,230.425 46.167,230.740 46.167 C 231.056 46.167,231.360 46.092,231.417 46.000 C 231.473 45.908,231.698 45.833,231.917 45.833 C 232.135 45.833,232.360 45.758,232.417 45.667 C 232.473 45.575,232.665 45.500,232.843 45.500 C 233.021 45.500,233.167 45.425,233.167 45.333 C 233.167 45.242,233.317 45.167,233.500 45.167 C 233.683 45.167,233.833 45.092,233.833 45.000 C 233.833 44.908,233.983 44.833,234.167 44.833 C 234.350 44.833,234.500 44.758,234.500 44.667 C 234.500 44.575,234.598 44.500,234.719 44.500 C 234.839 44.500,235.098 44.350,235.295 44.167 C 235.492 43.983,235.734 43.833,235.834 43.833 C 235.933 43.833,236.217 43.646,236.464 43.417 C 236.711 43.187,236.998 43.000,237.102 43.000 C 237.473 43.000,237.730 34.123,237.395 32.875 L 237.294 32.500 231.647 32.500 L 226.000 32.500 226.000 34.417 L 226.000 36.333 229.750 36.333 L 233.500 36.333 233.500 38.429 C 233.500 40.594,233.383 41.000,232.762 41.000 C 232.618 41.000,232.500 41.075,232.500 41.167 C 232.500 41.258,232.367 41.333,232.203 41.333 C 232.040 41.333,231.799 41.483,231.667 41.667 C 231.526 41.862,231.235 42.000,230.963 42.000 C 230.708 42.000,230.500 42.075,230.500 42.167 C 230.500 42.258,230.350 42.333,230.167 42.333 C 229.983 42.333,229.833 42.408,229.833 42.500 C 229.833 42.592,229.571 42.667,229.250 42.667 C 228.929 42.667,228.667 42.742,228.667 42.833 C 228.667 42.937,227.778 43.000,226.333 43.000 C 224.889 43.000,224.000 42.937,224.000 42.833 C 224.000 42.742,223.700 42.667,223.333 42.667 C 222.967 42.667,222.667 42.592,222.667 42.500 C 222.667 42.408,222.517 42.333,222.333 42.333 C 222.150 42.333,222.000 42.258,222.000 42.167 C 222.000 42.075,221.850 42.000,221.667 42.000 C 221.483 42.000,221.333 41.925,221.333 41.833 C 221.333 41.742,221.183 41.667,221.000 41.667 C 220.817 41.667,220.666 41.610,220.664 41.542 C 220.663 41.473,220.251 40.987,219.748 40.462 C 219.245 39.937,218.833 39.410,218.833 39.290 C 218.833 39.171,218.683 38.965,218.500 38.833 C 218.317 38.701,218.167 38.427,218.167 38.223 C 218.167 38.020,218.092 37.807,218.000 37.750 C 217.908 37.693,217.833 37.464,217.833 37.240 C 217.833 37.016,217.758 36.833,217.667 36.833 C 217.575 36.833,217.500 36.500,217.500 36.093 C 217.500 35.686,217.425 35.307,217.333 35.250 C 217.236 35.190,217.167 34.248,217.167 32.990 C 217.167 31.663,217.231 30.833,217.333 30.833 C 217.425 30.833,217.500 30.533,217.500 30.167 C 217.500 29.800,217.575 29.500,217.667 29.500 C 217.758 29.500,217.833 29.275,217.833 29.000 C 217.833 28.725,217.908 28.500,218.000 28.500 C 218.092 28.500,218.167 28.350,218.167 28.167 C 218.167 27.983,218.242 27.833,218.333 27.833 C 218.425 27.833,218.500 27.683,218.500 27.500 C 218.500 27.317,218.575 27.167,218.667 27.167 C 218.758 27.167,218.833 27.054,218.833 26.917 C 218.833 26.779,218.896 26.667,218.972 26.667 C 219.048 26.667,219.217 26.460,219.347 26.208 C 219.611 25.697,219.919 25.333,220.088 25.333 C 220.149 25.333,220.410 25.108,220.667 24.833 C 220.924 24.558,221.254 24.333,221.400 24.333 C 221.547 24.333,221.667 24.258,221.667 24.167 C 221.667 24.075,221.817 24.000,222.000 24.000 C 222.183 24.000,222.333 23.925,222.333 23.833 C 222.333 23.742,222.558 23.667,222.833 23.667 C 223.108 23.667,223.333 23.592,223.333 23.500 C 223.333 23.405,223.833 23.333,224.500 23.333 C 225.167 23.333,225.667 23.262,225.667 23.167 C 225.667 23.075,225.892 23.000,226.167 23.000 C 226.442 23.000,226.667 23.075,226.667 23.167 C 226.667 23.259,227.111 23.333,227.667 23.333 C 228.222 23.333,228.667 23.407,228.667 23.500 C 228.667 23.592,228.802 23.667,228.967 23.667 C 229.339 23.667,230.164 24.039,230.165 24.208 C 230.166 24.277,230.281 24.333,230.421 24.333 C 230.814 24.333,232.036 25.656,232.500 26.584 C 232.729 27.042,232.973 27.442,233.042 27.472 C 233.110 27.503,233.167 27.747,233.167 28.014 C 233.167 28.486,233.190 28.500,234.000 28.500 C 234.458 28.500,234.833 28.425,234.833 28.333 C 234.833 28.242,235.133 28.167,235.500 28.167 C 235.867 28.167,236.167 28.092,236.167 28.000 C 236.167 27.908,236.392 27.833,236.667 27.833 C 237.089 27.833,237.167 27.769,237.167 27.417 C 237.167 27.188,237.092 27.000,237.000 27.000 C 236.908 27.000,236.833 26.775,236.833 26.500 C 236.833 26.225,236.758 26.000,236.667 26.000 C 236.575 26.000,236.500 25.817,236.500 25.593 C 236.500 25.369,236.425 25.140,236.333 25.083 C 236.242 25.027,236.167 24.835,236.167 24.657 C 236.167 24.479,236.097 24.333,236.011 24.333 C 235.926 24.333,235.808 24.181,235.748 23.995 C 235.600 23.529,233.409 21.333,233.091 21.333 C 232.949 21.333,232.833 21.258,232.833 21.167 C 232.833 21.075,232.683 21.000,232.500 21.000 C 232.317 21.000,232.167 20.925,232.167 20.833 C 232.167 20.742,232.017 20.667,231.833 20.667 C 231.650 20.667,231.500 20.610,231.500 20.541 C 231.500 20.286,230.042 19.958,228.537 19.874 C 227.687 19.826,226.951 19.723,226.902 19.644 C 226.779 19.444,225.709 19.463,225.583 19.667 M278.333 19.667 C 278.333 19.760,277.872 19.835,277.292 19.837 C 276.719 19.839,275.950 19.921,275.583 20.018 C 275.217 20.115,274.710 20.234,274.458 20.283 C 274.206 20.331,274.000 20.438,274.000 20.519 C 274.000 20.600,273.850 20.667,273.667 20.667 C 273.483 20.667,273.333 20.742,273.333 20.833 C 273.333 20.925,273.183 21.000,273.000 21.000 C 272.817 21.000,272.667 21.075,272.667 21.167 C 272.667 21.258,272.560 21.333,272.429 21.333 C 272.179 21.333,270.833 22.620,270.833 22.860 C 270.833 22.937,270.718 23.000,270.578 23.000 C 270.438 23.000,270.274 23.131,270.213 23.292 C 270.153 23.452,269.893 23.782,269.635 24.025 C 269.378 24.268,269.167 24.570,269.167 24.697 C 269.167 24.823,269.017 25.035,268.833 25.167 C 268.650 25.299,268.500 25.540,268.500 25.703 C 268.500 25.867,268.425 26.000,268.333 26.000 C 268.242 26.000,268.167 26.150,268.167 26.333 C 268.167 26.517,268.092 26.667,268.000 26.667 C 267.908 26.667,267.833 26.892,267.833 27.167 C 267.833 27.442,267.758 27.667,267.667 27.667 C 267.575 27.667,267.500 27.854,267.500 28.083 C 267.500 28.313,267.425 28.500,267.333 28.500 C 267.242 28.500,267.167 28.833,267.167 29.240 C 267.167 29.647,267.092 30.027,267.000 30.083 C 266.899 30.146,266.833 31.391,266.833 33.260 C 266.833 35.198,266.895 36.333,267.000 36.333 C 267.092 36.333,267.167 36.633,267.167 37.000 C 267.167 37.367,267.242 37.667,267.333 37.667 C 267.425 37.667,267.500 37.892,267.500 38.167 C 267.500 38.442,267.575 38.667,267.667 38.667 C 267.758 38.667,267.833 38.892,267.833 39.167 C 267.833 39.442,267.908 39.667,268.000 39.667 C 268.092 39.667,268.167 39.817,268.167 40.000 C 268.167 40.183,268.242 40.333,268.333 40.333 C 268.425 40.333,268.500 40.467,268.500 40.630 C 268.500 40.793,268.650 41.035,268.833 41.167 C 269.017 41.299,269.167 41.510,269.167 41.637 C 269.167 41.763,269.392 42.076,269.667 42.333 C 269.942 42.590,270.167 42.883,270.167 42.984 C 270.167 43.084,270.245 43.167,270.340 43.167 C 270.435 43.167,270.807 43.467,271.167 43.833 C 271.526 44.200,271.898 44.500,271.993 44.500 C 272.089 44.500,272.167 44.575,272.167 44.667 C 272.167 44.758,272.279 44.833,272.417 44.833 C 272.554 44.833,272.667 44.908,272.667 45.000 C 272.667 45.092,272.817 45.167,273.000 45.167 C 273.183 45.167,273.333 45.242,273.333 45.333 C 273.333 45.425,273.483 45.500,273.667 45.500 C 273.850 45.500,274.000 45.575,274.000 45.667 C 274.000 45.758,274.150 45.833,274.333 45.833 C 274.517 45.833,274.667 45.908,274.667 46.000 C 274.667 46.092,274.892 46.167,275.167 46.167 C 275.442 46.167,275.667 46.242,275.667 46.333 C 275.667 46.426,276.111 46.500,276.667 46.500 C 277.222 46.500,277.667 46.574,277.667 46.667 C 277.667 46.767,278.361 46.833,279.417 46.833 C 280.472 46.833,281.167 46.767,281.167 46.667 C 281.167 46.575,281.542 46.500,282.000 46.500 C 282.458 46.500,282.833 46.425,282.833 46.333 C 282.833 46.242,283.058 46.167,283.333 46.167 C 283.608 46.167,283.833 46.092,283.833 46.000 C 283.833 45.908,284.058 45.833,284.333 45.833 C 284.608 45.833,284.833 45.758,284.833 45.667 C 284.833 45.575,284.983 45.500,285.167 45.500 C 285.350 45.500,285.500 45.425,285.500 45.333 C 285.500 45.242,285.633 45.167,285.797 45.167 C 285.960 45.167,286.201 45.017,286.333 44.833 C 286.465 44.650,286.702 44.500,286.859 44.500 C 287.016 44.500,287.186 44.367,287.238 44.204 C 287.290 44.041,287.492 43.797,287.687 43.662 C 288.404 43.167,289.667 41.848,289.667 41.594 C 289.667 41.451,289.742 41.333,289.833 41.333 C 289.925 41.333,290.000 41.218,290.000 41.076 C 290.000 40.935,290.150 40.658,290.333 40.462 C 290.517 40.265,290.667 39.930,290.667 39.719 C 290.667 39.507,290.742 39.333,290.833 39.333 C 290.925 39.333,291.000 39.188,291.000 39.010 C 291.000 38.832,291.075 38.640,291.167 38.583 C 291.258 38.527,291.333 38.222,291.333 37.907 C 291.333 37.591,291.408 37.333,291.500 37.333 C 291.592 37.333,291.667 36.958,291.667 36.500 C 291.667 36.042,291.742 35.667,291.833 35.667 C 291.937 35.667,292.000 34.750,292.000 33.250 C 292.000 31.750,291.937 30.833,291.833 30.833 C 291.742 30.833,291.667 30.425,291.667 29.927 C 291.667 29.428,291.592 28.973,291.500 28.917 C 291.408 28.860,291.333 28.631,291.333 28.407 C 291.333 28.183,291.258 28.000,291.167 28.000 C 291.075 28.000,291.000 27.775,291.000 27.500 C 291.000 27.225,290.925 27.000,290.833 27.000 C 290.742 27.000,290.667 26.850,290.667 26.667 C 290.667 26.483,290.592 26.333,290.500 26.333 C 290.408 26.333,290.333 26.183,290.333 26.000 C 290.333 25.817,290.258 25.667,290.167 25.667 C 290.075 25.667,290.000 25.533,290.000 25.370 C 290.000 25.207,289.850 24.965,289.667 24.833 C 289.483 24.701,289.333 24.496,289.333 24.377 C 289.333 24.161,287.270 22.000,287.064 22.000 C 287.005 22.000,286.834 21.869,286.686 21.708 C 285.869 20.824,283.659 20.015,281.708 19.886 C 280.860 19.830,280.167 19.720,280.167 19.642 C 280.167 19.564,279.754 19.500,279.250 19.500 C 278.746 19.500,278.333 19.575,278.333 19.667 M304.167 19.644 C 304.167 19.724,303.413 19.825,302.492 19.869 C 301.561 19.914,300.731 20.035,300.625 20.142 C 300.520 20.247,300.298 20.333,300.133 20.333 C 299.968 20.333,299.833 20.408,299.833 20.500 C 299.833 20.592,299.683 20.667,299.500 20.667 C 299.317 20.667,299.167 20.742,299.167 20.833 C 299.167 20.925,299.017 21.000,298.833 21.000 C 298.650 21.000,298.500 21.075,298.500 21.167 C 298.500 21.258,298.396 21.333,298.269 21.333 C 298.080 21.333,297.312 22.103,296.681 22.927 C 295.450 24.534,295.284 28.372,296.358 30.380 C 296.645 30.915,298.305 32.500,298.580 32.500 C 298.719 32.500,298.833 32.575,298.833 32.667 C 298.833 32.758,298.983 32.833,299.167 32.833 C 299.350 32.833,299.500 32.908,299.500 33.000 C 299.500 33.092,299.650 33.167,299.833 33.167 C 300.017 33.167,300.167 33.242,300.167 33.333 C 300.167 33.425,300.392 33.500,300.667 33.500 C 300.942 33.500,301.167 33.575,301.167 33.667 C 301.167 33.758,301.392 33.833,301.667 33.833 C 301.942 33.833,302.167 33.908,302.167 34.000 C 302.167 34.092,302.467 34.167,302.833 34.167 C 303.200 34.167,303.500 34.242,303.500 34.333 C 303.500 34.425,303.758 34.500,304.073 34.500 C 304.389 34.500,304.693 34.575,304.750 34.667 C 304.807 34.758,305.107 34.833,305.417 34.833 C 305.727 34.833,306.022 34.900,306.072 34.982 C 306.123 35.064,306.446 35.173,306.791 35.225 C 308.023 35.409,309.333 35.741,309.333 35.869 C 309.333 35.941,309.448 36.000,309.588 36.000 C 309.918 36.000,311.333 37.415,311.333 37.746 C 311.333 37.886,311.408 38.000,311.500 38.000 C 311.595 38.000,311.667 38.500,311.667 39.167 C 311.667 39.833,311.595 40.333,311.500 40.333 C 311.408 40.333,311.333 40.448,311.333 40.589 C 311.333 40.921,310.254 42.000,309.922 42.000 C 309.782 42.000,309.667 42.075,309.667 42.167 C 309.667 42.258,309.517 42.333,309.333 42.333 C 309.150 42.333,309.000 42.408,309.000 42.500 C 309.000 42.592,308.775 42.667,308.500 42.667 C 308.225 42.667,308.000 42.742,308.000 42.833 C 308.000 42.937,307.083 43.000,305.583 43.000 C 304.083 43.000,303.167 42.937,303.167 42.833 C 303.167 42.742,302.942 42.667,302.667 42.667 C 302.392 42.667,302.167 42.592,302.167 42.500 C 302.167 42.408,302.017 42.333,301.833 42.333 C 301.650 42.333,301.500 42.258,301.500 42.167 C 301.500 42.075,301.386 42.000,301.246 42.000 C 300.916 42.000,299.167 40.250,299.167 39.920 C 299.167 39.781,299.092 39.667,299.000 39.667 C 298.908 39.667,298.833 39.484,298.833 39.260 C 298.833 39.036,298.758 38.807,298.667 38.750 C 298.575 38.693,298.500 38.384,298.500 38.062 C 298.500 37.219,297.611 36.582,297.250 37.167 C 297.193 37.258,296.589 37.333,295.907 37.333 L 294.667 37.333 294.667 38.667 C 294.667 39.444,294.736 40.000,294.833 40.000 C 294.925 40.000,295.000 40.225,295.000 40.500 C 295.000 40.775,295.075 41.000,295.167 41.000 C 295.258 41.000,295.333 41.150,295.333 41.333 C 295.333 41.517,295.408 41.667,295.500 41.667 C 295.592 41.667,295.667 41.817,295.667 42.000 C 295.667 42.183,295.742 42.333,295.833 42.333 C 295.925 42.333,296.000 42.460,296.000 42.615 C 296.000 42.934,297.900 44.833,298.219 44.833 C 298.333 44.833,298.535 44.983,298.667 45.167 C 298.799 45.350,299.040 45.500,299.203 45.500 C 299.367 45.500,299.500 45.575,299.500 45.667 C 299.500 45.758,299.725 45.833,300.000 45.833 C 300.275 45.833,300.500 45.908,300.500 46.000 C 300.500 46.092,300.725 46.167,301.000 46.167 C 301.275 46.167,301.500 46.242,301.500 46.333 C 301.500 46.426,301.941 46.500,302.490 46.500 C 303.035 46.500,303.527 46.575,303.583 46.667 C 303.643 46.763,304.530 46.833,305.677 46.833 C 306.892 46.833,307.667 46.768,307.667 46.667 C 307.667 46.575,308.042 46.500,308.500 46.500 C 308.958 46.500,309.333 46.425,309.333 46.333 C 309.333 46.242,309.558 46.167,309.833 46.167 C 310.108 46.167,310.333 46.092,310.333 46.000 C 310.333 45.908,310.507 45.833,310.719 45.833 C 310.930 45.833,311.265 45.683,311.462 45.500 C 311.658 45.317,311.897 45.167,311.992 45.167 C 312.086 45.167,312.258 45.017,312.372 44.833 C 312.487 44.650,312.678 44.500,312.798 44.500 C 313.036 44.500,313.833 43.764,313.833 43.544 C 313.833 43.469,313.983 43.299,314.167 43.167 C 314.350 43.035,314.500 42.793,314.500 42.630 C 314.500 42.467,314.575 42.333,314.667 42.333 C 314.758 42.333,314.833 42.183,314.833 42.000 C 314.833 41.817,314.908 41.667,315.000 41.667 C 315.092 41.667,315.167 41.517,315.167 41.333 C 315.167 41.150,315.242 41.000,315.333 41.000 C 315.436 41.000,315.500 40.167,315.500 38.833 C 315.500 37.500,315.436 36.667,315.333 36.667 C 315.242 36.667,315.167 36.479,315.167 36.250 C 315.167 36.021,315.092 35.833,315.000 35.833 C 314.908 35.833,314.833 35.700,314.833 35.537 C 314.833 35.374,314.683 35.132,314.500 35.000 C 314.317 34.868,314.167 34.660,314.167 34.539 C 314.167 34.253,313.414 33.500,313.128 33.500 C 313.006 33.500,312.799 33.350,312.667 33.167 C 312.535 32.983,312.330 32.833,312.213 32.833 C 312.096 32.833,312.000 32.758,312.000 32.667 C 312.000 32.575,311.850 32.500,311.667 32.500 C 311.483 32.500,311.333 32.425,311.333 32.333 C 311.333 32.242,311.183 32.167,311.000 32.167 C 310.817 32.167,310.667 32.092,310.667 32.000 C 310.667 31.908,310.442 31.833,310.167 31.833 C 309.892 31.833,309.667 31.758,309.667 31.667 C 309.667 31.575,309.442 31.500,309.167 31.500 C 308.892 31.500,308.667 31.425,308.667 31.333 C 308.667 31.242,308.367 31.167,308.000 31.167 C 307.633 31.167,307.333 31.092,307.333 31.000 C 307.333 30.908,307.033 30.833,306.667 30.833 C 306.300 30.833,306.000 30.758,306.000 30.667 C 306.000 30.575,305.700 30.500,305.333 30.500 C 304.967 30.500,304.667 30.425,304.667 30.333 C 304.667 30.242,304.409 30.167,304.093 30.167 C 303.778 30.167,303.473 30.092,303.417 30.000 C 303.360 29.908,303.135 29.833,302.917 29.833 C 302.698 29.833,302.473 29.758,302.417 29.667 C 302.360 29.575,302.131 29.500,301.907 29.500 C 301.683 29.500,301.500 29.425,301.500 29.333 C 301.500 29.242,301.383 29.167,301.240 29.167 C 300.459 29.167,299.500 27.819,299.500 26.723 C 299.500 26.130,299.573 25.667,299.667 25.667 C 299.758 25.667,299.833 25.554,299.833 25.417 C 299.833 25.279,299.908 25.167,300.000 25.167 C 300.092 25.167,300.167 25.086,300.167 24.988 C 300.167 24.737,300.599 24.333,300.868 24.333 C 300.992 24.333,301.201 24.183,301.333 24.000 C 301.474 23.804,301.765 23.667,302.037 23.667 C 302.292 23.667,302.500 23.592,302.500 23.500 C 302.500 23.397,303.417 23.333,304.917 23.333 C 306.417 23.333,307.333 23.397,307.333 23.500 C 307.333 23.592,307.558 23.667,307.833 23.667 C 308.108 23.667,308.333 23.729,308.333 23.805 C 308.333 23.881,308.540 24.050,308.792 24.180 C 309.387 24.487,310.000 25.092,310.000 25.372 C 310.000 25.494,310.150 25.701,310.333 25.833 C 310.526 25.972,310.667 26.265,310.667 26.527 C 310.667 26.776,310.742 27.027,310.833 27.083 C 310.925 27.140,311.000 27.407,311.000 27.677 C 311.000 28.126,311.049 28.167,311.583 28.167 C 311.904 28.167,312.167 28.092,312.167 28.000 C 312.167 27.903,312.722 27.833,313.500 27.833 L 314.833 27.833 314.833 27.093 C 314.833 26.686,314.758 26.307,314.667 26.250 C 314.575 26.193,314.500 25.889,314.500 25.573 C 314.500 25.258,314.425 25.000,314.333 25.000 C 314.242 25.000,314.167 24.792,314.167 24.537 C 314.167 24.265,314.029 23.974,313.833 23.833 C 313.650 23.701,313.500 23.500,313.500 23.387 C 313.500 22.695,310.536 20.333,309.667 20.333 C 309.520 20.333,309.314 20.247,309.208 20.142 C 309.102 20.035,308.272 19.914,307.342 19.869 C 306.420 19.825,305.667 19.724,305.667 19.644 C 305.667 19.565,305.329 19.500,304.917 19.500 C 304.504 19.500,304.167 19.565,304.167 19.644 M118.833 33.083 L 118.833 46.167 120.750 46.167 L 122.667 46.167 122.667 40.167 L 122.667 34.167 129.083 34.167 L 135.500 34.167 135.500 40.167 L 135.500 46.167 137.417 46.167 L 139.333 46.167 139.333 33.083 L 139.333 20.000 137.417 20.000 L 135.500 20.000 135.500 25.250 L 135.500 30.500 129.083 30.500 L 122.667 30.500 122.667 25.250 L 122.667 20.000 120.750 20.000 L 118.833 20.000 118.833 33.083 M172.450 20.106 C 172.386 20.170,172.333 26.060,172.333 33.194 L 172.333 46.167 180.667 46.167 L 189.000 46.167 189.000 44.417 L 189.000 42.667 182.668 42.667 L 176.336 42.667 176.293 31.375 L 176.250 20.083 174.408 20.037 C 173.395 20.011,172.514 20.042,172.450 20.106 M187.500 20.488 C 187.500 20.757,187.612 21.089,187.750 21.226 C 187.887 21.364,188.000 21.577,188.000 21.701 C 188.000 21.825,188.150 22.035,188.333 22.167 C 188.517 22.299,188.667 22.524,188.667 22.667 C 188.667 22.810,188.817 23.035,189.000 23.167 C 189.183 23.299,189.333 23.524,189.333 23.667 C 189.333 23.810,189.483 24.035,189.667 24.167 C 189.850 24.299,190.000 24.524,190.000 24.667 C 190.000 24.810,190.150 25.035,190.333 25.167 C 190.517 25.299,190.667 25.524,190.667 25.667 C 190.667 25.810,190.817 26.035,191.000 26.167 C 191.183 26.299,191.333 26.524,191.333 26.667 C 191.333 26.810,191.483 27.035,191.667 27.167 C 191.850 27.299,192.000 27.486,192.000 27.583 C 192.000 27.680,192.150 27.868,192.333 28.000 C 192.517 28.132,192.667 28.357,192.667 28.500 C 192.667 28.643,192.817 28.868,193.000 29.000 C 193.183 29.132,193.333 29.357,193.333 29.500 C 193.333 29.643,193.483 29.868,193.667 30.000 C 193.850 30.132,194.000 30.357,194.000 30.500 C 194.000 30.643,194.150 30.868,194.333 31.000 C 194.517 31.132,194.667 31.357,194.667 31.500 C 194.667 31.643,194.817 31.868,195.000 32.000 C 195.183 32.132,195.333 32.374,195.333 32.537 C 195.333 32.700,195.400 32.833,195.481 32.833 C 195.562 32.833,195.755 33.077,195.910 33.375 C 196.405 34.330,196.607 34.658,196.890 34.970 C 197.136 35.242,197.167 35.880,197.167 40.721 L 197.167 46.167 199.167 46.167 L 201.167 46.167 201.167 40.667 C 201.167 37.111,201.226 35.167,201.333 35.167 C 201.425 35.167,201.500 35.047,201.500 34.900 C 201.500 34.754,201.725 34.424,202.000 34.167 C 202.275 33.910,202.500 33.596,202.500 33.470 C 202.500 33.344,202.650 33.132,202.833 33.000 C 203.017 32.868,203.167 32.654,203.167 32.524 C 203.167 32.395,203.305 32.168,203.473 32.020 C 203.642 31.871,203.831 31.544,203.893 31.292 C 203.955 31.040,204.080 30.833,204.170 30.833 C 204.260 30.833,204.333 30.713,204.333 30.567 C 204.333 30.420,204.558 30.090,204.833 29.833 C 205.108 29.576,205.333 29.263,205.333 29.137 C 205.333 29.010,205.483 28.799,205.667 28.667 C 205.850 28.535,206.000 28.311,206.000 28.170 C 206.000 28.029,206.150 27.820,206.333 27.705 C 206.517 27.591,206.667 27.402,206.667 27.285 C 206.667 27.169,206.817 26.965,207.000 26.833 C 207.183 26.701,207.333 26.490,207.333 26.363 C 207.333 26.237,207.558 25.924,207.833 25.667 C 208.108 25.410,208.333 25.096,208.333 24.970 C 208.333 24.844,208.483 24.632,208.667 24.500 C 208.850 24.368,209.000 24.143,209.000 24.000 C 209.000 23.857,209.150 23.632,209.333 23.500 C 209.517 23.368,209.667 23.143,209.667 23.000 C 209.667 22.857,209.817 22.632,210.000 22.500 C 210.183 22.368,210.333 22.156,210.333 22.030 C 210.333 21.904,210.564 21.585,210.846 21.322 C 211.189 21.001,211.340 20.718,211.304 20.463 C 211.229 19.935,206.909 19.768,206.717 20.287 C 206.656 20.450,206.470 20.705,206.303 20.853 C 206.136 21.001,206.000 21.228,206.000 21.358 C 206.000 21.487,205.850 21.701,205.667 21.833 C 205.483 21.965,205.333 22.207,205.333 22.370 C 205.333 22.533,205.267 22.667,205.186 22.667 C 205.104 22.667,204.915 22.926,204.765 23.243 C 204.614 23.560,204.418 23.864,204.329 23.919 C 204.240 23.975,204.167 24.149,204.167 24.306 C 204.167 24.464,204.017 24.701,203.833 24.833 C 203.650 24.965,203.500 25.207,203.500 25.370 C 203.500 25.533,203.425 25.667,203.333 25.667 C 203.242 25.667,203.167 25.800,203.167 25.963 C 203.167 26.126,203.017 26.368,202.833 26.500 C 202.650 26.632,202.500 26.857,202.500 27.000 C 202.500 27.143,202.350 27.368,202.167 27.500 C 201.983 27.632,201.833 27.820,201.833 27.917 C 201.833 28.014,201.683 28.201,201.500 28.333 C 201.317 28.465,201.167 28.690,201.167 28.833 C 201.167 28.976,201.017 29.201,200.833 29.333 C 200.650 29.465,200.500 29.707,200.500 29.870 C 200.500 30.033,200.425 30.167,200.333 30.167 C 200.242 30.167,200.167 30.300,200.167 30.463 C 200.167 30.626,200.017 30.868,199.833 31.000 C 199.650 31.132,199.500 31.374,199.500 31.537 C 199.500 31.700,199.425 31.833,199.333 31.833 C 199.242 31.833,199.167 31.683,199.167 31.500 C 199.167 31.317,199.092 31.167,199.000 31.167 C 198.908 31.167,198.833 31.033,198.833 30.870 C 198.833 30.707,198.683 30.465,198.500 30.333 C 198.317 30.201,198.167 29.960,198.167 29.797 C 198.167 29.633,198.092 29.500,198.000 29.500 C 197.908 29.500,197.833 29.378,197.833 29.228 C 197.833 29.078,197.702 28.834,197.541 28.686 C 197.379 28.538,197.136 28.192,197.000 27.917 C 196.864 27.642,196.621 27.295,196.459 27.147 C 196.298 26.999,196.167 26.755,196.167 26.605 C 196.167 26.456,196.106 26.333,196.032 26.333 C 195.958 26.333,195.765 26.033,195.603 25.667 C 195.442 25.300,195.240 25.000,195.155 25.000 C 195.070 25.000,195.000 24.867,195.000 24.703 C 195.000 24.540,194.850 24.299,194.667 24.167 C 194.483 24.035,194.333 23.810,194.333 23.667 C 194.333 23.524,194.183 23.299,194.000 23.167 C 193.817 23.035,193.667 22.810,193.667 22.667 C 193.667 22.524,193.517 22.299,193.333 22.167 C 193.150 22.035,193.000 21.810,193.000 21.667 C 193.000 21.524,192.850 21.299,192.667 21.167 C 192.483 21.035,192.333 20.825,192.333 20.701 C 192.333 20.115,191.900 20.000,189.679 20.000 L 187.500 20.000 187.500 20.488 M242.000 33.083 L 242.000 46.167 243.917 46.167 L 245.833 46.167 245.833 40.167 L 245.833 34.167 252.250 34.167 L 258.667 34.167 258.667 40.167 L 258.667 46.167 260.583 46.167 L 262.500 46.167 262.500 33.083 L 262.500 20.000 260.583 20.000 L 258.667 20.000 258.667 25.250 L 258.667 30.500 252.250 30.500 L 245.833 30.500 245.833 25.250 L 245.833 20.000 243.917 20.000 L 242.000 20.000 242.000 33.083 M317.833 21.833 L 317.833 23.667 322.083 23.667 L 326.333 23.667 326.333 34.917 L 326.333 46.167 328.250 46.167 L 330.167 46.167 330.167 34.917 L 330.167 23.667 334.417 23.667 L 338.667 23.667 338.667 21.833 L 338.667 20.000 328.250 20.000 L 317.833 20.000 317.833 21.833 M156.750 23.167 C 156.807 23.258,157.261 23.333,157.760 23.333 C 158.259 23.333,158.667 23.408,158.667 23.500 C 158.667 23.592,158.892 23.667,159.167 23.667 C 159.442 23.667,159.667 23.742,159.667 23.833 C 159.667 23.925,159.800 24.000,159.963 24.000 C 160.126 24.000,160.368 24.150,160.500 24.333 C 160.632 24.517,160.838 24.667,160.958 24.667 C 161.306 24.667,162.553 26.018,162.917 26.790 C 163.100 27.178,163.306 27.497,163.375 27.498 C 163.444 27.499,163.500 27.650,163.500 27.833 C 163.500 28.017,163.575 28.167,163.667 28.167 C 163.758 28.167,163.833 28.350,163.833 28.573 C 163.833 28.797,163.908 29.027,164.000 29.083 C 164.092 29.140,164.167 29.402,164.167 29.667 C 164.167 29.931,164.242 30.193,164.333 30.250 C 164.434 30.312,164.500 31.471,164.500 33.167 C 164.500 34.863,164.434 36.021,164.333 36.083 C 164.242 36.140,164.167 36.393,164.167 36.645 C 164.167 36.898,164.017 37.415,163.833 37.794 C 163.650 38.173,163.500 38.600,163.500 38.742 C 163.500 38.884,163.434 39.000,163.354 39.000 C 163.273 39.000,163.110 39.234,162.992 39.519 C 162.726 40.160,160.947 42.000,160.593 42.000 C 160.450 42.000,160.333 42.075,160.333 42.167 C 160.333 42.258,160.183 42.333,160.000 42.333 C 159.817 42.333,159.667 42.408,159.667 42.500 C 159.667 42.592,159.484 42.667,159.260 42.667 C 159.036 42.667,158.807 42.742,158.750 42.833 C 158.693 42.925,158.426 43.000,158.157 43.000 C 157.887 43.000,157.667 43.075,157.667 43.167 C 157.667 43.265,157.056 43.333,156.167 43.333 C 155.278 43.333,154.667 43.265,154.667 43.167 C 154.667 43.075,154.442 43.000,154.167 43.000 C 153.892 43.000,153.667 42.925,153.667 42.833 C 153.667 42.742,153.479 42.667,153.250 42.667 C 153.021 42.667,152.833 42.592,152.833 42.500 C 152.833 42.408,152.683 42.333,152.500 42.333 C 152.317 42.333,152.167 42.258,152.167 42.167 C 152.167 42.075,152.053 42.000,151.914 42.000 C 151.606 42.000,149.500 39.927,149.500 39.623 C 149.500 39.504,149.350 39.299,149.167 39.167 C 148.983 39.035,148.833 38.793,148.833 38.630 C 148.833 38.467,148.758 38.333,148.667 38.333 C 148.575 38.333,148.500 38.150,148.500 37.927 C 148.500 37.703,148.425 37.473,148.333 37.417 C 148.242 37.360,148.167 37.056,148.167 36.740 C 148.167 36.425,148.092 36.167,148.000 36.167 C 147.895 36.167,147.833 35.056,147.833 33.167 C 147.833 31.278,147.895 30.167,148.000 30.167 C 148.092 30.167,148.167 29.867,148.167 29.500 C 148.167 29.133,148.242 28.833,148.333 28.833 C 148.425 28.833,148.500 28.608,148.500 28.333 C 148.500 28.058,148.575 27.833,148.667 27.833 C 148.758 27.833,148.833 27.721,148.833 27.583 C 148.833 27.446,148.908 27.333,149.000 27.333 C 149.092 27.333,149.167 27.219,149.167 27.080 C 149.167 26.800,151.227 24.667,151.497 24.667 C 151.590 24.667,151.667 24.592,151.667 24.500 C 151.667 24.408,151.779 24.333,151.917 24.333 C 152.054 24.333,152.167 24.258,152.167 24.167 C 152.167 24.075,152.317 24.000,152.500 24.000 C 152.683 24.000,152.833 23.925,152.833 23.833 C 152.833 23.742,153.054 23.667,153.323 23.667 C 153.593 23.667,153.860 23.592,153.917 23.500 C 153.973 23.408,154.390 23.333,154.843 23.333 C 155.296 23.333,155.667 23.258,155.667 23.167 C 155.667 23.075,155.887 23.000,156.157 23.000 C 156.426 23.000,156.693 23.075,156.750 23.167 M280.000 23.167 C 280.000 23.258,280.412 23.333,280.917 23.333 C 281.421 23.333,281.833 23.408,281.833 23.500 C 281.833 23.592,282.042 23.667,282.297 23.667 C 282.569 23.667,282.859 23.804,283.000 24.000 C 283.132 24.183,283.357 24.333,283.500 24.333 C 283.643 24.333,283.868 24.483,284.000 24.667 C 284.132 24.850,284.339 25.000,284.459 25.000 C 284.730 25.000,285.833 26.084,285.833 26.350 C 285.833 26.457,285.970 26.666,286.138 26.814 C 286.305 26.962,286.548 27.327,286.678 27.625 C 286.808 27.923,286.971 28.167,287.041 28.167 C 287.110 28.167,287.167 28.385,287.167 28.653 C 287.167 28.920,287.260 29.170,287.375 29.208 C 287.534 29.261,287.583 30.220,287.583 33.250 C 287.583 36.280,287.534 37.239,287.375 37.292 C 287.260 37.330,287.167 37.505,287.167 37.681 C 287.167 37.856,287.092 38.000,287.000 38.000 C 286.908 38.000,286.833 38.150,286.833 38.333 C 286.833 38.517,286.758 38.667,286.667 38.667 C 286.575 38.667,286.500 38.800,286.500 38.963 C 286.500 39.126,286.350 39.368,286.167 39.500 C 285.983 39.632,285.833 39.838,285.833 39.957 C 285.833 40.260,284.062 42.000,283.754 42.000 C 283.614 42.000,283.500 42.075,283.500 42.167 C 283.500 42.258,283.350 42.333,283.167 42.333 C 282.983 42.333,282.833 42.408,282.833 42.500 C 282.833 42.592,282.608 42.667,282.333 42.667 C 282.058 42.667,281.833 42.742,281.833 42.833 C 281.833 42.925,281.571 43.000,281.250 43.000 C 280.929 43.000,280.667 43.075,280.667 43.167 C 280.667 43.264,280.111 43.333,279.333 43.333 C 278.556 43.333,278.000 43.264,278.000 43.167 C 278.000 43.075,277.700 43.000,277.333 43.000 C 276.967 43.000,276.667 42.925,276.667 42.833 C 276.667 42.742,276.517 42.667,276.333 42.667 C 276.150 42.667,276.000 42.592,276.000 42.500 C 276.000 42.408,275.850 42.333,275.667 42.333 C 275.483 42.333,275.333 42.258,275.333 42.167 C 275.333 42.075,275.220 42.000,275.081 42.000 C 274.751 42.000,272.333 39.582,272.333 39.253 C 272.333 39.114,272.258 39.000,272.167 39.000 C 272.075 39.000,272.000 38.850,272.000 38.667 C 272.000 38.483,271.925 38.333,271.833 38.333 C 271.742 38.333,271.667 38.183,271.667 38.000 C 271.667 37.817,271.592 37.667,271.500 37.667 C 271.408 37.667,271.333 37.373,271.333 37.014 C 271.333 36.655,271.251 36.334,271.150 36.300 C 270.902 36.217,270.910 29.947,271.158 29.864 C 271.254 29.832,271.333 29.512,271.333 29.153 C 271.333 28.794,271.408 28.500,271.500 28.500 C 271.592 28.500,271.667 28.350,271.667 28.167 C 271.667 27.983,271.723 27.833,271.793 27.833 C 271.862 27.833,272.024 27.595,272.153 27.303 C 272.439 26.657,274.730 24.333,275.081 24.333 C 275.220 24.333,275.333 24.258,275.333 24.167 C 275.333 24.075,275.483 24.000,275.667 24.000 C 275.850 24.000,276.000 23.925,276.000 23.833 C 276.000 23.742,276.225 23.667,276.500 23.667 C 276.775 23.667,277.000 23.592,277.000 23.500 C 277.000 23.408,277.412 23.333,277.917 23.333 C 278.421 23.333,278.833 23.258,278.833 23.167 C 278.833 23.075,279.096 23.000,279.417 23.000 C 279.737 23.000,280.000 23.075,280.000 23.167 M121.939 59.575 C 121.677 59.717,121.337 59.833,121.184 59.833 C 121.032 59.833,120.799 59.983,120.667 60.167 C 120.535 60.350,120.328 60.500,120.208 60.500 C 119.923 60.500,118.833 61.590,118.833 61.874 C 118.833 61.995,118.683 62.201,118.500 62.333 C 118.317 62.465,118.167 62.707,118.167 62.870 C 118.167 63.033,118.092 63.167,118.000 63.167 C 117.908 63.167,117.833 63.317,117.833 63.500 C 117.833 63.683,117.758 63.833,117.667 63.833 C 117.575 63.833,117.500 64.058,117.500 64.333 C 117.500 64.608,117.425 64.833,117.333 64.833 C 117.229 64.833,117.167 65.917,117.167 67.750 C 117.167 69.583,117.229 70.667,117.333 70.667 C 117.425 70.667,117.500 70.892,117.500 71.167 C 117.500 71.442,117.575 71.667,117.667 71.667 C 117.758 71.667,117.833 71.892,117.833 72.167 C 117.833 72.442,117.908 72.667,118.000 72.667 C 118.092 72.667,118.167 72.800,118.167 72.963 C 118.167 73.126,118.317 73.368,118.500 73.500 C 118.683 73.632,118.833 73.844,118.833 73.970 C 118.833 74.171,119.164 74.524,120.073 75.292 C 120.208 75.406,120.435 75.500,120.576 75.500 C 120.718 75.500,120.833 75.575,120.833 75.667 C 120.833 75.758,120.946 75.833,121.083 75.833 C 121.221 75.833,121.333 75.908,121.333 76.000 C 121.333 76.092,121.558 76.167,121.833 76.167 C 122.108 76.167,122.333 76.242,122.333 76.333 C 122.333 76.437,123.278 76.500,124.833 76.500 C 126.389 76.500,127.333 76.437,127.333 76.333 C 127.333 76.242,127.542 76.167,127.797 76.167 C 128.069 76.167,128.359 76.029,128.500 75.833 C 128.632 75.650,128.802 75.500,128.877 75.500 C 129.198 75.500,130.833 73.908,130.833 73.596 C 130.833 73.452,130.908 73.333,131.000 73.333 C 131.092 73.333,131.167 73.183,131.167 73.000 C 131.167 72.817,131.242 72.667,131.333 72.667 C 131.425 72.667,131.500 72.442,131.500 72.167 C 131.500 71.892,131.575 71.667,131.667 71.667 C 131.758 71.667,131.833 71.442,131.833 71.167 C 131.833 70.694,131.796 70.667,131.167 70.667 C 130.800 70.667,130.500 70.592,130.500 70.500 C 130.500 70.265,129.441 70.292,129.200 70.533 C 129.090 70.643,129.000 70.943,129.000 71.200 C 129.000 71.457,128.925 71.667,128.833 71.667 C 128.742 71.667,128.667 71.781,128.667 71.920 C 128.667 72.357,126.892 74.000,126.420 74.000 C 126.189 74.000,126.000 74.075,126.000 74.167 C 126.000 74.264,125.444 74.333,124.667 74.333 C 123.889 74.333,123.333 74.264,123.333 74.167 C 123.333 74.075,123.139 74.000,122.902 74.000 C 122.306 74.000,120.714 72.340,120.569 71.565 C 120.511 71.254,120.396 71.000,120.315 71.000 C 120.233 71.000,120.167 70.742,120.167 70.427 C 120.167 70.111,120.092 69.807,120.000 69.750 C 119.906 69.692,119.833 68.890,119.833 67.917 C 119.833 66.943,119.906 66.141,120.000 66.083 C 120.092 66.027,120.167 65.727,120.167 65.417 C 120.167 65.107,120.236 64.810,120.321 64.758 C 120.405 64.706,120.522 64.446,120.580 64.181 C 120.704 63.616,122.014 62.167,122.400 62.167 C 122.547 62.167,122.667 62.092,122.667 62.000 C 122.667 61.908,122.817 61.833,123.000 61.833 C 123.183 61.833,123.333 61.758,123.333 61.667 C 123.333 61.568,123.944 61.500,124.833 61.500 C 125.722 61.500,126.333 61.568,126.333 61.667 C 126.333 61.758,126.447 61.833,126.587 61.833 C 126.917 61.833,128.667 63.583,128.667 63.913 C 128.667 64.053,128.742 64.167,128.833 64.167 C 128.925 64.167,129.000 64.317,129.000 64.500 C 129.000 64.784,129.111 64.833,129.750 64.833 C 130.162 64.833,130.500 64.758,130.500 64.667 C 130.500 64.575,130.725 64.500,131.000 64.500 C 131.444 64.500,131.500 64.444,131.500 64.000 C 131.500 63.725,131.425 63.500,131.333 63.500 C 131.242 63.500,131.167 63.292,131.167 63.037 C 131.167 62.765,131.029 62.474,130.833 62.333 C 130.650 62.201,130.500 61.995,130.500 61.875 C 130.500 61.545,129.171 60.302,128.330 59.844 C 127.357 59.316,122.775 59.123,121.939 59.575 M176.000 59.445 C 175.771 59.491,175.512 59.597,175.425 59.681 C 175.338 59.765,175.148 59.833,175.003 59.833 C 174.859 59.833,174.632 59.983,174.500 60.167 C 174.368 60.350,174.126 60.500,173.963 60.500 C 173.790 60.500,173.667 60.623,173.667 60.797 C 173.667 60.960,173.517 61.201,173.333 61.333 C 173.150 61.465,173.000 61.707,173.000 61.870 C 173.000 62.033,172.925 62.167,172.833 62.167 C 172.732 62.167,172.667 62.889,172.667 64.000 C 172.667 65.111,172.732 65.833,172.833 65.833 C 172.925 65.833,173.000 65.934,173.000 66.057 C 173.000 66.333,174.078 67.333,174.375 67.333 C 174.495 67.333,174.701 67.483,174.833 67.667 C 174.974 67.862,175.265 68.000,175.537 68.000 C 175.792 68.000,176.000 68.075,176.000 68.167 C 176.000 68.258,176.225 68.333,176.500 68.333 C 176.775 68.333,177.000 68.408,177.000 68.500 C 177.000 68.592,177.300 68.667,177.667 68.667 C 178.033 68.667,178.333 68.742,178.333 68.833 C 178.333 68.925,178.596 69.000,178.917 69.000 C 179.237 69.000,179.500 69.075,179.500 69.167 C 179.500 69.258,179.725 69.333,180.000 69.333 C 180.275 69.333,180.500 69.408,180.500 69.500 C 180.500 69.592,180.690 69.667,180.922 69.667 C 181.392 69.667,182.500 70.658,182.500 71.078 C 182.500 71.218,182.575 71.333,182.667 71.333 C 182.758 71.333,182.833 71.558,182.833 71.833 C 182.833 72.108,182.758 72.333,182.667 72.333 C 182.575 72.333,182.500 72.449,182.500 72.591 C 182.500 72.924,181.758 73.667,181.424 73.667 C 181.283 73.667,181.167 73.742,181.167 73.833 C 181.167 73.925,180.942 74.000,180.667 74.000 C 180.392 74.000,180.167 74.075,180.167 74.167 C 180.167 74.261,179.694 74.333,179.083 74.333 C 178.472 74.333,178.000 74.261,178.000 74.167 C 178.000 74.075,177.775 74.000,177.500 74.000 C 177.225 74.000,177.000 73.925,177.000 73.833 C 177.000 73.742,176.867 73.667,176.703 73.667 C 176.540 73.667,176.299 73.517,176.167 73.333 C 176.035 73.150,175.793 73.000,175.630 73.000 C 175.444 73.000,175.333 72.875,175.333 72.667 C 175.333 72.483,175.258 72.333,175.167 72.333 C 175.075 72.333,175.000 72.183,175.000 72.000 C 175.000 71.817,174.925 71.667,174.833 71.667 C 174.742 71.667,174.667 71.367,174.667 71.000 L 174.667 70.333 173.333 70.333 L 172.000 70.333 172.000 71.500 C 172.000 72.167,172.071 72.667,172.167 72.667 C 172.258 72.667,172.333 72.817,172.333 73.000 C 172.333 73.183,172.408 73.333,172.500 73.333 C 172.592 73.333,172.667 73.456,172.667 73.605 C 172.667 73.755,172.798 74.000,172.958 74.149 C 173.119 74.299,173.333 74.570,173.435 74.752 C 173.536 74.934,173.760 75.111,173.932 75.145 C 174.104 75.179,174.368 75.347,174.517 75.520 C 174.667 75.692,174.912 75.833,175.061 75.833 C 175.211 75.833,175.333 75.908,175.333 76.000 C 175.333 76.092,175.558 76.167,175.833 76.167 C 176.108 76.167,176.333 76.242,176.333 76.333 C 176.333 76.437,177.250 76.500,178.750 76.500 C 180.250 76.500,181.167 76.437,181.167 76.333 C 181.167 76.242,181.392 76.167,181.667 76.167 C 181.942 76.167,182.167 76.092,182.167 76.000 C 182.167 75.908,182.317 75.833,182.500 75.833 C 182.683 75.833,182.833 75.758,182.833 75.667 C 182.833 75.575,182.949 75.500,183.090 75.500 C 183.232 75.500,183.458 75.406,183.594 75.292 C 184.524 74.506,184.833 74.166,184.833 73.933 C 184.833 73.787,184.908 73.667,185.000 73.667 C 185.092 73.667,185.167 73.367,185.167 73.000 C 185.167 72.633,185.242 72.333,185.333 72.333 C 185.426 72.333,185.500 71.889,185.500 71.333 C 185.500 70.778,185.426 70.333,185.333 70.333 C 185.242 70.333,185.167 70.108,185.167 69.833 C 185.167 69.558,185.092 69.333,185.000 69.333 C 184.908 69.333,184.833 69.212,184.833 69.064 C 184.833 68.764,183.712 67.667,183.405 67.667 C 183.296 67.667,183.114 67.554,183.000 67.417 C 182.886 67.279,182.577 67.167,182.313 67.167 C 182.049 67.167,181.833 67.092,181.833 67.000 C 181.833 66.908,181.608 66.833,181.333 66.833 C 181.058 66.833,180.833 66.758,180.833 66.667 C 180.833 66.575,180.533 66.500,180.167 66.500 C 179.800 66.500,179.500 66.425,179.500 66.333 C 179.500 66.242,179.237 66.167,178.917 66.167 C 178.596 66.167,178.333 66.092,178.333 66.000 C 178.333 65.908,178.108 65.833,177.833 65.833 C 177.558 65.833,177.333 65.758,177.333 65.667 C 177.333 65.575,177.108 65.500,176.833 65.500 C 176.558 65.500,176.333 65.425,176.333 65.333 C 176.333 65.242,176.183 65.167,176.000 65.167 C 175.778 65.167,175.667 65.056,175.667 64.833 C 175.667 64.650,175.592 64.500,175.500 64.500 C 175.408 64.500,175.333 64.160,175.333 63.744 C 175.333 62.846,176.169 61.833,176.911 61.833 C 177.143 61.833,177.333 61.758,177.333 61.667 C 177.333 61.573,177.802 61.500,178.407 61.500 C 178.997 61.500,179.527 61.575,179.583 61.667 C 179.640 61.758,179.869 61.833,180.093 61.833 C 180.317 61.833,180.500 61.908,180.500 62.000 C 180.500 62.092,180.616 62.167,180.758 62.167 C 181.091 62.167,181.833 62.909,181.833 63.242 C 181.833 63.384,181.908 63.500,182.000 63.500 C 182.092 63.500,182.167 63.800,182.167 64.167 L 182.167 64.833 183.500 64.833 L 184.833 64.833 184.833 63.833 C 184.833 63.278,184.759 62.833,184.667 62.833 C 184.575 62.833,184.500 62.625,184.500 62.370 C 184.500 62.098,184.362 61.808,184.167 61.667 C 183.983 61.535,183.833 61.327,183.833 61.206 C 183.833 60.901,183.073 60.167,182.758 60.167 C 182.616 60.167,182.500 60.092,182.500 60.000 C 182.500 59.908,182.365 59.833,182.200 59.833 C 182.035 59.833,181.806 59.740,181.692 59.625 C 181.479 59.413,176.889 59.267,176.000 59.445 M249.083 59.619 C 248.625 59.774,248.225 59.961,248.194 60.034 C 248.164 60.107,248.040 60.167,247.920 60.167 C 247.799 60.167,247.337 60.536,246.892 60.988 C 245.815 62.082,245.667 62.274,245.667 62.576 C 245.667 62.718,245.592 62.833,245.500 62.833 C 245.408 62.833,245.333 62.983,245.333 63.167 C 245.333 63.350,245.258 63.500,245.167 63.500 C 245.075 63.500,245.000 63.725,245.000 64.000 C 245.000 64.275,244.925 64.500,244.833 64.500 C 244.742 64.500,244.667 64.800,244.667 65.167 C 244.667 65.533,244.592 65.833,244.500 65.833 C 244.399 65.833,244.333 66.583,244.333 67.750 C 244.333 68.917,244.399 69.667,244.500 69.667 C 244.592 69.667,244.667 70.042,244.667 70.500 C 244.667 70.958,244.742 71.333,244.833 71.333 C 244.925 71.333,245.000 71.558,245.000 71.833 C 245.000 72.108,245.075 72.333,245.167 72.333 C 245.258 72.333,245.333 72.483,245.333 72.667 C 245.333 72.850,245.408 73.000,245.500 73.000 C 245.592 73.000,245.667 73.116,245.667 73.257 C 245.667 73.398,245.824 73.680,246.016 73.882 C 246.208 74.084,246.431 74.419,246.512 74.625 C 246.592 74.831,246.769 75.000,246.905 75.000 C 247.041 75.000,247.339 75.188,247.568 75.417 C 247.797 75.646,248.101 75.833,248.242 75.833 C 248.384 75.833,248.500 75.908,248.500 76.000 C 248.500 76.092,248.725 76.167,249.000 76.167 C 249.275 76.167,249.500 76.242,249.500 76.333 C 249.500 76.437,250.417 76.500,251.917 76.500 C 253.417 76.500,254.333 76.437,254.333 76.333 C 254.333 76.242,254.558 76.167,254.833 76.167 C 255.108 76.167,255.333 76.092,255.333 76.000 C 255.333 75.908,255.467 75.833,255.630 75.833 C 255.793 75.833,256.035 75.683,256.167 75.500 C 256.299 75.317,256.522 75.164,256.662 75.161 C 257.004 75.154,257.667 74.587,257.667 74.302 C 257.667 74.176,257.817 73.965,258.000 73.833 C 258.183 73.701,258.333 73.460,258.333 73.297 C 258.333 73.133,258.408 73.000,258.500 73.000 C 258.592 73.000,258.667 72.775,258.667 72.500 C 258.667 72.225,258.742 72.000,258.833 72.000 C 258.925 72.000,259.000 71.700,259.000 71.333 C 259.000 70.704,258.972 70.667,258.500 70.667 C 258.225 70.667,258.000 70.592,258.000 70.500 C 258.000 70.408,257.625 70.333,257.167 70.333 C 256.352 70.333,256.333 70.344,256.333 70.833 C 256.333 71.108,256.258 71.333,256.167 71.333 C 256.075 71.333,256.000 71.483,256.000 71.667 C 256.000 71.850,255.925 72.000,255.833 72.000 C 255.742 72.000,255.667 72.115,255.667 72.256 C 255.667 72.541,254.608 73.667,254.339 73.667 C 254.244 73.667,254.167 73.742,254.167 73.833 C 254.167 73.925,254.017 74.000,253.833 74.000 C 253.650 74.000,253.500 74.075,253.500 74.167 C 253.500 74.264,252.944 74.333,252.167 74.333 C 251.389 74.333,250.833 74.264,250.833 74.167 C 250.833 74.075,250.608 74.000,250.333 74.000 C 250.058 74.000,249.833 73.925,249.833 73.833 C 249.833 73.742,249.718 73.667,249.578 73.667 C 249.246 73.667,248.167 72.587,248.167 72.256 C 248.167 72.115,248.092 72.000,248.000 72.000 C 247.908 72.000,247.833 71.850,247.833 71.667 C 247.833 71.483,247.758 71.333,247.667 71.333 C 247.575 71.333,247.500 71.108,247.500 70.833 C 247.500 70.558,247.425 70.333,247.333 70.333 C 247.230 70.333,247.167 69.417,247.167 67.917 C 247.167 66.417,247.230 65.500,247.333 65.500 C 247.425 65.500,247.500 65.275,247.500 65.000 C 247.500 64.725,247.575 64.500,247.667 64.500 C 247.758 64.500,247.833 64.350,247.833 64.167 C 247.833 63.983,247.908 63.833,248.000 63.833 C 248.092 63.833,248.167 63.718,248.167 63.578 C 248.167 63.246,249.246 62.167,249.578 62.167 C 249.718 62.167,249.833 62.092,249.833 62.000 C 249.833 61.908,249.983 61.833,250.167 61.833 C 250.350 61.833,250.500 61.758,250.500 61.667 C 250.500 61.568,251.111 61.500,252.000 61.500 C 252.889 61.500,253.500 61.568,253.500 61.667 C 253.500 61.758,253.650 61.833,253.833 61.833 C 254.017 61.833,254.167 61.908,254.167 62.000 C 254.167 62.092,254.245 62.167,254.341 62.167 C 254.608 62.167,255.333 62.952,255.333 63.242 C 255.333 63.384,255.408 63.500,255.500 63.500 C 255.592 63.500,255.667 63.650,255.667 63.833 C 255.667 64.017,255.742 64.167,255.833 64.167 C 255.925 64.167,256.000 64.317,256.000 64.500 C 256.000 64.789,256.111 64.833,256.833 64.833 C 257.292 64.833,257.667 64.758,257.667 64.667 C 257.667 64.575,257.892 64.500,258.167 64.500 C 258.656 64.500,258.667 64.481,258.667 63.667 C 258.667 63.208,258.592 62.833,258.500 62.833 C 258.408 62.833,258.333 62.700,258.333 62.537 C 258.333 62.374,258.183 62.132,258.000 62.000 C 257.817 61.868,257.667 61.660,257.667 61.539 C 257.667 61.253,256.914 60.500,256.628 60.500 C 256.506 60.500,256.299 60.350,256.167 60.167 C 256.035 59.983,255.808 59.833,255.663 59.833 C 255.518 59.833,255.306 59.740,255.192 59.625 C 254.840 59.273,250.118 59.268,249.083 59.619 M133.951 59.605 C 133.886 59.669,133.833 63.422,133.833 67.944 L 133.833 76.167 135.167 76.167 L 136.500 76.167 136.500 72.417 L 136.500 68.667 140.417 68.667 L 144.333 68.667 144.333 72.417 L 144.333 76.167 145.752 76.167 L 147.170 76.167 147.127 67.875 L 147.083 59.583 145.750 59.583 L 144.417 59.583 144.372 63.042 L 144.327 66.500 140.417 66.500 L 136.507 66.500 136.462 63.042 L 136.417 59.583 135.243 59.535 C 134.597 59.509,134.016 59.540,133.951 59.605 M150.282 59.606 C 150.219 59.670,150.167 63.422,150.167 67.944 L 150.167 76.167 151.500 76.167 L 152.833 76.167 152.833 72.583 L 152.833 69.000 154.583 69.000 C 155.639 69.000,156.333 69.066,156.333 69.167 C 156.333 69.258,156.448 69.333,156.588 69.333 C 156.898 69.333,158.333 70.739,158.333 71.042 C 158.333 71.162,158.483 71.368,158.667 71.500 C 158.850 71.632,159.000 71.857,159.000 72.000 C 159.000 72.143,159.150 72.368,159.333 72.500 C 159.517 72.632,159.667 72.857,159.667 73.000 C 159.667 73.143,159.817 73.368,160.000 73.500 C 160.183 73.632,160.333 73.874,160.333 74.037 C 160.333 74.200,160.408 74.333,160.500 74.333 C 160.592 74.333,160.667 74.445,160.667 74.582 C 160.667 74.719,160.817 74.924,161.000 75.039 C 161.183 75.153,161.333 75.347,161.333 75.469 C 161.333 76.005,161.795 76.167,163.321 76.167 C 164.722 76.167,164.833 76.142,164.833 75.833 C 164.833 75.650,164.758 75.500,164.667 75.500 C 164.575 75.500,164.500 75.387,164.500 75.250 C 164.500 75.112,164.425 75.000,164.333 75.000 C 164.242 75.000,164.167 74.867,164.167 74.703 C 164.167 74.540,164.017 74.299,163.833 74.167 C 163.650 74.035,163.500 73.810,163.500 73.667 C 163.500 73.524,163.350 73.299,163.167 73.167 C 162.983 73.035,162.833 72.793,162.833 72.630 C 162.833 72.467,162.758 72.333,162.667 72.333 C 162.575 72.333,162.500 72.193,162.500 72.020 C 162.500 71.848,162.387 71.614,162.250 71.500 C 162.112 71.386,162.000 71.196,162.000 71.077 C 162.000 70.959,161.548 70.403,160.995 69.841 C 159.973 68.804,159.893 68.333,160.738 68.333 C 160.882 68.333,161.000 68.258,161.000 68.167 C 161.000 68.075,161.150 68.000,161.333 68.000 C 161.517 68.000,161.667 67.925,161.667 67.833 C 161.667 67.742,161.766 67.667,161.888 67.667 C 162.156 67.667,162.833 66.972,162.833 66.698 C 162.833 66.589,162.908 66.500,163.000 66.500 C 163.092 66.500,163.167 66.350,163.167 66.167 C 163.167 65.983,163.242 65.833,163.333 65.833 C 163.433 65.833,163.500 65.167,163.500 64.167 C 163.500 63.167,163.433 62.500,163.333 62.500 C 163.242 62.500,163.167 62.313,163.167 62.084 C 163.167 61.514,161.645 59.908,160.946 59.741 C 160.263 59.578,150.435 59.454,150.282 59.606 M166.951 59.605 C 166.886 59.669,166.833 63.422,166.833 67.944 L 166.833 76.167 168.168 76.167 L 169.503 76.167 169.460 67.875 L 169.417 59.583 168.243 59.535 C 167.597 59.509,167.016 59.540,166.951 59.605 M186.500 60.665 L 186.500 61.833 189.083 61.833 L 191.667 61.833 191.667 69.000 L 191.667 76.167 193.000 76.167 L 194.333 76.167 194.333 69.000 L 194.333 61.833 197.091 61.833 L 199.849 61.833 199.799 60.708 L 199.750 59.583 193.125 59.540 L 186.500 59.496 186.500 60.665 M201.833 67.833 L 201.833 76.167 203.083 76.167 L 204.333 76.167 204.333 67.833 L 204.333 59.500 203.083 59.500 L 201.833 59.500 201.833 67.833 M211.875 59.749 C 211.760 59.879,211.667 60.177,211.667 60.410 C 211.667 60.643,211.592 60.833,211.500 60.833 C 211.408 60.833,211.333 60.983,211.333 61.167 C 211.333 61.350,211.258 61.500,211.167 61.500 C 211.075 61.500,211.000 61.725,211.000 62.000 C 211.000 62.275,210.925 62.500,210.833 62.500 C 210.742 62.500,210.667 62.725,210.667 63.000 C 210.667 63.275,210.592 63.500,210.500 63.500 C 210.408 63.500,210.333 63.650,210.333 63.833 C 210.333 64.017,210.258 64.167,210.167 64.167 C 210.075 64.167,210.000 64.392,210.000 64.667 C 210.000 64.942,209.925 65.167,209.833 65.167 C 209.742 65.167,209.667 65.392,209.667 65.667 C 209.667 65.942,209.592 66.167,209.500 66.167 C 209.408 66.167,209.333 66.317,209.333 66.500 C 209.333 66.683,209.258 66.833,209.167 66.833 C 209.075 66.833,209.000 67.016,209.000 67.240 C 209.000 67.464,208.925 67.693,208.833 67.750 C 208.742 67.807,208.667 68.036,208.667 68.260 C 208.667 68.484,208.592 68.667,208.500 68.667 C 208.408 68.667,208.333 68.817,208.333 69.000 C 208.333 69.183,208.258 69.333,208.167 69.333 C 208.075 69.333,208.000 69.558,208.000 69.833 C 208.000 70.108,207.925 70.333,207.833 70.333 C 207.742 70.333,207.667 70.483,207.667 70.667 C 207.667 70.850,207.592 71.000,207.500 71.000 C 207.408 71.000,207.333 71.225,207.333 71.500 C 207.333 71.775,207.258 72.000,207.167 72.000 C 207.075 72.000,207.000 72.225,207.000 72.500 C 207.000 72.775,206.925 73.000,206.833 73.000 C 206.742 73.000,206.667 73.150,206.667 73.333 C 206.667 73.517,206.592 73.667,206.500 73.667 C 206.408 73.667,206.333 73.892,206.333 74.167 C 206.333 74.442,206.258 74.667,206.167 74.667 C 206.075 74.667,206.000 74.850,206.000 75.073 C 206.000 75.297,205.925 75.527,205.833 75.583 C 205.232 75.955,205.717 76.167,207.167 76.167 C 208.556 76.167,208.667 76.142,208.667 75.833 C 208.667 75.650,208.742 75.500,208.833 75.500 C 208.925 75.500,209.000 75.317,209.000 75.093 C 209.000 74.869,209.075 74.640,209.167 74.583 C 209.258 74.527,209.333 74.297,209.333 74.073 C 209.333 73.850,209.408 73.667,209.500 73.667 C 209.592 73.667,209.667 73.442,209.667 73.167 C 209.667 72.892,209.742 72.667,209.833 72.667 C 209.925 72.667,210.000 72.474,210.000 72.238 C 210.000 71.385,210.210 71.333,213.655 71.333 L 216.833 71.333 216.833 71.833 C 216.833 72.108,216.908 72.333,217.000 72.333 C 217.092 72.333,217.167 72.558,217.167 72.833 C 217.167 73.108,217.242 73.333,217.333 73.333 C 217.425 73.333,217.500 73.558,217.500 73.833 C 217.500 74.108,217.575 74.333,217.667 74.333 C 217.758 74.333,217.833 74.483,217.833 74.667 C 217.833 74.850,217.908 75.000,218.000 75.000 C 218.092 75.000,218.167 75.155,218.167 75.345 C 218.167 75.993,218.553 76.167,219.988 76.167 C 221.222 76.167,221.333 76.139,221.333 75.833 C 221.333 75.650,221.270 75.500,221.193 75.500 C 221.116 75.500,220.914 75.012,220.744 74.417 C 220.573 73.821,220.374 73.333,220.300 73.333 C 220.227 73.333,220.167 73.108,220.167 72.833 C 220.167 72.558,220.092 72.333,220.000 72.333 C 219.908 72.333,219.833 72.183,219.833 72.000 C 219.833 71.817,219.758 71.667,219.667 71.667 C 219.575 71.667,219.500 71.442,219.500 71.167 C 219.500 70.892,219.425 70.667,219.333 70.667 C 219.242 70.667,219.167 70.517,219.167 70.333 C 219.167 70.150,219.092 70.000,219.000 70.000 C 218.908 70.000,218.833 69.775,218.833 69.500 C 218.833 69.225,218.758 69.000,218.667 69.000 C 218.575 69.000,218.500 68.850,218.500 68.667 C 218.500 68.483,218.425 68.333,218.333 68.333 C 218.242 68.333,218.167 68.198,218.167 68.033 C 218.167 67.661,217.794 66.836,217.625 66.835 C 217.556 66.834,217.500 66.608,217.500 66.333 C 217.500 66.058,217.425 65.833,217.333 65.833 C 217.242 65.833,217.167 65.683,217.167 65.500 C 217.167 65.317,217.092 65.167,217.000 65.167 C 216.908 65.167,216.833 64.942,216.833 64.667 C 216.833 64.392,216.758 64.167,216.667 64.167 C 216.575 64.167,216.500 64.017,216.500 63.833 C 216.500 63.650,216.425 63.500,216.333 63.500 C 216.242 63.500,216.167 63.275,216.167 63.000 C 216.167 62.725,216.092 62.500,216.000 62.500 C 215.908 62.500,215.833 62.350,215.833 62.167 C 215.833 61.983,215.758 61.833,215.667 61.833 C 215.575 61.833,215.500 61.608,215.500 61.333 C 215.500 61.058,215.425 60.833,215.333 60.833 C 215.242 60.833,215.167 60.683,215.167 60.500 C 215.167 60.317,215.092 60.167,215.000 60.167 C 214.908 60.167,214.833 60.017,214.833 59.833 C 214.833 59.407,212.242 59.333,211.875 59.749 M222.444 59.611 C 222.383 59.672,222.333 63.422,222.333 67.944 L 222.333 76.167 223.667 76.167 L 225.000 76.167 225.000 70.500 C 225.000 67.383,225.043 64.833,225.095 64.833 C 225.277 64.833,225.667 65.311,225.667 65.535 C 225.667 65.658,225.817 65.868,226.000 66.000 C 226.183 66.132,226.333 66.356,226.333 66.497 C 226.333 66.638,226.483 66.847,226.667 66.961 C 226.850 67.076,227.000 67.265,227.000 67.381 C 227.000 67.498,227.150 67.701,227.333 67.833 C 227.517 67.965,227.667 68.190,227.667 68.333 C 227.667 68.476,227.817 68.701,228.000 68.833 C 228.183 68.965,228.333 69.190,228.333 69.333 C 228.333 69.476,228.483 69.701,228.667 69.833 C 228.850 69.965,229.000 70.203,229.000 70.360 C 229.000 70.518,229.073 70.692,229.162 70.747 C 229.251 70.802,229.447 71.107,229.598 71.424 C 229.748 71.741,229.938 72.000,230.019 72.000 C 230.100 72.000,230.167 72.150,230.167 72.333 C 230.167 72.517,230.242 72.667,230.333 72.667 C 230.425 72.667,230.500 72.800,230.500 72.963 C 230.500 73.126,230.650 73.368,230.833 73.500 C 231.017 73.632,231.167 73.825,231.167 73.928 C 231.167 74.031,231.317 74.251,231.500 74.417 C 231.683 74.583,231.833 74.803,231.833 74.906 C 231.833 75.009,231.983 75.201,232.167 75.333 C 232.350 75.465,232.500 75.707,232.500 75.870 C 232.500 76.132,232.673 76.167,234.002 76.167 L 235.503 76.167 235.460 67.875 L 235.417 59.583 234.167 59.583 L 232.917 59.583 232.873 65.292 C 232.849 68.431,232.787 71.000,232.736 71.000 C 232.555 71.000,232.167 70.521,232.167 70.299 C 232.167 70.175,232.017 69.965,231.833 69.833 C 231.650 69.701,231.500 69.476,231.500 69.333 C 231.500 69.190,231.350 68.965,231.167 68.833 C 230.983 68.701,230.833 68.476,230.833 68.333 C 230.833 68.190,230.683 67.965,230.500 67.833 C 230.317 67.701,230.167 67.514,230.167 67.417 C 230.167 67.320,230.017 67.132,229.833 67.000 C 229.650 66.868,229.500 66.626,229.500 66.463 C 229.500 66.300,229.439 66.167,229.365 66.167 C 229.291 66.167,229.098 65.867,228.937 65.500 C 228.775 65.133,228.573 64.833,228.488 64.833 C 228.403 64.833,228.333 64.700,228.333 64.537 C 228.333 64.374,228.183 64.132,228.000 64.000 C 227.817 63.868,227.667 63.643,227.667 63.500 C 227.667 63.357,227.517 63.132,227.333 63.000 C 227.150 62.868,227.000 62.643,227.000 62.500 C 227.000 62.357,226.850 62.132,226.667 62.000 C 226.483 61.868,226.333 61.643,226.333 61.500 C 226.333 61.357,226.183 61.132,226.000 61.000 C 225.817 60.868,225.667 60.660,225.667 60.539 C 225.667 59.768,223.043 59.012,222.444 59.611 M261.333 67.831 L 261.333 76.167 267.667 76.167 L 274.000 76.167 274.000 75.083 L 274.000 74.000 268.917 74.000 L 263.833 74.000 263.833 71.333 L 263.833 68.667 268.179 68.667 C 273.133 68.667,273.000 68.703,273.000 67.345 L 273.000 66.500 268.417 66.500 L 263.833 66.500 263.833 64.167 L 263.833 61.833 268.512 61.833 C 273.892 61.833,273.715 61.881,273.634 60.461 L 273.583 59.583 267.458 59.540 L 261.333 59.496 261.333 67.831 M276.111 59.611 C 276.050 59.672,276.000 63.422,276.000 67.944 L 276.000 76.167 277.333 76.167 L 278.667 76.167 278.667 70.333 C 278.667 64.440,278.706 64.064,279.226 65.042 C 279.725 65.980,279.938 66.322,280.223 66.637 C 280.375 66.805,280.500 67.014,280.500 67.101 C 280.500 67.188,280.650 67.368,280.833 67.500 C 281.017 67.632,281.167 67.874,281.167 68.037 C 281.167 68.200,281.242 68.333,281.333 68.333 C 281.425 68.333,281.500 68.467,281.500 68.630 C 281.500 68.793,281.650 69.035,281.833 69.167 C 282.017 69.299,282.167 69.524,282.167 69.667 C 282.167 69.810,282.317 70.035,282.500 70.167 C 282.683 70.299,282.833 70.524,282.833 70.667 C 282.833 70.810,282.983 71.035,283.167 71.167 C 283.350 71.299,283.500 71.524,283.500 71.667 C 283.500 71.810,283.650 72.035,283.833 72.167 C 284.017 72.299,284.167 72.524,284.167 72.667 C 284.167 72.810,284.317 73.035,284.500 73.167 C 284.683 73.299,284.833 73.524,284.833 73.667 C 284.833 73.810,284.983 74.035,285.167 74.167 C 285.350 74.299,285.500 74.502,285.500 74.619 C 285.500 74.735,285.650 74.924,285.833 75.039 C 286.017 75.153,286.167 75.347,286.167 75.469 C 286.167 75.988,286.633 76.167,287.988 76.167 L 289.333 76.167 289.333 67.833 L 289.333 59.500 288.083 59.500 L 286.833 59.500 286.833 65.417 C 286.833 68.671,286.790 71.333,286.738 71.333 C 286.556 71.333,286.167 70.856,286.167 70.632 C 286.167 70.508,286.017 70.299,285.833 70.167 C 285.650 70.035,285.500 69.810,285.500 69.667 C 285.500 69.524,285.350 69.299,285.167 69.167 C 284.983 69.035,284.833 68.810,284.833 68.667 C 284.833 68.524,284.683 68.299,284.500 68.167 C 284.317 68.035,284.167 67.831,284.167 67.715 C 284.167 67.598,284.017 67.409,283.833 67.295 C 283.650 67.180,283.500 66.971,283.500 66.830 C 283.500 66.689,283.350 66.465,283.167 66.333 C 282.983 66.201,282.833 65.976,282.833 65.833 C 282.833 65.690,282.683 65.465,282.500 65.333 C 282.317 65.201,282.167 64.960,282.167 64.797 C 282.167 64.633,282.092 64.500,282.000 64.500 C 281.908 64.500,281.833 64.367,281.833 64.203 C 281.833 64.040,281.683 63.799,281.500 63.667 C 281.317 63.535,281.167 63.310,281.167 63.167 C 281.167 63.024,281.017 62.799,280.833 62.667 C 280.650 62.535,280.500 62.310,280.500 62.167 C 280.500 62.024,280.350 61.799,280.167 61.667 C 279.983 61.535,279.833 61.310,279.833 61.167 C 279.833 61.024,279.683 60.799,279.500 60.667 C 279.317 60.535,279.167 60.308,279.167 60.163 C 279.167 59.592,276.595 59.127,276.111 59.611 M291.333 60.665 L 291.333 61.833 293.917 61.833 L 296.500 61.833 296.500 69.000 L 296.500 76.167 297.833 76.167 L 299.167 76.167 299.167 69.000 L 299.167 61.833 301.924 61.833 L 304.682 61.833 304.633 60.708 L 304.583 59.583 297.958 59.540 L 291.333 59.496 291.333 60.665 M306.444 59.611 C 306.383 59.672,306.333 63.422,306.333 67.944 L 306.333 76.167 307.667 76.167 L 309.000 76.167 309.000 72.583 L 309.000 69.000 310.833 69.000 C 311.944 69.000,312.667 69.066,312.667 69.167 C 312.667 69.258,312.744 69.333,312.839 69.333 C 313.088 69.333,314.167 70.449,314.167 70.708 C 314.167 70.828,314.317 71.035,314.500 71.167 C 314.683 71.299,314.833 71.524,314.833 71.667 C 314.833 71.810,314.983 72.035,315.167 72.167 C 315.350 72.299,315.500 72.524,315.500 72.667 C 315.500 72.810,315.650 73.035,315.833 73.167 C 316.017 73.299,316.167 73.540,316.167 73.703 C 316.167 73.867,316.242 74.000,316.333 74.000 C 316.425 74.000,316.500 74.133,316.500 74.297 C 316.500 74.460,316.650 74.701,316.833 74.833 C 317.017 74.965,317.167 75.135,317.167 75.211 C 317.167 75.823,318.003 76.167,319.492 76.167 C 320.980 76.167,321.644 75.783,320.750 75.440 C 320.612 75.387,320.500 75.208,320.500 75.042 C 320.500 74.876,320.350 74.632,320.167 74.500 C 319.983 74.368,319.833 74.126,319.833 73.963 C 319.833 73.800,319.758 73.667,319.667 73.667 C 319.575 73.667,319.500 73.533,319.500 73.370 C 319.500 73.207,319.350 72.965,319.167 72.833 C 318.983 72.701,318.833 72.476,318.833 72.333 C 318.833 72.190,318.683 71.965,318.500 71.833 C 318.317 71.701,318.167 71.476,318.167 71.333 C 318.167 71.190,318.017 70.965,317.833 70.833 C 317.650 70.701,317.500 70.491,317.500 70.367 C 317.500 70.242,317.194 69.847,316.821 69.488 C 316.121 68.816,316.157 68.333,316.905 68.333 C 317.049 68.333,317.167 68.258,317.167 68.167 C 317.167 68.075,317.277 68.000,317.412 68.000 C 317.726 68.000,319.167 66.674,319.167 66.385 C 319.167 66.265,319.242 66.167,319.333 66.167 C 319.425 66.167,319.500 66.021,319.500 65.843 C 319.500 65.665,319.575 65.473,319.667 65.417 C 319.758 65.360,319.833 64.831,319.833 64.240 C 319.833 63.636,319.761 63.167,319.667 63.167 C 319.575 63.167,319.500 62.942,319.500 62.667 C 319.500 62.392,319.425 62.167,319.333 62.167 C 319.242 62.167,319.167 62.017,319.167 61.833 C 319.167 61.650,319.092 61.500,319.000 61.500 C 318.908 61.500,318.833 61.384,318.833 61.242 C 318.833 60.909,318.091 60.167,317.758 60.167 C 317.616 60.167,317.500 60.092,317.500 60.000 C 317.500 59.908,317.279 59.833,317.010 59.833 C 316.740 59.833,316.473 59.758,316.417 59.667 C 316.301 59.480,306.630 59.426,306.444 59.611 M322.444 59.611 C 322.383 59.672,322.333 63.422,322.333 67.944 L 322.333 76.167 328.750 76.167 L 335.167 76.167 335.167 75.083 L 335.167 74.000 330.083 74.000 L 325.000 74.000 325.000 71.333 L 325.000 68.667 329.345 68.667 C 334.300 68.667,334.167 68.703,334.167 67.345 L 334.167 66.500 329.583 66.500 L 325.000 66.500 325.000 64.167 L 325.000 61.833 329.679 61.833 C 333.511 61.833,334.400 61.790,334.595 61.595 C 334.936 61.254,334.917 59.734,334.570 59.601 C 334.209 59.463,322.583 59.472,322.444 59.611 M159.000 62.000 C 159.000 62.092,159.191 62.167,159.424 62.167 C 159.892 62.167,160.667 62.837,160.667 63.242 C 160.667 63.384,160.742 63.500,160.833 63.500 C 160.925 63.500,161.000 63.800,161.000 64.167 C 161.000 64.533,160.925 64.833,160.833 64.833 C 160.742 64.833,160.667 64.948,160.667 65.089 C 160.667 65.679,159.554 66.500,158.756 66.500 C 158.340 66.500,158.000 66.575,158.000 66.667 C 158.000 66.771,157.028 66.833,155.417 66.833 L 152.833 66.833 152.833 64.333 L 152.833 61.833 155.917 61.833 C 157.861 61.833,159.000 61.895,159.000 62.000 M315.167 62.000 C 315.167 62.092,315.282 62.167,315.422 62.167 C 316.079 62.167,316.833 63.278,316.833 64.244 C 316.833 64.752,316.758 65.167,316.667 65.167 C 316.575 65.167,316.500 65.285,316.500 65.429 C 316.500 65.765,316.099 66.167,315.762 66.167 C 315.618 66.167,315.500 66.242,315.500 66.333 C 315.500 66.425,315.125 66.500,314.667 66.500 C 314.208 66.500,313.833 66.575,313.833 66.667 C 313.833 66.770,312.917 66.833,311.417 66.833 L 309.000 66.833 309.000 64.333 L 309.000 61.833 312.083 61.833 C 314.028 61.833,315.167 61.895,315.167 62.000 M213.500 63.000 C 213.500 63.275,213.575 63.500,213.667 63.500 C 213.758 63.500,213.833 63.725,213.833 64.000 C 213.833 64.275,213.908 64.500,214.000 64.500 C 214.092 64.500,214.167 64.725,214.167 65.000 C 214.167 65.275,214.242 65.500,214.333 65.500 C 214.425 65.500,214.500 65.650,214.500 65.833 C 214.500 66.017,214.575 66.167,214.667 66.167 C 214.758 66.167,214.833 66.350,214.833 66.573 C 214.833 66.797,214.908 67.027,215.000 67.083 C 215.092 67.140,215.167 67.369,215.167 67.593 C 215.167 67.817,215.242 68.000,215.333 68.000 C 215.425 68.000,215.500 68.150,215.500 68.333 C 215.500 68.517,215.575 68.667,215.667 68.667 C 215.758 68.667,215.833 68.742,215.833 68.833 C 215.833 68.936,214.972 69.000,213.583 69.000 L 211.333 69.000 211.333 68.500 C 211.333 68.225,211.408 68.000,211.500 68.000 C 211.592 68.000,211.667 67.850,211.667 67.667 C 211.667 67.483,211.742 67.333,211.833 67.333 C 211.925 67.333,212.000 67.150,212.000 66.927 C 212.000 66.703,212.066 66.479,212.147 66.429 C 212.229 66.378,212.346 65.999,212.408 65.585 C 212.470 65.172,212.591 64.833,212.677 64.833 C 212.763 64.833,212.833 64.608,212.833 64.333 C 212.833 64.058,212.908 63.833,213.000 63.833 C 213.092 63.833,213.167 63.533,213.167 63.167 C 213.167 62.800,213.242 62.500,213.333 62.500 C 213.425 62.500,213.500 62.725,213.500 63.000 M75.890 73.427 C 75.835 73.570,75.864 74.227,75.954 74.886 L 76.118 76.083 76.142 74.625 C 76.166 73.212,76.097 72.886,75.890 73.427 " stroke="none" fill="#040404" fill-rule="evenodd"></path><path id="path4" d="M53.333 6.349 C 51.551 6.523,49.616 6.797,48.750 6.997 C 48.383 7.082,47.596 7.267,47.000 7.408 C 34.267 10.416,23.202 20.007,18.327 32.264 C 16.959 35.704,15.934 39.706,15.714 42.473 C 15.650 43.272,15.538 43.726,15.391 43.783 C 15.123 43.886,15.065 46.333,15.330 46.333 C 15.544 46.333,15.625 45.900,15.752 44.083 C 16.443 34.152,21.428 24.072,29.047 17.197 C 31.008 15.427,33.778 13.323,35.185 12.535 C 36.465 11.819,36.586 11.747,36.667 11.659 C 36.752 11.567,39.451 10.239,40.500 9.774 C 42.632 8.829,45.644 7.895,48.917 7.165 C 52.507 6.364,58.433 6.225,62.833 6.839 C 66.909 7.408,72.189 9.073,75.583 10.860 C 77.544 11.893,78.120 12.234,79.776 13.343 C 87.037 18.205,92.172 24.597,95.500 32.917 C 95.592 33.146,95.733 33.502,95.815 33.708 C 95.984 34.134,96.467 35.667,96.670 36.417 C 97.149 38.195,97.308 38.889,97.490 40.000 C 97.789 41.822,97.961 42.523,97.983 42.000 C 98.078 39.667,95.937 32.825,93.827 28.722 C 86.176 13.838,69.727 4.750,53.333 6.349 M38.245 19.078 C 38.072 19.667,38.037 36.470,38.208 36.641 C 38.415 36.849,50.301 36.882,54.026 36.686 L 55.969 36.583 56.026 27.750 L 56.083 18.917 47.189 18.911 C 41.202 18.907,38.279 18.962,38.245 19.078 M55.458 36.282 C 55.298 36.323,55.035 36.323,54.875 36.282 C 54.715 36.240,54.846 36.205,55.167 36.205 C 55.487 36.205,55.619 36.240,55.458 36.282 M51.824 38.562 C 51.783 38.602,48.759 38.676,45.104 38.726 C 41.449 38.777,38.440 38.841,38.416 38.868 C 38.393 38.895,38.320 42.836,38.254 47.626 L 38.133 56.336 47.025 56.293 L 55.917 56.250 55.917 47.417 L 55.917 38.583 53.908 38.537 C 52.803 38.511,51.865 38.523,51.824 38.562 M98.025 43.445 C 98.011 44.010,98.046 44.591,98.101 44.736 C 98.303 45.263,98.500 44.981,98.500 44.167 C 98.500 43.708,98.430 43.333,98.344 43.333 C 98.259 43.333,98.158 43.127,98.119 42.875 C 98.081 42.623,98.039 42.879,98.025 43.445 M15.282 49.273 C 15.052 49.503,15.158 51.349,15.417 51.607 C 15.554 51.745,15.668 52.133,15.670 52.470 C 15.707 60.316,21.894 72.216,29.308 78.704 C 32.884 81.833,40.710 86.679,41.275 86.114 C 41.333 86.056,41.174 85.931,40.924 85.836 C 40.166 85.548,36.613 83.796,36.167 83.491 C 35.938 83.334,35.450 83.039,35.083 82.836 C 34.432 82.475,34.150 82.275,31.427 80.239 C 22.744 73.747,16.491 62.165,15.732 51.167 C 15.623 49.580,15.499 49.057,15.282 49.273 M98.105 50.875 C 98.050 51.081,98.015 51.663,98.027 52.167 C 98.040 52.671,98.081 52.877,98.119 52.625 C 98.158 52.373,98.259 52.167,98.344 52.167 C 98.430 52.167,98.500 51.792,98.500 51.333 C 98.500 50.471,98.281 50.218,98.105 50.875 M97.762 53.917 C 97.486 55.921,96.915 58.377,96.299 60.213 C 96.121 60.742,96.005 61.266,96.043 61.378 C 96.177 61.780,97.502 56.933,97.838 54.810 C 97.949 54.109,98.003 53.434,97.958 53.310 C 97.914 53.185,97.825 53.458,97.762 53.917 M95.739 61.934 C 95.683 62.108,95.574 62.400,95.498 62.583 C 95.422 62.767,95.222 63.254,95.055 63.665 C 92.156 70.788,86.687 77.446,79.890 82.126 C 79.326 82.515,78.814 82.833,78.754 82.833 C 78.693 82.833,78.330 83.047,77.947 83.307 C 77.300 83.747,73.482 85.659,72.768 85.901 C 72.594 85.960,72.500 86.055,72.558 86.113 C 72.733 86.289,77.634 83.769,79.500 82.543 C 85.950 78.306,91.129 72.417,94.387 65.616 C 95.221 63.877,96.034 61.812,95.927 61.705 C 95.880 61.658,95.795 61.761,95.739 61.934 M41.677 86.329 C 42.685 86.919,48.354 88.499,49.464 88.500 C 49.673 88.500,49.887 88.612,49.940 88.750 C 50.060 89.065,50.667 89.080,50.667 88.769 C 50.667 88.620,50.384 88.497,49.875 88.424 C 48.288 88.195,45.518 87.493,43.617 86.838 C 41.679 86.170,41.182 86.039,41.677 86.329 M70.786 86.625 C 70.164 86.855,69.689 87.078,69.732 87.120 C 69.810 87.199,71.718 86.570,72.167 86.318 C 72.669 86.035,71.948 86.195,70.786 86.625 M68.750 87.333 L 68.417 87.477 68.750 87.486 C 68.933 87.491,69.196 87.422,69.333 87.333 C 69.665 87.119,69.248 87.119,68.750 87.333 M66.750 87.842 C 66.108 88.013,65.040 88.242,64.375 88.350 C 63.562 88.482,63.167 88.620,63.167 88.773 C 63.167 89.081,63.774 89.062,63.894 88.750 C 63.946 88.612,64.174 88.500,64.399 88.500 C 64.910 88.500,67.828 87.843,68.167 87.651 C 68.576 87.420,68.077 87.487,66.750 87.842 " stroke="none" fill="#3b658e" fill-rule="evenodd"></path></g></svg>